<svg enable-background="new 0 0 464 464" viewBox="0 0 464 464" xmlns="http://www.w3.org/2000/svg"><path d="m97 16h270v16h-270z" fill="#dc7850"/><g fill="#a4bfce"><path d="m97 104h270v16h-270z"/><path d="m97 184h270v16h-270z"/><path d="m97 264h270v16h-270z"/><path d="m97 344h270v16h-270z"/></g><path d="m96 0h-32c-4.418 0-8 3.582-8 8v429.995h48v-429.995c0-4.418-3.582-8-8-8z" fill="#e68c5a"/><path d="m400 0h-32c-4.418 0-8 3.582-8 8v429.995h48v-429.995c0-4.418-3.582-8-8-8z" fill="#e68c5a"/><path d="m136 136c-8.837 0-16-7.163-16-16v-16c0-8.837 7.163-16 16-16 8.837 0 16 7.163 16 16v16c0 8.837-7.163 16-16 16z" fill="#dc7850"/><path d="m120 104v16c0 8.836 7.164 16 16 16v-48c-8.836 0-16 7.163-16 16z" fill="#c85a46"/><path d="m168 136c-8.837 0-16-7.163-16-16v-16c0-8.837 7.163-16 16-16 8.837 0 16 7.163 16 16v16c0 8.837-7.163 16-16 16z" fill="#dc7850"/><path d="m152 104v16c0 8.836 7.164 16 16 16v-48c-8.836 0-16 7.163-16 16z" fill="#c85a46"/><path d="m296 136c-8.837 0-16-7.163-16-16v-16c0-8.837 7.163-16 16-16 8.837 0 16 7.163 16 16v16c0 8.837-7.163 16-16 16z" fill="#dc7850"/><path d="m280 104v16c0 8.836 7.164 16 16 16v-48c-8.836 0-16 7.163-16 16z" fill="#c85a46"/><path d="m248 136c-8.837 0-16-7.163-16-16v-16c0-8.837 7.163-16 16-16 8.837 0 16 7.163 16 16v16c0 8.837-7.163 16-16 16z" fill="#8c5f56"/><path d="m232 104v16c0 8.836 7.164 16 16 16v-48c-8.836 0-16 7.163-16 16z" fill="#734b46"/><path d="m136 216c-8.837 0-16-7.163-16-16v-16c0-8.837 7.163-16 16-16 8.837 0 16 7.163 16 16v16c0 8.837-7.163 16-16 16z" fill="#dc7850"/><path d="m120 184v16c0 8.836 7.164 16 16 16v-48c-8.836 0-16 7.163-16 16z" fill="#c85a46"/><path d="m168 216c-8.837 0-16-7.163-16-16v-16c0-8.837 7.163-16 16-16 8.837 0 16 7.163 16 16v16c0 8.837-7.163 16-16 16z" fill="#dc7850"/><path d="m152 184v16c0 8.836 7.164 16 16 16v-48c-8.836 0-16 7.163-16 16z" fill="#c85a46"/><path d="m296 216c-8.837 0-16-7.163-16-16v-16c0-8.837 7.163-16 16-16 8.837 0 16 7.163 16 16v16c0 8.837-7.163 16-16 16z" fill="#dc7850"/><path d="m280 184v16c0 8.836 7.164 16 16 16v-48c-8.836 0-16 7.163-16 16z" fill="#c85a46"/><path d="m328 216c-8.837 0-16-7.163-16-16v-16c0-8.837 7.163-16 16-16 8.837 0 16 7.163 16 16v16c0 8.837-7.163 16-16 16z" fill="#dc7850"/><path d="m312 184v16c0 8.836 7.164 16 16 16v-48c-8.836 0-16 7.163-16 16z" fill="#c85a46"/><path d="m152 296c-8.837 0-16-7.163-16-16v-16c0-8.837 7.163-16 16-16 8.837 0 16 7.163 16 16v16c0 8.837-7.163 16-16 16z" fill="#dc7850"/><path d="m136 264v16c0 8.836 7.164 16 16 16v-48c-8.836 0-16 7.163-16 16z" fill="#c85a46"/><path d="m120 296c-8.837 0-16-7.163-16-16v-16c0-8.837 7.163-16 16-16 8.837 0 16 7.163 16 16v16c0 8.837-7.163 16-16 16z" fill="#dc7850"/><path d="m104 264v16c0 8.836 7.164 16 16 16v-48c-8.836 0-16 7.163-16 16z" fill="#c85a46"/><path d="m184 296c-8.837 0-16-7.163-16-16v-16c0-8.837 7.163-16 16-16 8.837 0 16 7.163 16 16v16c0 8.837-7.163 16-16 16z" fill="#dc7850"/><path d="m168 264v16c0 8.836 7.164 16 16 16v-48c-8.836 0-16 7.163-16 16z" fill="#c85a46"/><path d="m216 296c-8.837 0-16-7.163-16-16v-16c0-8.837 7.163-16 16-16 8.837 0 16 7.163 16 16v16c0 8.837-7.163 16-16 16z" fill="#dc7850"/><path d="m200 264v16c0 8.836 7.164 16 16 16v-48c-8.836 0-16 7.163-16 16z" fill="#c85a46"/><path d="m136 376c-8.837 0-16-7.163-16-16v-16c0-8.837 7.163-16 16-16 8.837 0 16 7.163 16 16v16c0 8.837-7.163 16-16 16z" fill="#dc7850"/><path d="m120 344v16c0 8.836 7.164 16 16 16v-48c-8.836 0-16 7.163-16 16z" fill="#c85a46"/><path d="m168 376c-8.837 0-16-7.163-16-16v-16c0-8.837 7.163-16 16-16 8.837 0 16 7.163 16 16v16c0 8.837-7.163 16-16 16z" fill="#dc7850"/><path d="m152 344v16c0 8.836 7.164 16 16 16v-48c-8.836 0-16 7.163-16 16z" fill="#c85a46"/><path d="m216 376c-8.837 0-16-7.163-16-16v-16c0-8.837 7.163-16 16-16 8.837 0 16 7.163 16 16v16c0 8.837-7.163 16-16 16z" fill="#dc7850"/><path d="m200 344v16c0 8.836 7.164 16 16 16v-48c-8.836 0-16 7.163-16 16z" fill="#c85a46"/><path d="m248 376c-8.837 0-16-7.163-16-16v-16c0-8.837 7.163-16 16-16 8.837 0 16 7.163 16 16v16c0 8.837-7.163 16-16 16z" fill="#dc7850"/><path d="m232 344v16c0 8.836 7.164 16 16 16v-48c-8.836 0-16 7.163-16 16z" fill="#c85a46"/><path d="m200 216c-8.837 0-16-7.163-16-16v-16c0-8.837 7.163-16 16-16 8.837 0 16 7.163 16 16v16c0 8.837-7.163 16-16 16z" fill="#8c5f56"/><path d="m184 184v16c0 8.836 7.164 16 16 16v-48c-8.836 0-16 7.163-16 16z" fill="#734b46"/><path d="m232 216c-8.837 0-16-7.163-16-16v-16c0-8.837 7.163-16 16-16 8.837 0 16 7.163 16 16v16c0 8.837-7.163 16-16 16z" fill="#8c5f56"/><path d="m216 184v16c0 8.836 7.164 16 16 16v-48c-8.836 0-16 7.163-16 16z" fill="#734b46"/><path d="m264 296c-8.837 0-16-7.163-16-16v-16c0-8.837 7.163-16 16-16 8.837 0 16 7.163 16 16v16c0 8.837-7.163 16-16 16z" fill="#8c5f56"/><path d="m248 264v16c0 8.836 7.164 16 16 16v-48c-8.836 0-16 7.163-16 16z" fill="#734b46"/><path d="m296 296c-8.837 0-16-7.163-16-16v-16c0-8.837 7.163-16 16-16 8.837 0 16 7.163 16 16v16c0 8.837-7.163 16-16 16z" fill="#8c5f56"/><path d="m280 264v16c0 8.836 7.164 16 16 16v-48c-8.836 0-16 7.163-16 16z" fill="#734b46"/><path d="m280 376c-8.837 0-16-7.163-16-16v-16c0-8.837 7.163-16 16-16 8.837 0 16 7.163 16 16v16c0 8.837-7.163 16-16 16z" fill="#8c5f56"/><path d="m264 344v16c0 8.836 7.164 16 16 16v-48c-8.836 0-16 7.163-16 16z" fill="#734b46"/><path d="m328 376c-8.837 0-16-7.163-16-16v-16c0-8.837 7.163-16 16-16 8.837 0 16 7.163 16 16v16c0 8.837-7.163 16-16 16z" fill="#8c5f56"/><path d="m312 344v16c0 8.836 7.164 16 16 16v-48c-8.836 0-16 7.163-16 16z" fill="#734b46"/><path d="m416 464h-368c-4.418 0-8-3.582-8-8v-16c0-4.418 3.582-8 8-8h368c4.418 0 8 3.582 8 8v16c0 4.418-3.582 8-8 8z" fill="#c85a46"/></svg>