<svg enable-background="new 0 0 464 464" viewBox="0 0 464 464" xmlns="http://www.w3.org/2000/svg"><path d="m232 464c-75.111 0-136-60.889-136-136v-192c0-75.111 60.889-136 136-136 75.111 0 136 60.889 136 136v192c0 75.111-60.889 136-136 136z" fill="#00bea5"/><path d="m152 328v-192c0-65.509 46.328-120.173 108-133.085-9.04-1.893-18.398-2.915-28-2.915-75.111 0-136 60.889-136 136v192c0 75.111 60.889 136 136 136 9.602 0 18.96-1.022 28-2.915-61.672-12.912-108-67.576-108-133.085z" fill="#00aa9a"/><g fill="#009d93"><circle cx="232" cy="128" r="100"/><path d="m96 280v48c0 4.337.252 8.614.649 12.847 32.081 53.948 104.988 83.442 166.648 108.27 5.29 2.13 10.529 4.248 15.716 6.364 6.876-2.538 13.51-5.544 19.812-9.11-9.501-4.004-19.391-8.002-29.551-12.094-81.219-32.707-173.274-69.773-173.274-154.277z"/><path d="m96 208v59.626c31.705 54.709 105.185 84.481 167.297 109.491 28.418 11.444 55.923 22.564 75.641 34.727 3.306-4.211 6.33-8.637 9.129-13.227-20.832-12.966-48.787-24.258-78.793-36.34-81.219-32.707-173.274-69.773-173.274-154.277z"/><path d="m368 195.626v-59.626c0 71.714-66.298 109.256-136.006 138.97-69.704-29.713-135.994-67.261-135.994-138.97v59.626c31.705 54.709 105.185 84.481 167.297 109.491 44.531 17.933 86.93 35.057 100.296 56.685 1.712-6.68 3.056-13.502 3.737-20.537-.065-.063-.135-.125-.201-.188.075-.125.155-.248.229-.373.388-4.187.642-8.415.642-12.704v-48c0 19.333-4.904 36.136-13.346 50.999-8.497-5.932-18.511-11.482-29.599-16.862 17.563-13.293 32.53-28.538 42.945-46.511v-59.626c0 43.512-24.46 74.41-59.238 98.641-12.405-5.448-25.729-10.823-39.489-16.364-5.596-2.254-11.245-4.529-16.91-6.838 47.027-21.212 92.477-47.85 115.637-87.813z"/></g><circle cx="232" cy="128" fill="#ffe5d1" r="88"/><path d="m180.667 128c0-42.31 29.87-77.62 69.667-86.058-5.918-1.255-12.043-1.942-18.334-1.942-48.601 0-88 39.399-88 88s39.399 88 88 88c6.291 0 12.416-.687 18.333-1.942-39.796-8.439-69.666-43.748-69.666-86.058z" fill="#ffd6b3"/><path d="m240.608 47.448c-3.975-.745-7.799 1.955-8.493 5.944-.709 3.989 1.955 7.792 5.944 8.493 2.721.487 3.595 2.177 3.839 2.886.236.666.473 1.977-.594 3.187-1.726 1.941-6.567 3.373-15.089 1.54-11.501-2.478-11.587-11.029-10.613-15.906 1.187-5.94 5.175-11.698 10.378-13.351-8.043.545-15.774 2.181-23.074 4.746-.715 1.869-1.296 3.785-1.684 5.733-2.707 13.557 3.022 29.047 21.9 33.115 3.853.831 7.255 1.182 10.262 1.182 10.556 0 16.228-4.311 18.913-7.355 4.326-4.898 5.615-11.53 3.445-17.732-2.286-6.552-7.951-11.215-15.134-12.482z" fill="#c3a587"/><path d="m192 144c-4.418 0-8-3.582-8-8v-8c0-4.418 3.582-8 8-8 4.418 0 8 3.582 8 8v8c0 4.418-3.582 8-8 8z" fill="#6e4141"/><path d="m272 144c-4.418 0-8-3.582-8-8v-8c0-4.418 3.582-8 8-8 4.418 0 8 3.582 8 8v8c0 4.418-3.582 8-8 8z" fill="#6e4141"/><path d="m232 188.149c-8.375 0-16.438-2.102-23.305-6.074-3.82-2.215-5.133-7.109-2.914-10.934 2.211-3.824 7.078-5.125 10.93-2.918 8.875 5.141 21.703 5.141 30.578 0 3.836-2.207 8.719-.906 10.93 2.918 2.219 3.824.906 8.719-2.914 10.934-6.867 3.973-14.93 6.074-23.305 6.074z" fill="#e6b996"/></svg>