<svg enable-background="new 0 0 464.005 464.005" viewBox="0 0 464.005 464.005" xmlns="http://www.w3.org/2000/svg"><path d="m252.103 137.114 46.266 23.856c7.212-12.028 14.452-25.491 21.348-39.935 28.552-59.808 40.386-113.693 26.43-120.356-13.955-6.662-48.415 36.421-76.967 96.229-6.633 13.895-12.362 27.468-17.077 40.206z" fill="#33cbdb"/><path d="m346.148.68c-13.956-6.662-48.415 36.421-76.967 96.229-6.633 13.895-12.363 27.468-17.078 40.205l22.95 11.834c5.438-19.734 14.348-43.365 26.127-68.039 15.607-32.691 32.96-60.309 47.784-77.613-.794-1.131-1.691-2.079-2.816-2.616z" fill="#17b7cb"/><path d="m211.907 137.113c-4.715-12.737-10.444-26.31-17.077-40.204-28.553-59.808-63.012-102.892-76.967-96.23s-2.122 60.547 26.431 120.355c6.895 14.443 14.135 27.906 21.347 39.934z" fill="#33cbdb"/><path d="m188.197 149.338c-11.762-16.524-24.309-37.96-35.903-62.246-15.831-33.16-26.494-64.462-30.499-86.942-1.426-.113-2.773-.024-3.932.529-13.955 6.662-2.122 60.547 26.431 120.355 6.9 14.453 14.142 27.909 21.357 39.928z" fill="#17b7cb"/><ellipse cx="147.634" cy="324.373" fill="#05a1b9" rx="53.082" ry="31.436" transform="matrix(-.7071 .7071 -.7071 -.7071 481.3942 449.3465)"/><ellipse cx="316.37" cy="324.37" fill="#05a1b9" rx="53.082" ry="31.436" transform="matrix(-.7071 -.7071 .7071 -.7071 310.7139 777.4417)"/><circle cx="232.005" cy="360" fill="#17b7cb" r="104"/><path d="m168.005 376c0-57.438 46.563-104 104-104 6.143 0 12.126.637 17.976 1.658-16.566-11.146-36.509-17.658-57.976-17.658-57.438 0-104 46.563-104 104 0 51.295 37.171 93.813 86.024 102.342-27.757-18.674-46.024-50.371-46.024-86.342z" fill="#0dabc1"/><path d="m232.005 360c-39.765 0-72 32.235-72 72 0 1.039.112 2.051.155 3.079 18.678 17.877 43.95 28.921 71.845 28.921s53.167-11.044 71.845-28.921c.043-1.028.155-2.04.155-3.079 0-39.765-32.235-72-72-72z" fill="#ffd7b9"/><path d="m264.62 448c-34.332 0-65.437-13.593-88.424-35.596-.02-.473-4.534-4.392-10.173-9.176-3.851 8.817-6.018 18.536-6.018 28.772 0 1.039.112 2.051.155 3.079 18.678 17.877 43.95 28.921 71.845 28.921 22.191 0 42.66-7.072 59.532-18.932-8.684 1.871-17.669 2.932-26.917 2.932z" fill="#f1c8a8"/><path d="m232.005 336c33.289 0 63.097-14.605 83.611-37.662-18.941-25.639-49.288-42.338-83.611-42.338s-64.67 16.699-83.611 42.338c20.514 23.057 50.322 37.662 83.611 37.662z" fill="#05a1b9"/><circle cx="232.005" cy="224" fill="#33cbdb" r="96"/><path d="m292.005 272c0-33.137-26.863-60-60-60-23.484 0-43.803 13.5-53.657 33.155-1.531-6.806-2.343-13.885-2.343-21.155 0-46.156 32.586-84.676 76-93.882-6.455-1.368-13.137-2.118-20-2.118-53.02 0-96 42.98-96 96 0 50.74 39.366 92.28 89.222 95.759.098.007.197.012.295.019.897.06 1.798.107 2.703.142.24.009.479.02.72.027 1.017.032 2.036.054 3.06.054 1.002 0 1.999-.021 2.993-.052.362-.011.722-.029 1.083-.044.617-.027 1.232-.058 1.846-.097.448-.028.896-.057 1.342-.091.503-.039 1.004-.085 1.505-.132 1.025-.094 2.045-.206 3.06-.333.294-.037.589-.069.881-.108.576-.078 1.149-.165 1.721-.253.394-.06.787-.121 1.179-.186.502-.083 1.004-.169 1.503-.26.701-.127 1.399-.263 2.094-.405.179-.037.359-.069.538-.107.084-.018.169-.033.254-.05-.005-.001-.011-.003-.016-.004 10.449-2.245 20.264-6.2 29.166-11.524 6.819-9.738 10.851-21.566 10.851-34.355z" fill="#17b7cb"/><circle cx="232.005" cy="272" fill="#ffd7b9" r="48"/><path d="m208.005 272c0-22.358 15.309-41.09 36-46.427-3.842-.991-7.849-1.573-12-1.573-26.51 0-48 21.49-48 48s21.49 48 48 48c4.151 0 8.158-.582 12-1.573-20.691-5.337-36-24.069-36-46.427z" fill="#f1c8a8"/><path d="m256.005 260c-4.422 0-8 3.578-8 8 0 2.203-1.797 4-4 4s-4-1.797-4-4v-20c0-4.422-3.578-8-8-8s-8 3.578-8 8v20c0 2.203-1.797 4-4 4s-4-1.797-4-4c0-4.422-3.578-8-8-8s-8 3.578-8 8c0 11.031 8.969 20 20 20 4.506 0 8.653-1.514 12-4.036 3.347 2.522 7.494 4.036 12 4.036 11.031 0 20-8.969 20-20 0-4.422-3.578-8-8-8z" fill="#d2a582"/><ellipse cx="232.005" cy="232" fill="#ff6472" rx="24" ry="16"/><path d="m224.005 232c0-6.957 6.7-12.816 16-15.021-2.514-.596-5.18-.979-8-.979-13.255 0-24 7.163-24 16 0 8.836 10.745 16 24 16 2.82 0 5.486-.384 8-.979-9.3-2.205-16-8.064-16-15.021z" fill="#d25566"/><circle cx="240.005" cy="232" fill="#ff919b" r="8"/><path d="m192.005 216c-4.418 0-8-3.582-8-8v-8c0-4.418 3.582-8 8-8 4.418 0 8 3.582 8 8v8c0 4.418-3.582 8-8 8z" fill="#6e4141"/><path d="m272.005 216c-4.418 0-8-3.582-8-8v-8c0-4.418 3.582-8 8-8 4.418 0 8 3.582 8 8v8c0 4.418-3.582 8-8 8z" fill="#6e4141"/><ellipse cx="171.469" cy="427.466" fill="#17b7cb" rx="42.627" ry="29.183" transform="matrix(-.7071 -.7071 .7071 -.7071 -9.5489 850.9771)"/><ellipse cx="292.537" cy="427.473" fill="#17b7cb" rx="42.627" ry="29.183" transform="matrix(-.7071 .7071 -.7071 -.7071 801.6603 522.8872)"/><g fill="#05a1b9"><path d="m173.773 448.103c-16.647-16.647-20.904-39.381-9.507-50.777 1.821-1.821 4.009-3.101 6.337-4.136-11.332-3.836-22.38-2.757-29.273 4.136-11.396 11.396-7.14 34.13 9.507 50.777 13.987 13.987 32.194 19.085 44.44 13.643-7.404-2.508-14.926-7.064-21.504-13.643z"/><path d="m285.33 457.609c-11.396-11.396-7.14-34.131 9.507-50.777 6.579-6.579 14.1-11.135 21.505-13.643-12.247-5.441-30.453-.345-44.44 13.643-16.647 16.646-20.903 39.381-9.507 50.777 6.893 6.893 17.941 7.973 29.273 4.136-2.328-1.035-4.516-2.314-6.338-4.136z"/></g></svg>