<svg enable-background="new 0 0 464.019 464.019" viewBox="0 0 464.019 464.019" xmlns="http://www.w3.org/2000/svg"><g fill="#c95264"><path d="m340 143.009h8v146h-8z"/><path d="m116 140.009h8v179h-8z"/><path d="m28 175.009h8v99h-8z"/><path d="m428 175.009h8v116h-8z"/><path d="m252.016 30.009c0-11.031-8.969-20-20-20s-20 8.969-20 20c0 8.186 4.944 15.227 12 18.32v77.68h3.984v228h8v-228h4.016v-77.68c7.055-3.093 12-10.134 12-18.32zm-20 12c-6.617 0-12-5.383-12-12s5.383-12 12-12 12 5.383 12 12-5.383 12-12 12z"/></g><circle cx="232.017" cy="278.009" fill="#ffc855" r="24"/><path d="m224.017 278.009c0-10.435 6.7-19.224 16-22.53-2.514-.894-5.18-1.47-8-1.47-13.255 0-24 10.745-24 24s10.745 24 24 24c2.82 0 5.486-.576 8-1.47-9.301-3.306-16-12.096-16-22.53z" fill="#ffaa4b"/><circle cx="344.017" cy="214.009" fill="#ffc855" r="16"/><path d="m338.683 214.009c0-6.956 4.466-12.816 10.667-15.02-1.676-.596-3.453-.98-5.333-.98-8.837 0-16 7.163-16 16s7.163 16 16 16c1.88 0 3.658-.384 5.333-.98-6.2-2.204-10.667-8.064-10.667-15.02z" fill="#ffaa4b"/><circle cx="120.017" cy="246.009" fill="#ffc855" r="16"/><path d="m114.683 246.009c0-6.956 4.466-12.816 10.667-15.02-1.676-.596-3.453-.98-5.333-.98-8.837 0-16 7.163-16 16s7.163 16 16 16c1.88 0 3.658-.384 5.333-.98-6.2-2.204-10.667-8.064-10.667-15.02z" fill="#ffaa4b"/><circle cx="32.017" cy="286.009" fill="#ffc855" r="16"/><path d="m26.683 286.009c0-6.956 4.466-12.816 10.667-15.02-1.676-.596-3.453-.98-5.333-.98-8.837 0-16 7.163-16 16s7.163 16 16 16c1.88 0 3.658-.384 5.333-.98-6.2-2.204-10.667-8.064-10.667-15.02z" fill="#ffaa4b"/><circle cx="432.017" cy="302.009" fill="#ffc855" r="16"/><path d="m426.683 302.009c0-6.956 4.466-12.816 10.667-15.02-1.676-.596-3.453-.98-5.333-.98-8.837 0-16 7.163-16 16s7.163 16 16 16c1.88 0 3.658-.384 5.333-.98-6.2-2.204-10.667-8.064-10.667-15.02z" fill="#ffaa4b"/><path d="m275.932 430.009c-24.3 0-44-19.7-44-44 0-19.688 12.935-36.349 30.767-41.967-4.711-1.287-9.647-2.033-14.767-2.033-30.928 0-56 25.072-56 56s25.072 56 56 56c21.355 0 39.909-11.96 49.354-29.542-6.326 3.52-13.601 5.542-21.354 5.542z" fill="#ffc855"/><path d="m264.017 446.009c-30.928 0-56-25.072-56-56 0-18.794 9.29-35.385 23.495-45.542-22.914 7.019-39.58 28.329-39.58 53.542 0 30.928 25.072 56 56 56 12.106 0 23.238-3.942 32.395-10.475-5.168 1.575-10.628 2.475-16.31 2.475z" fill="#ffaa4b"/><path d="m120.087 382.143-14.846 7.805c-6.648 3.495-14.418-2.15-13.148-9.553l2.835-16.532-12.011-11.708c-5.378-5.243-2.41-14.376 5.022-15.457l16.599-2.412 7.423-15.041c3.324-6.735 12.928-6.735 16.252 0l7.423 15.041 16.599 2.412c7.433 1.08 10.4 10.214 5.022 15.457l-12.011 11.708 2.835 16.532c1.27 7.403-6.5 13.048-13.148 9.553z" fill="#ffc855"/><path d="m102.689 383.709 2.835-16.532-12.011-11.707c-5.378-5.243-2.411-14.376 5.022-15.457l16.599-2.412 7.423-15.041c1.097-2.222 2.902-3.638 4.915-4.394-3.797-5.551-12.391-5.244-15.511 1.08l-7.423 15.041-16.599 2.412c-7.433 1.08-10.4 10.214-5.022 15.457l12.011 11.708-2.835 16.532c-1.203 7.016 5.708 12.354 12.093 9.927-1.261-1.821-1.929-4.096-1.497-6.614z" fill="#ffaa4b"/><path d="m344.1 353.957-14.846 7.805c-6.648 3.495-14.418-2.15-13.148-9.553l2.835-16.532-12.011-11.707c-5.378-5.243-2.41-14.376 5.022-15.457l16.599-2.412 7.423-15.041c3.324-6.735 12.928-6.735 16.252 0l7.423 15.041 16.599 2.412c7.433 1.08 10.4 10.214 5.022 15.457l-12.011 11.708 2.835 16.532c1.27 7.403-6.5 13.048-13.148 9.553z" fill="#ffc855"/><path d="m326.702 355.523 2.835-16.532-12.011-11.708c-5.378-5.243-2.411-14.376 5.022-15.457l16.599-2.412 7.423-15.041c1.097-2.222 2.902-3.638 4.915-4.394-3.797-5.551-12.391-5.244-15.511 1.08l-7.423 15.041-16.599 2.412c-7.433 1.08-10.4 10.214-5.022 15.457l12.011 11.708-2.835 16.532c-1.203 7.016 5.708 12.354 12.093 9.927-1.26-1.82-1.928-4.095-1.497-6.613z" fill="#ffaa4b"/><path d="m456.009 198.177c-1.57 0-3.148-.457-4.539-1.414-58.625-40.469-136.57-62.754-219.469-62.754-82.891 0-160.828 22.281-219.453 62.746-3.648 2.508-8.625 1.582-11.133-2.043-2.508-3.637-1.594-8.617 2.039-11.129 61.281-42.285 142.445-65.574 228.547-65.574 86.109 0 167.281 23.293 228.563 65.582 3.633 2.512 4.547 7.492 2.039 11.129-1.555 2.25-4.055 3.457-6.594 3.457z" fill="#ff6472"/></svg>