<svg enable-background="new 0 0 400 400" height="400" viewBox="0 0 400 400" width="400" xmlns="http://www.w3.org/2000/svg"><path d="m259.236 38.328c10.656-7.235 52.234.934 60.955 19.443 8.625 18.296 4.607 7.599 16.934 27.177 11.73 18.627-8.059 61.507-28.268 80.605-20.93 19.782-9.912 42.241-2.645 57.896 7.266 15.665-12.691 21.543-29.094 24.526-16.408 2.997-27.68 23.091-24.963 49.15 1.73 16.642-1.176 22.678-8.139 9.704-7.252-13.517-18.549 3.009-22.064 10.181-3.512 7.173-32.461-39.023-34.03-56.17-1.574-17.121-13.675-12.034-24.373-9.797-10.699 2.23 7.736-15.063.457-31.444-7.278-16.372-5.25-57.279-19.076-68.86-16.902-14.152-20.501-43.692-19.117-61.326 3.015-38.601 53.193-78.069 100.39-71.305 18.541 2.658 27.356 10.265 33.033 20.22z" fill="#f27221"/><path d="m166.551 205.021s5.352 15.661 6.82 37.018c18.98-16.102 73.52 22.388 67.043 42.673 7.686-33.813 3.902-61.084 27.443-74.083 23.537-12.998 28.246-24.806 19.822-31.548-8.423-6.74-121.128 25.94-121.128 25.94z" fill="#dc571f"/><path d="m162.462 233.885s-18.874 1.921-41.408-10.936c-2.192-4.222-2.265-6.309-3.297-9.82-1.035-3.521-3.855-2.562-4.017.564-4.033-4.398-9.166-8.631-10.758-6.938-1.601 1.688 5.23 6.273 5.23 6.273s-8.805-4.991-9.961-2.772c-.962 1.849 7.323 5.359 7.323 5.359s-8.102-1.539-8.131.782c-.008 2.331 7.942 3.879 7.942 3.879s-6.98.153-6.1 2.492c.88 2.34 8.5 2.005 8.5 2.005s3.372 3.965 8.714 3.759c14.678 9.914 24.684 13.309 47.541 14.607-.426-4.297-1.578-9.254-1.578-9.254z" fill="#fbc6a4"/><path d="m162.722 241.874s-3.414.01-5.076-.245c2.907-1.61 3.375-5.01-.183-6.727 3.39.111 5.783-.235 5.783-.235z" fill="#eaad85"/><path d="m187.913 227.326s-13.006 3.657-24.113 2.892c-2.628 4.53-.759 15.624.262 19.173 8.951 3.366 22.457-1.388 22.457-1.388z" fill="#dc5896"/><path d="m167.393 229.752s-1.602 15.181-.449 20.556c-2.012.671-5.217-.8-5.217-.8s-1.438-13.889.998-19.618c2.587-.233 4.668-.138 4.668-.138z" fill="#f1c6d9"/><path d="m205.619 237.379c-8.255-2.981-18.437-.498-25.651-1.751-10.104 18.905-11.544-4.129-11.544-4.129s-1.3 11.935-.006 17.783c7.115 2.011 13.014-1.649 13.014-1.649s26.673-2.35 24.187-10.254z" fill="#ae3871"/><path d="m186.21 346.664c2.049 4.523-4.096 2.111-9.095.37-5.813-2.043-31.77-12.391-29.321-17.432 2.794-5.741 9.815-2.886 19.822 1.226 10.025 4.111 18.594 15.836 18.594 15.836z" fill="#474848"/><path d="m158.725 329.264s-17.279 36.246-1.592 44.655c11.262 6.044 51.915-25.993 51.915-25.993l-7.545-8.246s-26.55 18.477-35.876 20.854c-6.039-1.07 6.628-26.568 6.628-26.568z" fill="#eaad85"/><path d="m169.7 335.032s-2.179 5.775-3.378 8.666c-1.645-5.984-6.008-8.454-10.702-2.766 1.713-6.098 3.629-9.683 3.629-9.683z" fill="#dc9d75"/><path d="m206.191 301.539s9.143 15.86-19.607 47.236c-4.284-6.302-37.473-20.692-38.791-19.173 6.228-15.759 17.441-27.78 17.441-27.78z" fill="#777878"/><path d="m203.018 302.854s-10.02 8.023-35.367 33.729c-1.606-12.481 8.35-16.457.687-22.283-6.338-4.835-8.498-6.475-7.268-8.176 23.689-2.745 41.948-3.27 41.948-3.27z" fill="#5a5b5c"/><path d="m197.57 342.132c1.3-3.898 7.563-7.933 12.645-6.897 7.27 3.298 17.262 16.774 15.125 28.069-1.988 10.52-10.414 10.326-14.59 6.187-3.365-3.342-2.455-12.583-10.559-15.59-3.032-.199-3.437-4.782 2.219-5.114 1.592-4.702-4.84-6.655-4.84-6.655z" fill="#e05d2b"/><path d="m198.005 351.848c.148.298.24.634.302.988-.171-.303-.28-.634-.302-.988z" fill="#404041"/><path d="m204.479 344.443c-1.01-.198-2.051-.182-3.096-.037-1.126-1.175-2.7-1.866-3.422-2.139 2.557-2.707 7.002-4.763 10.793-3.987 7.277 3.296 17.26 16.771 15.129 28.068-.158.821-.363 1.554-.59 2.253-1.01 1.489-2.242 2.463-3.578 2.996 1.461-11.089-8.141-23.942-15.236-27.154z" fill="#b84826"/><path d="m208.941 334.921s2.844-2.153 5.701-1.149c6.998 4.091 13.369 15.763 14.219 24.149.855 8.358-3.049 12.33-6.379 11.524 1.844-8.554 2.327-22.799-13.541-34.524z" fill="#edeced"/><path d="m223.293 369.527c-.279.004-.545-.018-.811-.082.531-2.522.963-5.561.883-8.875.408 3.228.291 6.28-.072 8.957z" fill="#b2b4b7"/><path d="m214.891 337.074c-1.16-.412-2.299-.3-3.27-.014-.834-.732-1.727-1.443-2.68-2.14 0 0 2.844-2.153 5.701-1.149 6.998 4.091 13.369 15.763 14.219 24.149.086.801.113 1.529.115 2.252-1.246-8.272-7.371-19.17-14.085-23.098z" fill="#c1c3c5"/><path d="m203.834 348.957c2.076-2.731 6.289 2.334 5.75 3.879-.861 2.534-2.547 5.952-2.82 7.944-1.041.395-4.832-2.975-4.918-5.19-.075-2.213.906-5.225 1.988-6.633z" fill="#edeced"/><path d="m206.867 354c.018-1.262-1.607-3.765-3.689-3.978.213-.397.428-.775.656-1.065 2.076-2.731 6.289 2.334 5.75 3.879-.861 2.534-2.547 5.952-2.82 7.944-.342.132-.963-.143-1.654-.627.642-1.771 1.691-3.576 1.757-6.153z" fill="#c1c3c5"/><path d="m202.637 224.716-5.553-1.518-.092-7.048-8.936.186.475 7.146-3.579 1.884s-9.12 9.214 3.487 10.346c8.597.768 16.358-7.149 14.198-10.996z" fill="#fbc6a4"/><path d="m188.531 223.482-.475-7.146 8.936-.186.092 7.048 3.405.936c-2.652 1.813-6.139 3.05-9.78 2.729-2.708-.254-4.402-.866-5.415-1.684z" fill="#eaad85"/><path d="m206.408 354.242c2.6 4.231-3.811 2.62-8.973 1.513-6.027-1.264-33.088-8.237-31.293-13.557 2.042-6.053 9.358-4.11 19.82-1.298 10.446 2.807 20.446 13.342 20.446 13.342z" fill="#474848"/><path d="m176.926 340.476s-12.532 38.152 4.088 44.5c11.954 4.554 48.205-32.368 48.205-32.368l-8.531-7.23s-23.995 21.7-32.933 25.232c-6.13-.3 3.196-27.187 3.196-27.187z" fill="#fbc6a4"/><path d="m190.04 342.316s-1.479 6.211-2.675 9.105c-1.647-5.997-7.601-8.33-12.29-2.636 1.708-6.104 2.124-10.598 2.124-10.598z" fill="#eaad85"/><path d="m220.494 306.952s11.092 14.569-13.438 49.346c-1.832-7.617-37.226-18.766-40.915-14.1 4.167-16.413 10.83-35.018 10.83-35.018z" fill="#919091"/><path d="m173.565 329.736c-2.935.775-8.712 10.016-.346 9.346 8.365-.679 19.342 4.086 27.968 9.527-6.725-11.151-21.948-20.36-27.622-18.873z" fill="#b4b4b4"/><path d="m217.514 308.648s11.33 13.882-10.553 42.592c9.207-18.172 8.299-25.444.123-25.141-12.401.464-27.232-7.39-32.089-12.408 23.141-5.732 42.519-5.043 42.519-5.043z" fill="#6f6f70"/><path d="m217.1 348.311c.801-4.035 6.49-8.828 11.666-8.436 7.637 2.336 19.252 14.417 18.568 25.908-.639 10.692-9.023 11.572-13.678 7.982-3.77-2.89-4.037-12.17-12.471-14.109-3.029.183-4-4.326 1.559-5.364.981-4.865-5.644-5.981-5.644-5.981z" fill="#e05d2b"/><path d="m218.766 357.894c.189.283.322.594.436.938-.223-.28-.376-.591-.436-.938z" fill="#404041"/><path d="m221.123 350.056c-1.08-.866-2.426-1.336-3.252-1.569 2.129-3.127 6.408-5.891 10.395-5.604 7.627 2.348 19.244 14.434 18.566 25.926-.008.126-.025.236-.037.364-.684 2.497-1.934 4.174-3.438 5.206-.068-11.149-11.158-22.567-18.549-24.848-1.23-.091-2.478.113-3.685.525z" fill="#b84826"/><path d="m227.477 339.717s2.535-2.502 5.494-1.863c7.455 3.177 15.268 13.94 17.17 22.138 1.912 8.191-1.453 12.627-4.865 12.23.74-8.693-.588-22.907-17.799-32.505z" fill="#edeced"/><path d="m246.088 372.217c-.27.051-.537.051-.813.005.209-2.556.25-5.629-.256-8.895.829 3.155 1.098 6.183 1.069 8.89z" fill="#b2b4b7"/><path d="m233.633 341.082c-1.193-.249-2.316 0-3.234.404-.924-.602-1.902-1.2-2.922-1.77 0 0 2.535-2.502 5.494-1.863 7.455 3.177 15.268 13.94 17.17 22.138.189.778.307 1.512.396 2.235-2.283-8.046-9.74-18.087-16.904-21.144z" fill="#c1c3c5"/><path d="m224.182 354.292c1.703-2.978 6.529 1.508 6.195 3.122-.533 2.607-1.771 6.209-1.781 8.229-.994.521-5.186-2.345-5.545-4.528-.356-2.2.23-5.302 1.131-6.823z" fill="#edeced"/><path d="m227.818 358.909c-.133-1.249-2.063-3.529-4.154-3.48.154-.431.316-.828.518-1.137 1.703-2.978 6.529 1.508 6.195 3.122-.533 2.607-1.771 6.209-1.781 8.229-.322.177-.975-.022-1.73-.424.419-1.827 1.222-3.752.952-6.31z" fill="#c1c3c5"/><path d="m226.463 319.74s4.854-37.266 1.846-58.365c-2.459-17.106-9.311-30.839-27.084-37.049-6.965 9.454-20.879 7.389-15.707.566-14.385 10.819-25.126 51.329-25.962 81.534 10.526 3.753 12.02 7.854 28.764 11.803 21.045 4.972 38.143 1.511 38.143 1.511z" fill="#f07baf"/><path d="m186.833 224.152c-1.574.772-3.808 4.665 3.296 5.452 4.078.445 10.024-2.816 10.783-5.226 2.158-.451 5.236 1.031 5.218 2.158-3.746 4.997-11.347 8.29-18.85 6.945-6.927-1.229-7.687-5.147-5.44-7.172 2.529-1.687 4.993-2.157 4.993-2.157z" fill="#f1c6d9"/><path d="m222.283 250.015s8.041 37.087.332 63.619c-22.942 6.383-43.211 4.449-60.695-16.604 54.348 30.092 61.299-11.669 60.363-47.015z" fill="#dc5896"/><path d="m353.811 330.745-34.082-8.515-57.516 25.563 34.865 13.134z" fill="#f16c5b"/><path d="m353.811 330.745v20.237l-56.733 32.487v-22.542z" fill="#cc1a20"/><path d="m262.213 347.793v20.231l34.865 15.445v-22.542z" fill="#eb2027"/><path d="m262.213 347.793s18.73 6.067 34.865 13.134c-17.242-4.299-34.865-13.134-34.865-13.134z" fill="#f48e82"/><path d="m353.811 330.745s-31.447 18.488-56.732 30.182c26.153-15.092 56.732-30.182 56.732-30.182z" fill="#f48e82"/><path d="m297.078 383.469s.906-12.388 0-22.542c-1.801 7.593 0 22.542 0 22.542z" fill="#f48e82"/><path d="m265.59 306.192v33.104l23.961 12.074v-34.974z" fill="#58b9e1"/><path d="m265.59 306.192 26.978-6.832 26.805 10.116-29.822 6.92z" fill="#95d7ed"/><path d="m319.373 309.476v32.485l-29.822 9.409v-34.974z" fill="#1f8dc6"/><path d="m289.551 316.396s-16.73-8.519-23.961-10.204c6.515 4.665 23.961 10.204 23.961 10.204z" fill="#ccebf9"/><path d="m319.373 309.476s-17.395 7.044-29.822 6.921c7.584-2.697 29.822-6.921 29.822-6.921z" fill="#ccebf9"/><path d="m289.551 351.37s-1.549-29.074 0-34.974c1.902 8.665 0 34.974 0 34.974z" fill="#ccebf9"/><path d="m59.504 376.352 15.974-3.552s0-11.36 0-17.751c0-6.392 7.816-4.973 10.297-1.952-3.905-14.912-24.144-11.008-27.162-7.636-3.017 3.375-3.017 19.884.891 30.891z" fill="#5fa33a"/><path d="m50.981 322.209-1.949 47.745 10.473 6.397s0-11.366 0-18.467c0-7.097 5.858-14.556 14.378-11.357 8.52 3.193 8.52 15.089 8.52 23.427v20.065l12.425 7.632 1.421-53.076z" fill="#add037"/><path d="m50.981 322.209 25.917-6.392 45.088 20.767-25.737 7.991z" fill="#5fa33a"/><path d="m121.986 336.584-1.418 52.367-25.741 8.7 1.422-53.076z" fill="#70be45"/><path d="m96.249 344.575s-17.75-10.703-45.268-22.366c18.991 11.182 45.268 22.366 45.268 22.366z" fill="#d0e18a"/><path d="m121.986 336.584s-10.351 5.69-25.738 7.991c8.399-3.973 25.738-7.991 25.738-7.991z" fill="#d0e18a"/><path d="m96.249 344.575s-2.482 47.282-1.421 53.076c2.958-30.662 1.421-53.076 1.421-53.076z" fill="#d0e18a"/><path d="m46.189 296.12 34.084-8.519 57.515 25.56-34.864 13.136z" fill="#f16c5b"/><path d="m46.189 296.12v20.238l56.735 32.483v-22.544z" fill="#cc1a20"/><path d="m137.788 313.161v20.236l-34.864 15.444v-22.544z" fill="#eb2027"/><path d="m137.788 313.161s-18.734 6.075-34.864 13.136c17.238-4.301 34.864-13.136 34.864-13.136z" fill="#f48e82"/><path d="m46.189 296.12s31.449 18.483 56.735 30.177c-26.159-15.087-56.735-30.177-56.735-30.177z" fill="#f48e82"/><path d="m102.924 348.841s-.908-12.386 0-22.544c1.796 7.595 0 22.544 0 22.544z" fill="#f48e82"/><path d="m61.344 267.454v33.106l23.966 12.068v-34.966z" fill="#58b9e1"/><path d="m61.344 267.454 26.987-6.835 26.799 10.118-29.82 6.925z" fill="#95d7ed"/><path d="m115.13 270.737v32.486l-29.82 9.405v-34.966z" fill="#1f8dc6"/><path d="m85.31 277.662s-16.733-8.521-23.966-10.208c6.518 4.661 23.966 10.208 23.966 10.208z" fill="#ccebf9"/><path d="m115.13 270.737s-17.393 7.041-29.821 6.925c7.584-2.706 29.821-6.925 29.821-6.925z" fill="#ccebf9"/><path d="m85.31 312.628s-1.548-29.071 0-34.966c1.906 8.658 0 34.966 0 34.966z" fill="#ccebf9"/><path d="m68.912 237.055v27.157l12.6 11.184v-27.869z" fill="#594286"/><path d="m81.512 247.527v27.869l30.178-6.038v-26.802z" fill="#7f64aa"/><path d="m68.912 237.055 12.6 10.472 30.178-4.971z" fill="#a588be"/><path d="m68.912 237.055s5.463 6.952 12.6 10.473c-5.017-4.821-12.6-10.473-12.6-10.473z" fill="#c4a7cf"/><path d="m111.69 242.556s-14.24 3.671-30.178 4.972c7.412-2.251 30.178-4.972 30.178-4.972z" fill="#c4a7cf"/><path d="m81.512 275.396s-1.362-22.513 0-27.868c.755 6.092 0 27.868 0 27.868z" fill="#c4a7cf"/><path d="m81.16 203.684-18.638 33.725 37.985 8.694z" fill="#ffc61f"/><path d="m100.507 246.103 18.106-6.918-20.411-39.41-17.042 3.909z" fill="#f6981d"/><path d="m81.16 203.684s8.749 25.085 19.347 42.419c-10.344-25.083-19.347-42.419-19.347-42.419z" fill="#ffd969"/><path d="m129.043 262.47c10.909 10.542 41.276 32.766 69.971 8.049-1.36-6.135-5.778-7.854-5.778-7.854-8.888 8.859-30.726 19.217-59.668-6.601 0 0-.36-1.919.798-5.528 1.158-3.621-.865-4.055-2.024-3.034-1.22 1.058-2.244 3.973-2.244 3.973s-5.709-10.196-8.242-9.615c-2.977.672.794 6.074.794 6.074s-5.645-5.424-7.521-3.475c-2.336 2.428 4.193 6.369 4.193 6.369s-5.28-3.326-6.727-1.021c-1.445 2.319 6.727 5.064 6.727 5.064s-5.203-1.014-5.717.653c-.773 2.551 7.744 3.535 7.744 3.535z" fill="#fbc6a4"/><path d="m192.161 274.597s-3.704 2.364-5.932 2.962c3.772-2.906.248-6.959-5.084-6.344 2.259-1.076 5.038-2.337 5.038-2.337z" fill="#eaad85"/><path d="m197.508 283.138c11.451-9.312 22.886-28.872 14.976-36.496-8.57-8.264-25.837 8.533-32.721 19.066 11.748 6.843 17.745 17.43 17.745 17.43z" fill="#dc5896"/><path d="m183.359 260.821s-2.831 2.127-3.596 4.887c4.208 2.748 14.704 11.67 17.745 17.43 3.266-2.238 4.548-3.939 4.548-3.939s-9.592-12.371-18.697-18.378z" fill="#f1c6d9"/><path d="m211.52 249.973c1.697-.114 6.205 8.759-8.676 25.929 9.627-16.004 2.711-25.568 8.676-25.929z" fill="#ae3871"/><path d="m130.455 87.825c-12.059 23.286-25.52 97.083 40.246 125.063 65.401 27.826 110.125-13.438 127.907-59.137 21.463-55.154-17.742-97.771-56.896-109.7-61.132-18.633-95.124 12.58-111.257 43.774z" fill="#fbc6a4"/><path d="m153.147 149.688c-1.155 6.141-10.903 9.322-19.79 5.486-8.872-3.848-12.529-12.125-10.715-19.352 1.64-6.592 10.963-10.615 18.972-2.285 7.47 7.78 12.724 9.796 11.533 16.151z" fill="#f8af9a"/><path d="m130.51 135.68c-.175.807-1.162 1.255-2.192 1.025-1.041-.23-1.746-1.057-1.546-1.863.184-.786 1.163-1.24 2.194-1.014 1.025.236 1.719 1.071 1.544 1.852z" fill="#fbd3c4"/><path d="m185.133 141.272c-.182.807-1.303 1.229-2.524.952-1.224-.262-2.063-1.134-1.889-1.931.189-.796 1.315-1.219 2.53-.94 1.219.263 2.063 1.137 1.883 1.919z" fill="#fcd8c1"/><path d="m255.109 175.691c-2.148 8.246-11.338 12.34-22.309 10.566-10.578-1.707-19.531-11.831-16.004-19.19 3.344-6.997 8.512-3.189 21.563-5.046 12.621-1.787 18.909 5.423 16.75 13.67z" fill="#f8af9a"/><path d="m248.639 169.82c-.195.753-1.146 1.153-2.119.893-.971-.251-1.609-1.061-1.418-1.823.203-.731 1.137-1.146 2.125-.9.962.265 1.591 1.075 1.412 1.83z" fill="#fbd3c4"/><path d="m155.386 87.899c10.081-2.114 11.393 8.897 4.833 8.471-7.026-.467-13.081 1.705-13.926.951-1.836-1.613 3.435-8.227 9.093-9.422z" fill="#dc571f"/><path d="m245.242 117.025c-7.902-6.592-14.238 2.493-8.254 5.205 6.426 2.898 10.752 7.648 11.85 7.39 2.387-.573.848-8.887-3.596-12.595z" fill="#dc571f"/><path d="m162.261 155.407s-8.29 36.167 17.2 42.787c25.48 6.604 26.584-30.055 26.584-30.055s-19.528 2.427-43.784-12.732z" fill="#4d1f1c"/><path d="m185.524 165.734c-.437 9.135.856 22.328 10.469 29.283 9.02-9.043 10.051-26.877 10.051-26.877s-8.195 1-20.52-2.406z" fill="#321514"/><path d="m165.375 187.613c2.78 4.822 7.178 8.784 14.086 10.581 12.601 3.261 19.239-4.071 22.734-12.296-.775-1.75-4.721-4.029-9.033-2.493-3.67-7.524-20.429-3.814-27.787 4.208z" fill="#ec756c"/><path d="m197.816 184.671c-1.887-1.011-4.406-.758-5.574-.203-.689-1.559-1.931-3.386-5.789-3.855-9.563-1.286-22.247 7.636-10.41 13.523 11.962 5.957 28.764-5.762 21.773-9.465z" fill="#f48f87"/><path d="m177.933 183.573c2.217-1.865 7.401-2.714 8.696-1.272 1.552 1.71-3.077 3.842-5.983 3.97-2.953.123-4.131-1.502-2.713-2.698z" fill="#f7b0ad"/><path d="m169.542 159.503c-1.396 3.71-1.059 6.728 3.851 9.288 4.577 2.362 11.412 4.456 16.261 4.955 5.822.601 8.94-1.631 9.047-5.644-9.873-1.138-17.694-2.986-29.159-8.599z" fill="#fff"/><path d="m181.507 150.721c-.123.02-.25.019-.343-.049-3.16-1.908-4.564-4.954-3.73-8.19.767-2.981 3.301-5.297 5.874-5.405 1.613-.059 4.608.679 6.506 6.257.085.256-.051.521-.313.604-.271.11-.513-.033-.597-.294-1.262-3.712-3.228-5.699-5.542-5.61-2.207.077-4.337 2.107-5.005 4.686-.341 1.345-.713 4.726 3.305 7.124.219.146.287.429.158.657-.074.121-.183.188-.313.22z" fill="#ce7754"/><path d="m235.041 148.839c-.098.031-.191.037-.283.034-.539-.036-.951-.501-.908-1.049.578-8.702-5.191-15.047-10.926-15.506-4.484-.35-7.469 2.98-8.027 8.953-.037.529-.523.931-1.07.879-.533-.051-.93-.524-.877-1.071.762-8.429 5.742-11.06 10.123-10.716 6.684.536 13.391 7.729 12.736 17.599-.041.443-.362.796-.768.877z" fill="#6b4432"/><path d="m169.827 126.33c-.093.027-.185.032-.282.022-.538-.028-.945-.499-.908-1.032.552-8.253-4.911-14.257-10.321-14.683-4.225-.336-7.061 2.82-7.587 8.445-.039.543-.52.942-1.063.887-.528-.048-.934-.525-.874-1.063.737-8.044 5.483-10.556 9.666-10.225 6.369.511 12.748 7.361 12.128 16.745-.031.457-.343.809-.759.904z" fill="#6b4432"/><path d="m212.178 41.138s-11.257 22.482-13.925 44.785c7.38 3.623 14.189 4.907 14.189 4.907l17.547-35.849s-11.701 27.546-11.209 37.031c11.686 6.207 47.92 12.989 60.992 15.883-3.645 15.417-4.045 37.697.258 63.097 4.875 2.263 18.012 6.059 18.012 6.059s46.691-39.559 43.861-94.411c-1.838-35.984-56.098-59.467-56.098-59.467s21.408 2.669 19.205-5.8c-2.184-8.449-25.293 1.975-25.293 1.975s8.191-11.431 1.455-15.818c-9.648-6.295-8.023 14.597-8.023 14.597s-35.924-16.566-77.199-14.014c-37.49 2.325-66.036 13.515-68.509 91.313 7.206-8.942 16.485-27.785 16.485-27.785s23.663 9.863 40.538 13.922c10.053-26.742 27.714-40.425 27.714-40.425z" fill="#f27221"/><path d="m336.273 91.205c-2.818 31.215-7.445 39.739-40.66 85.382-8.195.711-16.23-23.606-8.713-66.465 8.289 41.801 29.702 35.077 49.373-18.917z" fill="#dc571f"/><path d="m191.654 4.446c26.732 22.141 89.354 32.424 116.115 31.128 15.281 10.362 33.096 26.718 34.133 47.067.287 5.432.063 10.694-.525 15.792-81.316-65.616-168.287-65.041-201.53-61.242 11.091-23.775 29.486-30.751 51.807-32.745z" fill="#f58832"/><path d="m281.77 163.185s7.5-9.4 18.973-4.426c12.074 5.227 7.025 23.416-5.232 29.978-12.254 6.54-25.785.751-24.75-9.557z" fill="#fbc6a4"/><path d="m298.992 159.1c-2.92-1.25-5.543-1.505-7.852-1.242 1.818-.141 3.711.109 5.633 1.035 11.113 5.372 5.502 18.714-2.273 24.343-10.51 7.599-21.412 3.254-23.596-5.134-.975 9.586 11.725 14.992 23.209 8.905 11.487-6.091 16.233-23.022 4.879-27.907z" fill="#eaad85"/><path d="m300.176 164.507c-6.395-5.817-21.33 5.651-16.127 19.273 2.189-13.041 8.213-14.407 10.404-6.27 2.023-3.48 1.508-6.728-3.109-8.934 3.107-4.362 8.832-4.069 8.832-4.069z" fill="#d5956a"/><g fill="#1b75bb"><path d="m152.702 144.688c-17.052.174-31.276-13.562-31.692-30.613-.211-8.383 2.866-16.345 8.639-22.424 5.785-6.081 13.582-9.544 21.974-9.751l.469-.005c17.051-.167 31.268 13.563 31.697 30.612.431 17.308-13.304 31.743-30.606 32.173zm-.573-59.938-.44.007c-7.629.184-14.714 3.334-19.973 8.865-5.252 5.526-8.042 12.759-7.851 20.381.381 15.503 13.31 27.985 28.813 27.829l.434-.005c15.731-.394 28.206-13.509 27.822-29.247-.38-15.5-13.316-27.978-28.805-27.83z"/><path d="m228.951 168.008c-17.049.178-31.275-13.567-31.694-30.609-.213-8.385 2.87-16.351 8.641-22.428 5.779-6.075 13.584-9.542 21.961-9.747l.488-.005c17.047-.171 31.256 13.559 31.684 30.614.213 8.383-2.852 16.342-8.631 22.427-5.791 6.069-13.592 9.536-21.971 9.742zm-.576-59.937-.441.012c-7.621.19-14.719 3.334-19.973 8.855-5.252 5.522-8.041 12.77-7.853 20.386.386 15.502 13.312 27.985 28.814 27.832l.436-.008c7.625-.187 14.713-3.328 19.967-8.861 5.26-5.521 8.045-12.765 7.855-20.39-.379-15.498-13.309-27.978-28.805-27.826z"/><path d="m199.384 128.299c-.17.01-.351-.023-.521-.093l-17.302-6.708c-.737-.29-1.099-1.112-.814-1.853.278-.728 1.1-1.112 1.844-.813l17.306 6.711c.733.284 1.099 1.109.816 1.851-.224.554-.757.904-1.329.905z"/><path d="m288.166 156.676c-.137 0-.291-.018-.434-.063l-30.711-9.358c-.758-.231-1.186-1.023-.953-1.779.232-.751 1.033-1.174 1.775-.958l30.725 9.363c.75.232 1.18 1.023.953 1.779-.189.618-.748 1.007-1.355 1.016z"/></g><path d="m282.773 132.836c1.65-19.304 25.893-9.177 17.334 5.53 21.314-6.604 18.297 23.989-1.619 17.135 9.621 22.839-16.383 18.342-17.844 7.268-22.822 6.375-24.627-16.863-8.988-19.808-19.269-9.222 2.324-26.019 11.117-10.125z" fill="#fff"/><path d="m296.566 150.721c-2.729 5.365-9.301 7.517-14.684 4.78-5.369-2.724-7.52-9.291-4.793-14.681 2.725-5.367 9.303-7.506 14.684-4.788 5.366 2.729 7.514 9.299 4.793 14.689z" fill="#ffd72f"/><path d="m133.261 49.395c21.326-34.701 73.644-50.975 134.677-20.914 56.896 28.024 75.822 70.323 66 101.958-.346 2.553-10.713 22.271-16.732 25.77 0 0 1.248-63.907-66.613-97.419-59.723-29.493-105.354-14.136-123.343 23.679-1.446-4.572 4.71-28.012 6.011-33.074z" fill="#ffd72f"/></svg>