<svg enable-background="new 0 0 464 464" viewBox="0 0 464 464" xmlns="http://www.w3.org/2000/svg"><path d="m231.997 24-200 112 .011 256.004h223.989v-144.004c0-35.346 28.654-64 64-64s64 28.654 64 64v144.004h48v-256.004zm-32 328h-112c-4.418 0-8-3.582-8-8v-93.808c0-34.088 25.723-63.852 59.74-66.054 37.275-2.413 68.26 27.106 68.26 63.862v96c0 4.418-3.581 8-8 8z" fill="#ffc855"/><path d="m432.008 146.562-200-112.073v-.006l-.005.003-.005-.003v.006l-200 112.073c0 9.756.002 30.766.003 31.843l199.996-112.071v.003l.005-.003.005.003v-.003l199.997 112.072c.003-1.077.004-22.088.004-31.844z" fill="#ffb44b"/><path d="m207.997 248v-16h-56v-40h-16v40h-56v16h56v40h-56v16h56v48h16v-48h56v-16h-56v-40z" fill="#d25566"/><g fill="#ff6472"><path d="m255.997 464h-224c-8.837 0-16-7.163-16-16v-48c0-8.837 7.163-16 16-16h224c8.837 0 16 7.163 16 16v48c0 8.837-7.163 16-16 16z"/><path d="m431.997 464h-48c-8.837 0-16-7.163-16-16v-48c0-8.837 7.163-16 16-16h48c8.837 0 16 7.163 16 16v48c0 8.837-7.163 16-16 16z"/><path d="m255.997 464h-224c-8.837 0-16-7.163-16-16v-48c0-8.837 7.163-16 16-16h224c8.837 0 16 7.163 16 16v48c0 8.837-7.163 16-16 16z"/></g><path d="m55.997 448v-48c0-8.837 7.164-16 16-16h-40c-8.836 0-16 7.163-16 16v48c0 8.836 7.164 16 16 16h40c-8.836 0-16-7.164-16-16z" fill="#d25566"/><path d="m391.997 448v-48c0-8.837 7.164-16 16-16h-24c-8.836 0-16 7.163-16 16v48c0 8.836 7.164 16 16 16h24c-8.836 0-16-7.164-16-16z" fill="#d25566"/><path d="m439.823 122.039-200-112c-.126-.07-.257-.123-.384-.189-.189-.099-.381-.191-.573-.282-.288-.136-.577-.268-.869-.386-.18-.073-.362-.137-.544-.203-.314-.114-.628-.222-.945-.315-.171-.05-.343-.091-.515-.135-.329-.084-.657-.165-.988-.228-.183-.035-.367-.06-.552-.088-.317-.049-.634-.096-.952-.126-.223-.021-.447-.029-.671-.041-.277-.014-.553-.03-.83-.03s-.553.016-.83.03c-.224.012-.448.02-.671.041-.318.03-.635.077-.952.126-.184.029-.369.053-.552.088-.331.063-.659.144-.988.228-.172.044-.344.085-.515.135-.317.093-.631.202-.945.315-.182.066-.365.131-.544.203-.292.118-.581.249-.869.386-.193.091-.384.183-.573.282-.127.066-.258.119-.384.189l-200 112c-7.711 4.32-10.461 14.07-6.141 21.781 2.93 5.234 8.375 8.18 13.977 8.18 2.648 0 5.328-.656 7.805-2.039l192.182-107.622 192.182 107.622c2.477 1.383 5.156 2.039 7.805 2.039 5.602 0 11.047-2.945 13.977-8.18 4.32-7.711 1.57-17.461-6.141-21.781z" fill="#ff6472"/><circle cx="231.997" cy="24" fill="#d25566" r="24"/><path d="m200.001 360h-112c-8.82 0-16-7.18-16-16v-93.805c0-39.078 29.523-71.594 67.219-74.039 20.102-1.227 39.336 5.555 54.016 19.305 14.469 13.57 22.766 32.719 22.766 52.539v96c-.001 8.82-7.181 16-16.001 16zm-55.969-168c-1.258 0-2.516.039-3.781.125-29.297 1.898-52.25 27.406-52.25 58.07v93.805h112.008l-.008-96c0-15.648-6.289-30.156-17.711-40.859-10.493-9.836-23.961-15.141-38.258-15.141z" fill="#ff6472"/></svg>