<svg enable-background="new 0 0 782 233" height="233" viewBox="0 0 782 233" width="782" xmlns="http://www.w3.org/2000/svg"><path d="m700.821 98.993 58.899-16.112 12.519 120.554-70.504-5.93z" fill="#f49e85"/><path d="m666.292 94.382-45.005 96.467 74.655 5.007v-93.896z" fill="#f8b88c"/><path d="m607.312 144.563-10.345 33.176 14.496 16.373 18.581-38.523z" fill="#f39fa4"/><path d="m506.078 42.87 66.384 13.397 18.281 129.986-82.838 29.445z" fill="#f3a4c3"/><path d="m410.953 67.148 13.119 130.562 75.021-1.561-2.085-147.736z" fill="#ffde98"/><path d="m328.791 23.927 31.291 175.39 55.712-1.439-11.808-120.399z" fill="#f49e85"/><path d="m261.654 65.973 17.997 144.575 73.936-7.776-33.119-185.47z" fill="#b2a3cf"/><path d="m173.833 50.768 10.655 159.782 85.003-23.326-13.535-112.61z" fill="#c4dfb9"/><path d="m102.941 62.138 7.51 141.638 68.611 7.639-10.369-139.682z" fill="#f39fa4"/><path d="m16.097 52.727 79.931 3.456 8.928 156.671-95.195.288z" fill="#f8b88c"/><path d="m30.76 177.692h9.916v-89.785h-9.38v-5.359h14.74v55.346c-.09 1.072-.18 2.166-.268 3.283-.091 1.117-.181 2.211-.269 3.283.626-1.609 1.592-3.17 2.894-4.691 1.303-1.518 2.897-2.881 4.784-4.086 1.887-1.207 3.997-2.166 6.334-2.881 2.336-.715 4.807-1.072 7.411-1.072 3.684 0 7.143.693 10.377 2.076 3.232 1.387 6.041 3.262 8.423 5.629 2.381 2.367 4.268 5.137 5.66 8.307 1.392 3.172 2.089 6.545 2.089 10.117 0 3.666-.697 7.082-2.089 10.252-1.393 3.172-3.279 5.92-5.66 8.24-2.38 2.324-5.188 4.178-8.421 5.563-3.234 1.383-6.693 2.076-10.376 2.076-2.697 0-5.234-.357-7.615-1.072-2.381-.713-4.491-1.652-6.332-2.814-1.842-1.158-3.414-2.498-4.717-4.02-1.303-1.518-2.268-3.035-2.896-4.555 0 .982.021 1.988.066 3.014.044 1.029.067 2.078.067 3.15v5.359h-14.738zm57.352-19.765c0-2.869-.545-5.578-1.629-8.133-1.087-2.555-2.557-4.771-4.412-6.654-1.854-1.883-4.072-3.359-6.651-4.436-2.58-1.076-5.36-1.615-8.346-1.615s-5.745.539-8.279 1.615c-2.533 1.076-4.75 2.553-6.651 4.436s-3.394 4.1-4.479 6.654c-1.087 2.555-1.629 5.264-1.629 8.133 0 2.867.542 5.559 1.629 8.066 1.085 2.51 2.577 4.705 4.479 6.588s4.118 3.359 6.651 4.436c2.534 1.076 5.294 1.613 8.279 1.613s5.766-.537 8.346-1.613c2.579-1.076 4.797-2.553 6.651-4.436 1.855-1.883 3.325-4.078 4.412-6.588 1.084-2.508 1.629-5.199 1.629-8.066z" style="fill:none;stroke:#fff;stroke-width:3;stroke-linecap:round;stroke-linejoin:round;stroke-miterlimit:10"/><path d="m30.76 177.692h9.916v-89.785h-9.38v-5.359h14.74v55.346c-.09 1.072-.18 2.166-.268 3.283-.091 1.117-.181 2.211-.269 3.283.626-1.609 1.592-3.17 2.894-4.691 1.303-1.518 2.897-2.881 4.784-4.086 1.887-1.207 3.997-2.166 6.334-2.881 2.336-.715 4.807-1.072 7.411-1.072 3.684 0 7.143.693 10.377 2.076 3.232 1.387 6.041 3.262 8.423 5.629 2.381 2.367 4.268 5.137 5.66 8.307 1.392 3.172 2.089 6.545 2.089 10.117 0 3.666-.697 7.082-2.089 10.252-1.393 3.172-3.279 5.92-5.66 8.24-2.38 2.324-5.188 4.178-8.421 5.563-3.234 1.383-6.693 2.076-10.376 2.076-2.697 0-5.234-.357-7.615-1.072-2.381-.713-4.491-1.652-6.332-2.814-1.842-1.158-3.414-2.498-4.717-4.02-1.303-1.518-2.268-3.035-2.896-4.555 0 .982.021 1.988.066 3.014.044 1.029.067 2.078.067 3.15v5.359h-14.738zm57.352-19.765c0-2.869-.545-5.578-1.629-8.133-1.087-2.555-2.557-4.771-4.412-6.654-1.854-1.883-4.072-3.359-6.651-4.436-2.58-1.076-5.36-1.615-8.346-1.615s-5.745.539-8.279 1.615c-2.533 1.076-4.75 2.553-6.651 4.436s-3.394 4.1-4.479 6.654c-1.087 2.555-1.629 5.264-1.629 8.133 0 2.867.542 5.559 1.629 8.066 1.085 2.51 2.577 4.705 4.479 6.588s4.118 3.359 6.651 4.436c2.534 1.076 5.294 1.613 8.279 1.613s5.766-.537 8.346-1.613c2.579-1.076 4.797-2.553 6.651-4.436 1.855-1.883 3.325-4.078 4.412-6.588 1.084-2.508 1.629-5.199 1.629-8.066z"/><path d="m168.243 150.489c-6.968 2.77-13.892 5.518-20.77 8.24-6.88 2.727-13.802 5.475-20.771 8.242 1.519 3.434 3.931 6.234 7.236 8.404 3.304 2.17 7.056 3.254 11.256 3.254 2.769 0 5.36-.502 7.772-1.51 2.412-1.006 4.51-2.422 6.298-4.252.624.715 1.206 1.406 1.742 2.076s1.115 1.363 1.741 2.078c-2.323 2.143-4.958 3.842-7.905 5.092-2.948 1.25-6.164 1.875-9.648 1.875-3.664 0-7.081-.693-10.251-2.076-3.172-1.385-5.942-3.238-8.308-5.563-2.368-2.32-4.244-5.068-5.628-8.24-1.387-3.17-2.077-6.586-2.077-10.252 0-3.572.69-6.967 2.077-10.184 1.384-3.215 3.26-5.984 5.628-8.309 2.365-2.32 5.136-4.174 8.308-5.561 3.17-1.383 6.587-2.076 10.251-2.076 2.68 0 5.227.469 7.638 1.406 2.412.938 4.623 2.234 6.634 3.887 2.01 1.654 3.772 3.617 5.293 5.896 1.518 2.28 2.68 4.806 3.484 7.573zm-23.048-13.4c-3.306 0-6.321.689-9.045 2.066-2.726 1.379-5.025 3.197-6.901 5.463s-3.194 4.887-3.952 7.863c-.761 2.979-.827 6.02-.201 9.131 5.983-2.414 11.97-4.803 17.956-7.17 5.983-2.367 12.014-4.758 18.09-7.17-1.521-2.998-3.708-5.443-6.566-7.34-2.86-1.894-5.986-2.843-9.381-2.843z" style="fill:none;stroke:#fff;stroke-width:3;stroke-linecap:round;stroke-linejoin:round;stroke-miterlimit:10"/><path d="m168.243 150.489c-6.968 2.77-13.892 5.518-20.77 8.24-6.88 2.727-13.802 5.475-20.771 8.242 1.519 3.434 3.931 6.234 7.236 8.404 3.304 2.17 7.056 3.254 11.256 3.254 2.769 0 5.36-.502 7.772-1.51 2.412-1.006 4.51-2.422 6.298-4.252.624.715 1.206 1.406 1.742 2.076s1.115 1.363 1.741 2.078c-2.323 2.143-4.958 3.842-7.905 5.092-2.948 1.25-6.164 1.875-9.648 1.875-3.664 0-7.081-.693-10.251-2.076-3.172-1.385-5.942-3.238-8.308-5.563-2.368-2.32-4.244-5.068-5.628-8.24-1.387-3.17-2.077-6.586-2.077-10.252 0-3.572.69-6.967 2.077-10.184 1.384-3.215 3.26-5.984 5.628-8.309 2.365-2.32 5.136-4.174 8.308-5.561 3.17-1.383 6.587-2.076 10.251-2.076 2.68 0 5.227.469 7.638 1.406 2.412.938 4.623 2.234 6.634 3.887 2.01 1.654 3.772 3.617 5.293 5.896 1.518 2.28 2.68 4.806 3.484 7.573zm-23.048-13.4c-3.306 0-6.321.689-9.045 2.066-2.726 1.379-5.025 3.197-6.901 5.463s-3.194 4.887-3.952 7.863c-.761 2.979-.827 6.02-.201 9.131 5.983-2.414 11.97-4.803 17.956-7.17 5.983-2.367 12.014-4.758 18.09-7.17-1.521-2.998-3.708-5.443-6.566-7.34-2.86-1.894-5.986-2.843-9.381-2.843z"/><path d="m194.104 177.692h9.916v-89.785h-9.38v-5.359h14.74v55.346c-.09 1.072-.18 2.166-.268 3.283-.091 1.117-.181 2.211-.269 3.283.626-1.609 1.592-3.17 2.894-4.691 1.303-1.518 2.897-2.881 4.784-4.086 1.887-1.207 3.997-2.166 6.334-2.881 2.336-.715 4.807-1.072 7.411-1.072 3.684 0 7.143.693 10.377 2.076 3.232 1.387 6.041 3.262 8.423 5.629 2.381 2.367 4.268 5.137 5.66 8.307 1.392 3.172 2.089 6.545 2.089 10.117 0 3.666-.697 7.082-2.089 10.252-1.393 3.172-3.279 5.92-5.66 8.24-2.38 2.324-5.188 4.178-8.421 5.563-3.234 1.383-6.693 2.076-10.376 2.076-2.697 0-5.234-.357-7.615-1.072-2.381-.713-4.491-1.652-6.332-2.814-1.842-1.158-3.414-2.498-4.717-4.02-1.303-1.518-2.268-3.035-2.896-4.555 0 .982.021 1.988.066 3.014.044 1.029.067 2.078.067 3.15v5.359h-14.74v-5.36zm57.353-19.765c0-2.869-.545-5.578-1.629-8.133-1.087-2.555-2.557-4.771-4.412-6.654-1.854-1.883-4.072-3.359-6.651-4.436-2.58-1.076-5.36-1.615-8.346-1.615s-5.745.539-8.279 1.615c-2.533 1.076-4.75 2.553-6.651 4.436s-3.394 4.1-4.479 6.654c-1.087 2.555-1.629 5.264-1.629 8.133 0 2.867.542 5.559 1.629 8.066 1.085 2.51 2.577 4.705 4.479 6.588s4.118 3.359 6.651 4.436c2.534 1.076 5.294 1.613 8.279 1.613s5.766-.537 8.346-1.613c2.579-1.076 4.797-2.553 6.651-4.436 1.855-1.883 3.325-4.078 4.412-6.588 1.084-2.508 1.629-5.199 1.629-8.066z" style="fill:none;stroke:#fff;stroke-width:3;stroke-linecap:round;stroke-linejoin:round;stroke-miterlimit:10"/><path d="m194.104 177.692h9.916v-89.785h-9.38v-5.359h14.74v55.346c-.09 1.072-.18 2.166-.268 3.283-.091 1.117-.181 2.211-.269 3.283.626-1.609 1.592-3.17 2.894-4.691 1.303-1.518 2.897-2.881 4.784-4.086 1.887-1.207 3.997-2.166 6.334-2.881 2.336-.715 4.807-1.072 7.411-1.072 3.684 0 7.143.693 10.377 2.076 3.232 1.387 6.041 3.262 8.423 5.629 2.381 2.367 4.268 5.137 5.66 8.307 1.392 3.172 2.089 6.545 2.089 10.117 0 3.666-.697 7.082-2.089 10.252-1.393 3.172-3.279 5.92-5.66 8.24-2.38 2.324-5.188 4.178-8.421 5.563-3.234 1.383-6.693 2.076-10.376 2.076-2.697 0-5.234-.357-7.615-1.072-2.381-.713-4.491-1.652-6.332-2.814-1.842-1.158-3.414-2.498-4.717-4.02-1.303-1.518-2.268-3.035-2.896-4.555 0 .982.021 1.988.066 3.014.044 1.029.067 2.078.067 3.15v5.359h-14.74v-5.36zm57.353-19.765c0-2.869-.545-5.578-1.629-8.133-1.087-2.555-2.557-4.771-4.412-6.654-1.854-1.883-4.072-3.359-6.651-4.436-2.58-1.076-5.36-1.615-8.346-1.615s-5.745.539-8.279 1.615c-2.533 1.076-4.75 2.553-6.651 4.436s-3.394 4.1-4.479 6.654c-1.087 2.555-1.629 5.264-1.629 8.133 0 2.867.542 5.559 1.629 8.066 1.085 2.51 2.577 4.705 4.479 6.588s4.118 3.359 6.651 4.436c2.534 1.076 5.294 1.613 8.279 1.613s5.766-.537 8.346-1.613c2.579-1.076 4.797-2.553 6.651-4.436 1.855-1.883 3.325-4.078 4.412-6.588 1.084-2.508 1.629-5.199 1.629-8.066z"/><path d="m331.588 150.489c-6.968 2.77-13.892 5.518-20.77 8.24-6.881 2.727-13.803 5.475-20.771 8.242 1.518 3.434 3.93 6.234 7.236 8.404 3.304 2.17 7.056 3.254 11.256 3.254 2.768 0 5.36-.502 7.771-1.51 2.412-1.006 4.511-2.422 6.299-4.252.623.715 1.206 1.406 1.741 2.076.536.67 1.116 1.363 1.742 2.078-2.324 2.143-4.958 3.842-7.906 5.092-2.947 1.25-6.163 1.875-9.647 1.875-3.664 0-7.081-.693-10.251-2.076-3.172-1.385-5.942-3.238-8.309-5.563-2.367-2.32-4.243-5.068-5.628-8.24-1.386-3.17-2.076-6.586-2.076-10.252 0-3.572.69-6.967 2.076-10.184 1.385-3.215 3.261-5.984 5.628-8.309 2.366-2.32 5.137-4.174 8.309-5.561 3.17-1.383 6.587-2.076 10.251-2.076 2.68 0 5.226.469 7.638 1.406s4.623 2.234 6.633 3.887c2.011 1.654 3.773 3.617 5.293 5.896 1.519 2.28 2.681 4.806 3.485 7.573zm-23.048-13.4c-3.306 0-6.321.689-9.045 2.066-2.727 1.379-5.025 3.197-6.901 5.463s-3.195 4.887-3.953 7.863c-.76 2.979-.827 6.02-.201 9.131 5.984-2.414 11.971-4.803 17.956-7.17 5.984-2.367 12.015-4.758 18.091-7.17-1.521-2.998-3.708-5.443-6.566-7.34-2.861-1.894-5.987-2.843-9.381-2.843z" style="fill:none;stroke:#fff;stroke-width:3;stroke-linecap:round;stroke-linejoin:round;stroke-miterlimit:10"/><path d="m331.588 150.489c-6.968 2.77-13.892 5.518-20.77 8.24-6.881 2.727-13.803 5.475-20.771 8.242 1.518 3.434 3.93 6.234 7.236 8.404 3.304 2.17 7.056 3.254 11.256 3.254 2.768 0 5.36-.502 7.771-1.51 2.412-1.006 4.511-2.422 6.299-4.252.623.715 1.206 1.406 1.741 2.076.536.67 1.116 1.363 1.742 2.078-2.324 2.143-4.958 3.842-7.906 5.092-2.947 1.25-6.163 1.875-9.647 1.875-3.664 0-7.081-.693-10.251-2.076-3.172-1.385-5.942-3.238-8.309-5.563-2.367-2.32-4.243-5.068-5.628-8.24-1.386-3.17-2.076-6.586-2.076-10.252 0-3.572.69-6.967 2.076-10.184 1.385-3.215 3.261-5.984 5.628-8.309 2.366-2.32 5.137-4.174 8.309-5.561 3.17-1.383 6.587-2.076 10.251-2.076 2.68 0 5.226.469 7.638 1.406s4.623 2.234 6.633 3.887c2.011 1.654 3.773 3.617 5.293 5.896 1.519 2.28 2.681 4.806 3.485 7.573zm-23.048-13.4c-3.306 0-6.321.689-9.045 2.066-2.727 1.379-5.025 3.197-6.901 5.463s-3.195 4.887-3.953 7.863c-.76 2.979-.827 6.02-.201 9.131 5.984-2.414 11.971-4.803 17.956-7.17 5.984-2.367 12.015-4.758 18.091-7.17-1.521-2.998-3.708-5.443-6.566-7.34-2.861-1.894-5.987-2.843-9.381-2.843z"/><path d="m400.33 178.228c-2.324 1.787-4.87 3.195-7.639 4.221-2.77 1.025-5.762 1.541-8.978 1.541-3.664 0-7.081-.693-10.251-2.076-3.172-1.385-5.942-3.238-8.309-5.563-2.367-2.32-4.243-5.068-5.628-8.24-1.386-3.17-2.076-6.586-2.076-10.252 0-3.572.69-6.967 2.076-10.184 1.385-3.215 3.261-5.984 5.628-8.309 2.366-2.32 5.137-4.174 8.309-5.561 3.17-1.383 6.587-2.076 10.251-2.076 3.216 0 6.252.514 9.112 1.541 2.857 1.027 5.403 2.434 7.638 4.221v13.131h-5.36v-9.916c-1.698-1.158-3.507-2.053-5.427-2.68-1.922-.623-3.999-.938-6.231-.938-2.947 0-5.674.539-8.174 1.615-2.502 1.076-4.669 2.553-6.499 4.436-1.832 1.883-3.282 4.1-4.354 6.654s-1.608 5.264-1.608 8.133c0 2.867.538 5.559 1.619 8.066 1.08 2.51 2.541 4.705 4.386 6.588s4.026 3.359 6.547 4.436c2.52 1.076 5.264 1.613 8.233 1.613 5.127 0 9.537-1.518 13.226-4.557z" style="fill:none;stroke:#fff;stroke-width:3;stroke-linecap:round;stroke-linejoin:round;stroke-miterlimit:10"/><path d="m400.33 178.228c-2.324 1.787-4.87 3.195-7.639 4.221-2.77 1.025-5.762 1.541-8.978 1.541-3.664 0-7.081-.693-10.251-2.076-3.172-1.385-5.942-3.238-8.309-5.563-2.367-2.32-4.243-5.068-5.628-8.24-1.386-3.17-2.076-6.586-2.076-10.252 0-3.572.69-6.967 2.076-10.184 1.385-3.215 3.261-5.984 5.628-8.309 2.366-2.32 5.137-4.174 8.309-5.561 3.17-1.383 6.587-2.076 10.251-2.076 3.216 0 6.252.514 9.112 1.541 2.857 1.027 5.403 2.434 7.638 4.221v13.131h-5.36v-9.916c-1.698-1.158-3.507-2.053-5.427-2.68-1.922-.623-3.999-.938-6.231-.938-2.947 0-5.674.539-8.174 1.615-2.502 1.076-4.669 2.553-6.499 4.436-1.832 1.883-3.282 4.1-4.354 6.654s-1.608 5.264-1.608 8.133c0 2.867.538 5.559 1.619 8.066 1.08 2.51 2.541 4.705 4.386 6.588s4.026 3.359 6.547 4.436c2.52 1.076 5.264 1.613 8.233 1.613 5.127 0 9.537-1.518 13.226-4.557z"/><path d="m463.979 177.692h10.452v-29.58c-.183-2.865-1.246-5.375-3.189-7.527-1.944-2.152-4.815-3.316-8.613-3.496-2.714 0-5.337.471-7.87 1.412-2.534.941-4.771 2.219-6.715 3.83-1.945 1.615-3.482 3.543-4.612 5.783-1.131 2.24-1.696 4.705-1.696 7.393v22.186h9.916v5.359h-25.728v-5.359h10.451v-89.786h-9.916v-5.359h15.276v57.221l-.402 6.031c1.881-4.289 4.772-7.66 8.673-10.117 3.898-2.457 8.404-3.773 13.515-3.953 4.929 0 8.83 1.385 11.698 4.154s4.393 6.387 4.572 10.854v30.955h9.782v5.359h-25.594z" style="fill:none;stroke:#fff;stroke-width:3;stroke-linecap:round;stroke-linejoin:round;stroke-miterlimit:10"/><path d="m463.979 177.692h10.452v-29.58c-.183-2.865-1.246-5.375-3.189-7.527-1.944-2.152-4.815-3.316-8.613-3.496-2.714 0-5.337.471-7.87 1.412-2.534.941-4.771 2.219-6.715 3.83-1.945 1.615-3.482 3.543-4.612 5.783-1.131 2.24-1.696 4.705-1.696 7.393v22.186h9.916v5.359h-25.728v-5.359h10.451v-89.786h-9.916v-5.359h15.276v57.221l-.402 6.031c1.881-4.289 4.772-7.66 8.673-10.117 3.898-2.457 8.404-3.773 13.515-3.953 4.929 0 8.83 1.385 11.698 4.154s4.393 6.387 4.572 10.854v30.955h9.782v5.359h-25.594z"/><path d="m515.032 157.858c0-3.572.687-6.945 2.064-10.117 1.377-3.17 3.243-5.939 5.596-8.307 2.354-2.367 5.13-4.242 8.329-5.629 3.197-1.383 6.616-2.076 10.26-2.076 2.575 0 5.019.381 7.328 1.139 2.31.76 4.396 1.742 6.263 2.947 1.865 1.207 3.441 2.592 4.731 4.154 1.288 1.564 2.242 3.105 2.864 4.623 0-1.963.069-3.93.212-5.896.14-1.963.257-3.93.352-5.895h4.797v44.891h9.916v5.359h-15.276v-5.359c0-1.072.021-2.121.067-3.15.044-1.025.066-2.031.066-3.014-.624 1.52-1.578 3.037-2.866 4.555-1.287 1.521-2.841 2.861-4.663 4.02-1.821 1.162-3.911 2.102-6.264 2.814-2.354.715-4.864 1.072-7.527 1.072-3.644 0-7.063-.693-10.26-2.076-3.199-1.385-5.976-3.238-8.329-5.563-2.353-2.32-4.219-5.068-5.596-8.24-1.377-3.17-2.064-6.586-2.064-10.252zm5.36.069c0 2.867.536 5.559 1.608 8.066 1.072 2.51 2.522 4.705 4.354 6.588 1.83 1.883 4.021 3.359 6.566 4.436s5.293 1.613 8.241 1.613c2.947 0 5.672-.537 8.174-1.613 2.5-1.076 4.689-2.553 6.565-4.436s3.351-4.078 4.423-6.588c1.071-2.508 1.607-5.199 1.607-8.066 0-2.869-.536-5.578-1.607-8.133-1.072-2.555-2.547-4.771-4.423-6.654s-4.065-3.359-6.565-4.436c-2.502-1.076-5.227-1.615-8.174-1.615-2.948 0-5.695.539-8.241 1.615s-4.736 2.553-6.566 4.436c-1.832 1.883-3.282 4.1-4.354 6.654s-1.608 5.264-1.608 8.133z" style="fill:none;stroke:#fff;stroke-width:3;stroke-linecap:round;stroke-linejoin:round;stroke-miterlimit:10"/><path d="m515.032 157.858c0-3.572.687-6.945 2.064-10.117 1.377-3.17 3.243-5.939 5.596-8.307 2.354-2.367 5.13-4.242 8.329-5.629 3.197-1.383 6.616-2.076 10.26-2.076 2.575 0 5.019.381 7.328 1.139 2.31.76 4.396 1.742 6.263 2.947 1.865 1.207 3.441 2.592 4.731 4.154 1.288 1.564 2.242 3.105 2.864 4.623 0-1.963.069-3.93.212-5.896.14-1.963.257-3.93.352-5.895h4.797v44.891h9.916v5.359h-15.276v-5.359c0-1.072.021-2.121.067-3.15.044-1.025.066-2.031.066-3.014-.624 1.52-1.578 3.037-2.866 4.555-1.287 1.521-2.841 2.861-4.663 4.02-1.821 1.162-3.911 2.102-6.264 2.814-2.354.715-4.864 1.072-7.527 1.072-3.644 0-7.063-.693-10.26-2.076-3.199-1.385-5.976-3.238-8.329-5.563-2.353-2.32-4.219-5.068-5.596-8.24-1.377-3.17-2.064-6.586-2.064-10.252zm5.36.069c0 2.867.536 5.559 1.608 8.066 1.072 2.51 2.522 4.705 4.354 6.588 1.83 1.883 4.021 3.359 6.566 4.436s5.293 1.613 8.241 1.613c2.947 0 5.672-.537 8.174-1.613 2.5-1.076 4.689-2.553 6.565-4.436s3.351-4.078 4.423-6.588c1.071-2.508 1.607-5.199 1.607-8.066 0-2.869-.536-5.578-1.607-8.133-1.072-2.555-2.547-4.771-4.423-6.654s-4.065-3.359-6.565-4.436c-2.502-1.076-5.227-1.615-8.174-1.615-2.948 0-5.695.539-8.241 1.615s-4.736 2.553-6.566 4.436c-1.832 1.883-3.282 4.1-4.354 6.654s-1.608 5.264-1.608 8.133z"/><path d="m605.614 178.63c0-1.25.446-2.299 1.341-3.148.892-.85 1.92-1.273 3.082-1.273 1.071 0 2.054.424 2.947 1.273.893.85 1.34 1.898 1.34 3.148 0 1.252-.447 2.301-1.34 3.148-.894.85-1.876 1.273-2.947 1.273-1.162 0-2.19-.424-3.082-1.273-.894-.847-1.341-1.896-1.341-3.148z" style="fill:none;stroke:#fff;stroke-width:3;stroke-linecap:round;stroke-linejoin:round;stroke-miterlimit:10"/><path d="m605.614 178.63c0-1.25.446-2.299 1.341-3.148.892-.85 1.92-1.273 3.082-1.273 1.071 0 2.054.424 2.947 1.273.893.85 1.34 1.898 1.34 3.148 0 1.252-.447 2.301-1.34 3.148-.894.85-1.876 1.273-2.947 1.273-1.162 0-2.19-.424-3.082-1.273-.894-.847-1.341-1.896-1.341-3.148z"/><path d="m684.005 178.228c-2.324 1.787-4.87 3.195-7.639 4.221-2.77 1.025-5.762 1.541-8.978 1.541-3.664 0-7.081-.693-10.251-2.076-3.172-1.385-5.942-3.238-8.309-5.563-2.367-2.32-4.243-5.068-5.628-8.24-1.386-3.17-2.076-6.586-2.076-10.252 0-3.572.69-6.967 2.076-10.184 1.385-3.215 3.261-5.984 5.628-8.309 2.366-2.32 5.137-4.174 8.309-5.561 3.17-1.383 6.587-2.076 10.251-2.076 3.216 0 6.252.514 9.112 1.541 2.857 1.027 5.403 2.434 7.638 4.221v13.131h-5.36v-9.916c-1.698-1.158-3.507-2.053-5.427-2.68-1.922-.623-3.999-.938-6.231-.938-2.947 0-5.674.539-8.174 1.615-2.502 1.076-4.669 2.553-6.499 4.436-1.832 1.883-3.282 4.1-4.354 6.654s-1.608 5.264-1.608 8.133c0 2.867.538 5.559 1.619 8.066 1.08 2.51 2.541 4.705 4.386 6.588s4.026 3.359 6.547 4.436c2.52 1.076 5.264 1.613 8.233 1.613 5.127 0 9.537-1.518 13.226-4.557z" style="fill:none;stroke:#fff;stroke-width:3;stroke-linecap:round;stroke-linejoin:round;stroke-miterlimit:10"/><path d="m684.005 178.228c-2.324 1.787-4.87 3.195-7.639 4.221-2.77 1.025-5.762 1.541-8.978 1.541-3.664 0-7.081-.693-10.251-2.076-3.172-1.385-5.942-3.238-8.309-5.563-2.367-2.32-4.243-5.068-5.628-8.24-1.386-3.17-2.076-6.586-2.076-10.252 0-3.572.69-6.967 2.076-10.184 1.385-3.215 3.261-5.984 5.628-8.309 2.366-2.32 5.137-4.174 8.309-5.561 3.17-1.383 6.587-2.076 10.251-2.076 3.216 0 6.252.514 9.112 1.541 2.857 1.027 5.403 2.434 7.638 4.221v13.131h-5.36v-9.916c-1.698-1.158-3.507-2.053-5.427-2.68-1.922-.623-3.999-.938-6.231-.938-2.947 0-5.674.539-8.174 1.615-2.502 1.076-4.669 2.553-6.499 4.436-1.832 1.883-3.282 4.1-4.354 6.654s-1.608 5.264-1.608 8.133c0 2.867.538 5.559 1.619 8.066 1.08 2.51 2.541 4.705 4.386 6.588s4.026 3.359 6.547 4.436c2.52 1.076 5.264 1.613 8.233 1.613 5.127 0 9.537-1.518 13.226-4.557z"/><path d="m757.972 170.589v12.463h-48.374v-5.359c6.699-6.723 13.042-13.311 19.027-19.766 5.984-6.453 12.328-13.043 19.028-19.766h-36.448v-10.051h5.36v4.691h38.859v5.494c-6.699 6.723-13.044 13.289-19.027 19.697-5.986 6.412-12.328 12.977-19.028 19.699h35.242v-7.104h5.361z" style="fill:none;stroke:#fff;stroke-width:3;stroke-linecap:round;stroke-linejoin:round;stroke-miterlimit:10"/><path d="m757.972 170.589v12.463h-48.374v-5.359c6.699-6.723 13.042-13.311 19.027-19.766 5.984-6.453 12.328-13.043 19.028-19.766h-36.448v-10.051h5.36v4.691h38.859v5.494c-6.699 6.723-13.044 13.289-19.027 19.697-5.986 6.412-12.328 12.977-19.028 19.699h35.242v-7.104h5.361z"/></svg>