<svg enable-background="new 0 0 464 464" viewBox="0 0 464 464" xmlns="http://www.w3.org/2000/svg"><path d="m232 464c-4.418 0-8-3.582-8-8v-336h16v336c0 4.418-3.582 8-8 8z" fill="#8c5f56"/><path d="m240 232-16 16v-24l16-16z" fill="#734b46"/><path d="m232 120-120-120v102.857l68.571 68.572z" fill="#e15050"/><path d="m232 120 120 120v-102.857l-68.571-68.572z" fill="#ffc855"/><path d="m232 120-120 120h102.857l68.572-68.571z" fill="#00bea5"/><path d="m232 120 120-120h-102.857l-68.572 68.571z" fill="#00bed2"/><path d="m112 40 100 100 20-20-120-120z" fill="#d24146"/><path d="m352 200-100-100-20 20 120 120z" fill="#ffb44b"/><path d="m152 240 100-100-20-20-120 120z" fill="#00aa9a"/><path d="m312 0-100 100 20 20 120-120z" fill="#00a6bd"/><circle cx="232" cy="120" fill="#5f505a" r="16.162"/></svg>