<svg enable-background="new 0 0 464 464" viewBox="0 0 464 464" xmlns="http://www.w3.org/2000/svg"><path d="m264 0h-16-32-16c-8.837 0-16 7.163-16 16v328c0-8.837 7.164-16 16-16s16 7.163 16 16c0-8.837 7.164-16 16-16s16 7.163 16 16c0-8.837 7.164-16 16-16s16 7.163 16 16v-328c0-8.837-7.163-16-16-16z" fill="#ffd778"/><path d="m184 344 48 120 48-120v-40h-96z" fill="#ffe6a1"/><path d="m232 464-16-120v-40l-32-.005v40.005z" fill="#ffd796"/><path d="m184 16v328c0-8.837 7.164-16 16-16s16 7.163 16 16v-344h-16c-8.837 0-16 7.163-16 16z" fill="#ffb44b"/><path d="m216 0v344c0-8.837 7.164-16 16-16s16 7.163 16 16v-344z" fill="#ffc855"/><path d="m248 0v344c0-8.837 7.164-16 16-16s16 7.163 16 16v-328c0-8.837-7.163-16-16-16z" fill="#ffd778"/><path d="m209.6 408 22.4 56 22.4-56z" fill="#ff6472"/><path d="m209.6 408 22.4 56-7.467-56z" fill="#d25566"/><path d="m184 40h32v24h-32z" fill="#d25566"/><path d="m216 40h64v24h-64z" fill="#ff6472"/></svg>