<svg enable-background="new 0 0 400 400" height="400" viewBox="0 0 400 400" width="400" xmlns="http://www.w3.org/2000/svg" xmlns:xlink="http://www.w3.org/1999/xlink"><linearGradient id="a" gradientTransform="matrix(-1 0 0 1 400.0664 0)" gradientUnits="userSpaceOnUse" x1="128.0845" x2="150.416" y1="159.5518" y2="194.2284"><stop offset="0" stop-color="#fff8b9"/><stop offset="1" stop-color="#fffce8"/></linearGradient><path d="m147.419 269.232s-10.402-43.111-1.197-67.658c14.37-38.323 72.65-38.323 86.22 0 8.624 24.344.401 67.658.401 67.658z" fill="#34353b"/><path d="m50.813 345.418h12.049v52.404h-12.049z" fill="#f6a753"/><path d="m50.813 353.295h12.049v3.674h-12.049z" fill="#b86e2c"/><path d="m62.863 397.822 2.168-5.818v-46.586h-2.168z" fill="#bc7231"/><path d="m62.863 356.992 2.168-1.056v-9.59l-2.168 7.168z" fill="#895322"/><path d="m73.208 323.799h10.556v44.434h-10.556z" fill="#bc7231"/><path d="m73.208 354.949h10.556v1.799h-10.556z" fill="#895322"/><path d="m83.765 368.232 1.897-4.927v-39.506h-1.897z" fill="#895322"/><path d="m83.765 356.748 1.897-1.506v-31.443h-1.897z" fill="#8c5523"/><path d="m335.594 345.418h12.051v52.404h-12.051z" fill="#f6a753"/><path d="m335.594 353.295h12.051v3.674h-12.051z" fill="#b86e2c"/><path d="m335.594 397.822-2.163-5.818v-46.586h2.163z" fill="#bc7231"/><path d="m335.594 356.992-2.163-1.056v-9.59l2.163 7.168z" fill="#895322"/><path d="m314.693 323.799h10.56v44.434h-10.56z" fill="#bc7231"/><path d="m314.693 354.949h10.56v1.799h-10.56z" fill="#895322"/><path d="m314.693 368.232-1.895-4.927v-39.506h1.895z" fill="#895322"/><path d="m314.693 356.748-1.895-1.506v-31.443h1.895z" fill="#8c5523"/><path d="m45.138 303.328h308.914v52.449h-308.914z" fill="#e69743"/><path d="m45.138 303.328h308.914v7.979h-308.914z" fill="#b86e2c"/><path d="m351.353 351.494s-19.412-32.373-126.549-38.191c-100.363-5.457-177.234 16.693-177.234 16.693v-26.668h303.782v48.166z" fill="#cb7e2a"/><path d="m47.57 303.328h303.782v7.979h-303.782z" fill="#895322"/><path d="m38.325 299.969h323.35v10.006h-323.35z" fill="#bc7231"/><path d="m361.675 299.969h-323.35l33.619-46.63h247.553z" fill="#fab261"/><path d="m357.578 298.291-315.34.506s286.198-.992 281.068-25.359c-4.194-19.95-234.92-19.648-234.92-19.648l228.712.339z" fill="#f6a44c"/><path d="m38.325 299.969s160.703-.75 323.35 0c-96.618 1.922-323.35 0-323.35 0z" fill="#fdd2a0"/><path d="m53.159 257.35c-.576-.385 14.409-7.108 23.489-8.986 9.177.722 26.561 4.854 25.937 5.62-6.335 3.026-18.302 9.079-19.885 9.228-1.584.142-28.721-5.314-29.541-5.862z" fill="#f4a0ba"/><path d="m76.648 248.363c-6.596 1.363-16.3 5.278-20.901 7.475 7.325 1.654 25.181 5.176 26.459 5.059 1.405-.127 10.995-4.916 17.563-8.104-5.201-1.526-16.376-3.899-23.121-4.43z" fill="#cc6e90"/><path d="m53.159 257.35s-.769 28.82.767 30.355c1.54 1.539 27.479 8.07 28.823 7.977.189-11.723.094-31.129-.049-32.471-5.812-2.115-29.541-5.861-29.541-5.861z" fill="#e78fad"/><path d="m102.585 253.983c.527.385 1.392 29.015.915 29.786-.478.764-19.944 12.014-20.751 11.912-.811-.107-.29-31.801-.049-32.471.238-.677 19.885-9.227 19.885-9.227z" fill="#db779b"/><path d="m82.7 263.211c.534-1.682.624 31.887.049 32.471-.576.576-1.058-29.303-.049-32.471z" fill="#f4a0ba"/><path d="m53.159 257.35s16.905 1.248 29.541 5.861c-6.39-.678-29.541-5.861-29.541-5.861z" fill="#f8c4cf"/><path d="m102.585 253.983c-.717.966-18.302 8.839-19.885 9.228 2.449-2.311 19.885-9.228 19.885-9.228z" fill="#f8c4cf"/><path d="m67.942 266.371 3.531 1.129-.013 18.965-5.45-1.152.011-14.016-3.506-.742.008-5.326z" fill="#00a7ca"/><path d="m52.717 222.856c-.571-.381 14.284-7.047 23.279-8.902 9.092.717 26.325 4.808 25.704 5.566-6.283 3.006-18.135 8.998-19.707 9.141-1.571.148-28.458-5.262-29.276-5.805z" fill="#ffd00a"/><path d="m52.717 222.856s-.755 28.557.765 30.088c1.522 1.518 27.229 7.987 28.561 7.894.188-11.613.094-30.846-.05-32.177-5.76-2.094-29.276-5.805-29.276-5.805z" fill="#f9b31a"/><path d="m101.699 219.521c.527.384 1.383 28.758.907 29.512-.478.766-19.759 11.917-20.564 11.806-.8-.102-.285-31.507-.05-32.177.238-.667 19.707-9.141 19.707-9.141z" fill="#eb9022"/><path d="m81.992 228.661c.532-1.658.62 31.61.05 32.177-.575.572-1.049-29.034-.05-32.177z" fill="#fbc533"/><path d="m52.717 222.856s16.756 1.237 29.275 5.805c-6.331-.666-29.275-5.805-29.275-5.805z" fill="#fde04e"/><path d="m101.699 219.521c-.71.955-18.138 8.76-19.707 9.141 2.43-2.283 19.707-9.141 19.707-9.141z" fill="#fde04e"/><path d="m73.286 251.229-13.955-3.278-.397-4.555c1.144-.264 2.364-.736 3.658-1.425 1.292-.687 2.381-1.478 3.263-2.372.886-.895 1.332-1.776 1.335-2.638.004-.52-.143-1.025-.438-1.507-.29-.482-.65-.774-1.095-.882-.541-.127-1.014.041-1.421.505-.409.468-.652 1.043-.722 1.735l-4.47-1.885c.072-1.299.406-2.396 1.001-3.298.601-.907 1.415-1.536 2.434-1.899 1.025-.366 2.172-.396 3.446-.095 1.253.3 2.354.854 3.297 1.662.944.813 1.674 1.806 2.182 2.98.509 1.172.758 2.422.752 3.757-.007 2.637-1.374 5.091-4.092 7.368l4.723 1.04z" fill="#ee4023"/><path d="m289.583 303.096c-5.181-4.266-12.414-10.498-13.917-12.143-1.503-1.639-.657-3.66 3.323-3.375 3.431.244 16.158 12.889 16.158 12.889z" fill="#ee3b26"/><path d="m277.479 279.676c.968 1.547 2.85 4.793.14 10.646 4.514 4.328 13.748 11.186 13.748 11.186s2.758-8.467-.624-13.361c-4.989-3.834-13.264-8.471-13.264-8.471z" fill="#f9edcd"/><path d="m287.627 290.373c-2.531-1.936-5.896-4.088-8.609-5.736-.013-2.428-.951-4.016-1.539-4.961 0 0 8.275 4.637 13.264 8.471 3.382 4.895.624 13.361.624 13.361s-.893-.664-2.263-1.709c.388-2.867.41-6.697-1.477-9.426z" fill="#ddcfa7"/><path d="m274.903 279.25c3.947 3.459 13.953 10.201 13.953 10.201l60.747-8.426-18.139-10.311s-41.384 4.158-55.162 5.682c-2.692.303-1.96 2.364-1.399 2.854z" fill="#ee3b26"/><path d="m274.398 277.676c10.549 1.945 31.146 5.547 41.745 7.143l10.015-1.391c3.365-2.119 11.863-2.797 16.12-6.137l-5.796-3.725-4.844-2.754c-1.961.195-4.439.449-7.261.73.14.561.246 1.172.318 1.857.206 2.037.028 4.416-.657 6.516l-27.087-5.564c-.833.086-1.809.139-2.879.172-7.153.734-13.68 1.426-17.771 1.873-1.289.145-1.786.69-1.903 1.28z" fill="#9b2120"/><path d="m349.604 281.025c1.548 2.088 4.229 8.236-.388 12.865-27.96 5.238-59.633 9.205-59.633 9.205s4.28-8.164-.727-13.645c20.844-3.354 60.748-8.425 60.748-8.425z" fill="#b72b1f"/><path d="m291.159 294.34c12.733-1.699 39.722-5.434 60.318-9.152.416 1.713.499 3.693-.237 5.621-19.699 3.645-46.429 7.402-60.537 9.307.443-1.6.774-3.665.456-5.776z" fill="#d12e21"/><path d="m339.222 289.131c4.671-.895 4.23 1.334 0 2.229-4.229.887-30.821 4.777-34.052 5.336-3.225.555-2.668-1.557 1.115-2.445 3.782-.896 32.937-5.12 32.937-5.12z" fill="#f05739"/><path d="m289.395 298.063s-6.85-5.908-10.544-7.984c2.995 2.692 10.544 7.984 10.544 7.984z" fill="#bdaf84"/><path d="m289.782 292.805s-6.86-5.904-10.545-7.98c2.995 2.693 10.545 7.98 10.545 7.98z" fill="#bdaf84"/><path d="m290.571 296.303s-5.846-5.033-8.993-6.801c2.555 2.297 8.993 6.801 8.993 6.801z" fill="#bdaf84"/><path d="m354.177 253.388-38.578-10.825s-36.642 8.898-42.578 10.977c10.089 1.929 45.881 10.129 45.881 10.129z" fill="#f9bf17"/><path d="m354.177 253.388c4.597 2.08 4.449 15.142-1.041 18.698-5.489 3.561-36.906 11.607-36.906 11.607s8.718-8.639 2.038-20.359c15.878-4.678 27.008-7.716 35.909-9.946z" fill="#f79e28"/><path d="m320.708 270.633c9.582-2.283 28.972-7.049 36.718-10.057.105 2.084-.151 4.313-.784 6.309-5.96 2.775-25.93 7.758-36.751 10.352.658-1.852 1.062-4.077.817-6.604z" fill="#f9ac27"/><path d="m346.83 266.338c4.672-.891 4.229 1.332 0 2.221-4.229.896-13.687 3.564-16.913 4.123-3.228.553-2.674-1.559 1.113-2.453 3.781-.891 15.8-3.891 15.8-3.891z" fill="#ffdb76"/><path d="m279.843 266.893s-3.896 2.004-5.674 2.67c-1.781.666-4.896 2.67-2.115 3.672 3.636 1.305 44.176 9.123 44.176 9.123l3.449-3.336z" fill="#f79e28"/><path d="m276.507 254.209c1.22 2.225 4.004 10.125-.895 16.355 15.579 3.668 42.509 9.457 42.509 9.457s7.566-7.014.78-16.354c-9.905-2.226-42.394-9.458-42.394-9.458z" fill="#f9edcd"/><path d="m314.115 265.555c-7.226-1.621-26.492-5.912-36.365-8.111-.393-1.446-.888-2.586-1.243-3.234 0 0 32.489 7.232 42.395 9.459 6.786 9.34-.78 16.354-.78 16.354s-1.056-.225-2.865-.621c1.668-2.843 3.201-7.859-1.142-13.847z" fill="#ddcfa7"/><path d="m316.229 283.693c.248 0 .502-.07.717-.209 5.337-3.385 6.423-10.039 5.735-14.717-.537-3.65-2.051-6.164-4.052-6.725-3.715-1.037-42.437-8.919-44.085-9.258-.723-.147-1.427.326-1.573 1.044-.146.724.323 1.43 1.041 1.576.404.082 40.274 8.198 43.897 9.21.632.176 1.712 1.705 2.13 4.539.554 3.75-.206 8.986-4.081 11.773-15.371-3.4-43.003-9.602-43.28-9.662-.721-.162-1.435.285-1.594 1.012-.162.715.286 1.434 1.013 1.592.282.066 28.587 6.418 43.845 9.795.095.021.189.03.287.03z" fill="#d97624"/><path d="m314.416 266.596s-21.812-5.639-32.495-6.68c9.642 2.674 32.495 6.68 32.495 6.68z" fill="#bdaf84"/><path d="m319.165 273.348s-9.349-3.559-31.905-6.309c9.645 2.676 31.905 6.309 31.905 6.309z" fill="#bdaf84"/><path d="m311.15 275.498s-21.812-5.641-32.497-6.678c9.649 2.67 32.497 6.678 32.497 6.678z" fill="#bdaf84"/><path d="m299.332 281.65s.053.58.184 1.014c1.393-1.781 2.242-3.043 4.431-5.348 0 0 .64 4.217 1.31 6.963.112.467.287.598.481.941 1.241-5.668 3.478-11.637 4.303-12.723-.102-.191-.16-.67-.148-1.107-3.788-.005-10.561 10.26-10.561 10.26z" fill="#3a7666"/><path d="m303.186 270.547s-3 4.557-3.854 11.104c1.39-1.779 2.422-3.008 4.604-5.318 0 0 .491 5.514 1.319 7.947 1.15-5.883 3.813-11.797 4.636-12.889-3.679-1.42-6.705-.844-6.705-.844z" fill="#539886"/><path d="m306.95 278.078-5.683-3.701c-.229.57-.462 1.191-.686 1.859l1.646 1.941c.493-.543 1.048-1.145 1.708-1.846 0 0 .2 2.262.563 4.523l1.2 1.42c.365-1.456.798-2.879 1.252-4.196z" fill="#76b5a5"/><path d="m301.919 272.889c-.174.373-.36.785-.546 1.238l6.654 1.082c.451-1.102.879-2.033 1.229-2.723z" fill="#76b5a5"/><path d="m301.103 279.469c-.325-.266-.816-.668-1.183-.953-.094.381-.18.777-.264 1.18l.726.637c.236-.294.472-.575.721-.864z" fill="#76b5a5"/><path clip-rule="evenodd" d="m262.195 248.961c-24.439-6.179-64.548 5.348-72.072 13.201-7.524-7.854-46.775-20.389-70.68-12.596l-19.316 30.178c21.201 4.602 74.803 14.473 90.841 15.695 16.555-2.127 59.456-8.453 89.941-15.695z" fill="#d88731" fill-rule="evenodd"/><path clip-rule="evenodd" d="m262.792 250.691c-22.385-5.658-65.747 5.051-72.633 12.234-6.89-7.184-49.44-18.801-71.329-11.669l-13.921 26.144c19.418 4.213 71.334 14.877 86.024 15.994 15.157-1.943 56.62-9.701 84.53-16.334z" fill="#a86528" fill-rule="evenodd"/><path d="m205.984 183.843c-3.02-1.658-6.94-2.563-12.225-3.506-8.242-.526-12.387.249-12.387.249-3.926 1.3-6.546 2.578-9.869 4.39-2.062 4.574-3.252 11.28-4.301 17.959-1.118 7.097-2.378 16.003-3.424 27.771 15.41 19.472 44.848 10.735 51.982 0-3.501-18.039-5.314-38.046-9.776-46.863z" fill="#418e6e"/><path d="m195.19 235.102c-12.15 5.918-27.457-5.643-28.419-14.726-.799 6.467-2.428 18.288-1.455 19.23 2.771 3.118 24.608 8.212 48.592 1.051 0-14.331-4.436-28.652-5.542-33.973 1.113 16.602-1.034 22.503-13.176 28.418z" fill="#2a7153"/><path d="m171.471 196.082c2.852-8.341 10.023-6.881 7.087 1.011-2.933 7.896-7.487 14.48-7.851 25.126-1.46-11.391-.603-22.13.764-26.137z" fill="#66af8f"/><path d="m211.449 219.363c-.231-1.206-.496-2.443-.796-3.691-20.468 2.228-35.32 1.121-42.417.254-.153 1.129-.288 2.27-.414 3.423 19.161 2.516 36.447.925 43.627.014z" fill="none"/><g clip-rule="evenodd" fill-rule="evenodd"><path d="m257.013 236.166 20.022 33.457-79.671 15.777-1.769-37.074z" fill="#6069af"/><path d="m123.277 236.083 60.315 12.157-.579 2.981-60.314-12.161z" fill="#379e8f"/><path d="m269.736 271.258-72.01 14.059-7.92-7.674c9.578-9.998 47.476-26.609 77.927-16.688-.121 3.908.464 7.395 2.003 10.303z" fill="#c8c7be"/><path d="m267.733 260.955-12.511-20.808c-23.902-7.787-58.485-5.454-66.001 2.396l.585 35.1c11.495-10.2 43.719-24.195 77.927-16.688z" fill="#e9e9e0"/><path d="m267.733 260.955-12.511-20.808c-23.902-7.787-58.485-5.454-66.001 2.396l.585 35.1c11.495-10.2 42.057-26.268 77.927-16.688z" fill="#9b9991"/><path d="m123.277 236.083-20.026 33.462 78.572 15.771 1.769-37.076z" fill="#6069af"/><path d="m109.815 271.258 72.008 14.059 7.983-7.674c-9.583-9.998-47.531-26.609-77.983-16.688.116 3.908-.467 7.395-2.008 10.303z" fill="#c8c7be"/><path d="m189.807 277.643c4.42 0 7.999 3.584 7.999 8.006v.309c-2.554.348-5.143.52-7.734.52-2.771 0-5.541-.197-8.268-.596-.008-.078-.008-.156-.008-.232-.001-4.423 3.589-8.007 8.011-8.007z" fill="#87857f"/><path d="m103.251 269.545 78.641 15.715-.738 5.609-76.236-15.277z" fill="#4550a0"/><path d="m277.035 269.623-79.318 15.637.735 5.609 77.25-15.277z" fill="#4550a0"/></g><path d="m198.407 290.934c-2.764.377-5.585.568-8.402.568-2.972 0-5.948-.213-8.851-.633l.737-5.609c2.654.381 5.382.563 8.113.563 2.597 0 5.19-.17 7.722-.506l.725 5.553z" fill="#323b78"/><path clip-rule="evenodd" d="m111.824 260.955 16.764-31.796c23.907-7.785 53.107 5.534 60.634 13.384l.585 35.1c-9.584-9.998-47.532-26.61-77.983-16.688z" fill="#e9e9e0" fill-rule="evenodd"/><path clip-rule="evenodd" d="m113.512 260.197s1.621-1.996 11.091-3.508c26.029-4.154 60.484 6.02 62.133-2.714 5.204-27.617-56.361-24.676-56.361-24.676 26.936-5.655 51.32 6.3 58.847 14.148l.585 32.366c-9.584-9.997-45.845-25.536-76.295-15.616z" fill="#dddbd0" fill-rule="evenodd"/><path clip-rule="evenodd" d="m263.487 249.967-16.267-25.097c-24.439-6.182-50.482 9.823-57.999 17.673l.585 35.1c9.921-11.702 42.395-33.351 73.681-27.676z" fill="#f8f7f2" fill-rule="evenodd"/><path clip-rule="evenodd" d="m262.195 248.961s-3.707-2.133-13.215-3.022c-20.322-1.9-58.841 18.786-55.794 3.963 5.549-27.016 54.034-25.031 54.034-25.031-28.569-3.492-50.482 10.729-57.999 18.578l.585 32.366c9.921-11.698 41.108-32.53 72.389-26.854z" fill="#e9e9e0" fill-rule="evenodd"/><path clip-rule="evenodd" d="m166.998 269.688c-3.683-1.943-24.884-6.791-34.786-7.061 10.438-1.666 31.884 4.121 34.786 7.061z" fill="#918f87" fill-rule="evenodd"/><path clip-rule="evenodd" d="m180.061 282.932c-3.626-2.064-20.884-6.736-30.768-7.326 10.481-1.338 27.957 4.292 30.768 7.326z" fill="#918f87" fill-rule="evenodd"/><path clip-rule="evenodd" d="m180.634 279.729c-3.536-2.203-20.604-7.529-30.464-8.498 10.534-.934 27.778 5.359 30.464 8.498z" fill="#918f87" fill-rule="evenodd"/><path clip-rule="evenodd" d="m201.887 273.896c6.604-3.566 36.223-11 46.128-11.27-10.443-1.665-40.304 6.228-46.128 11.27z" fill="#918f87" fill-rule="evenodd"/><path clip-rule="evenodd" d="m233.563 274.734c5.786-1.592 21.976-4.645 31.868-5.238-11.217-1.582-27.628 2.281-31.868 5.238z" fill="#918f87" fill-rule="evenodd"/><path clip-rule="evenodd" d="m199.588 279.729c3.539-2.203 20.605-7.529 30.462-8.498-10.529-.934-27.773 5.359-30.462 8.498z" fill="#918f87" fill-rule="evenodd"/><path d="m175.637 259.359c-2.929 0-6.043-1.129-8.538-4.198-2.406-2.96-8.002-3.559-10.792-2.669-2.978.949-9.942 3.166-12.959-.9-2.446-3.31-10.107-2.641-14.696-.887-.314.122-.669-.031-.792-.354-.123-.315.036-.669.354-.79 4.767-1.82 13.18-2.667 16.125 1.297 2.488 3.372 8.869 1.333 11.592.464 3.198-1.016 9.352-.343 12.115 3.063 3.551 4.365 8.508 4.32 11.965 2.822.313-.133.679.01.809.32.136.313-.011.674-.315.805-1.448.627-3.127 1.027-4.868 1.027z" fill="#9b9991"/><path d="m176.749 250.994c-2.759 0-5.698-1.063-8.054-3.963-2.272-2.791-7.547-3.357-10.184-2.515-2.805.894-9.38 2.985-12.22-.85-2.311-3.124-9.538-2.495-13.867-.834-.3.111-.632-.035-.75-.339-.11-.293.036-.634.337-.746 4.499-1.715 12.436-2.518 15.207 1.224 2.355 3.183 8.378 1.257 10.942.442 3.017-.962 8.824-.325 11.433 2.89 3.349 4.117 8.023 4.076 11.285 2.664.292-.126.638.006.758.296.133.297-.004.639-.3.764-1.357.589-2.942.967-4.587.967z" fill="#9b9991"/><path clip-rule="evenodd" d="m277.035 269.623s-42.599 8.002-79.292 15.719c4.099-.699 9.043-1.152 44.127-8.092 29.577-5.85 35.165-7.627 35.165-7.627z" fill="#a6abd5" fill-rule="evenodd"/><path clip-rule="evenodd" d="m275.702 275.592-77.384 15.205s8.357-.871 41.853-7.775c29.533-6.086 35.531-7.43 35.531-7.43z" fill="#a6abd5" fill-rule="evenodd"/><path clip-rule="evenodd" d="m103.251 269.545 78.441 15.625s-18.171-2.301-39.57-6.789c-23.197-4.867-38.871-8.836-38.871-8.836z" fill="#a6abd5" fill-rule="evenodd"/><path clip-rule="evenodd" d="m104.918 275.592 76.242 15.236s-17.412-2.375-38.81-6.867c-23.202-4.859-37.432-8.369-37.432-8.369z" fill="#a6abd5" fill-rule="evenodd"/><path d="m216.322 207.701c1.809 2.637 7.005 14.369 3.209 23.752-1.925.229-3.741.872-3.587 1.853.115.716 2.828.448 2.828.448s-3.811 4.719-2.186 5.703c1.191.718 3.245-3.362 3.245-3.362s-1.837 5.21-.153 5.548c1.888.376 2.339-4.981 2.339-4.981s.057 5.021 1.66 4.64c1.739-.414.641-5.285.641-5.285s.883 3.072 2.001 2.684c.979-.34-.188-4.266-2.037-7.17 1.407-7.573 1.92-16.311-2.921-25.414-3.375-2.146-5.039 1.584-5.039 1.584z" fill="#fbc6a4"/><path d="m221.361 206.115c-3.375-2.145-5.039 1.586-5.039 1.586.511.742 1.292 2.235 2.068 4.178.164-2.979 2.489-4.509 4.445-2.593-.425-1.052-.912-2.104-1.474-3.171z" fill="#eaad85"/><path d="m162.455 207.701c-1.806 2.637-7.005 14.369-3.202 23.752 1.925.229 3.735.872 3.581 1.853-.112.716-2.83.448-2.83.448s3.817 4.719 2.194 5.703c-1.197.718-3.25-3.362-3.25-3.362s1.837 5.21.151 5.548c-1.881.376-2.336-4.981-2.336-4.981s-.055 5.021-1.664 4.64c-1.73-.414-.642-5.285-.642-5.285s-.876 3.072-1.996 2.684c-.979-.34.186-4.266 2.038-7.17-1.411-7.573-1.925-16.311 2.92-25.414 3.374-2.146 5.036 1.584 5.036 1.584z" fill="#fbc6a4"/><path d="m157.418 206.115c3.375-2.145 5.036 1.586 5.036 1.586-.511.742-1.294 2.235-2.066 4.178-.163-2.979-2.494-4.509-4.445-2.593.425-1.052.91-2.104 1.475-3.171z" fill="#eaad85"/><path d="m205.984 183.843c4.15 1.66 13.58 8.906 18.183 20.752-4.963 4.839-12.523 5.735-12.523 5.735s-1.824-5.495-3.62-12.678c-1.964-7.843-2.04-13.809-2.04-13.809z" fill="#418e6e"/><path d="m223.734 203.572c-.307-.725-.631-1.436-.968-2.121-4.684 3.162-12.26-.902-14.293-8.02-1.052-3.699-1.356-5.888-.998-8.859-.546-.303-1.051-.549-1.491-.729 0 0 .047 3.627.996 8.928.229 1.167.496 2.393.815 3.674 1.797 7.185 3.621 12.678 3.621 12.678s7.354-.887 12.318-5.551z" fill="#2a7153"/><path d="m184.752 170.359s-.266 5.298-.303 9.518c-1.591.636-3.67.767-4.509 1.123.953 5.56 13.542 4.966 16.759.163-1.512-.519-3.26-.876-4.2-1.286-.052-3.431-.17-6.288-.287-9.836-3.972.318-7.46.318-7.46.318z" fill="#f4c1a8"/><path d="m193.206 180.128c-.256-.084-.508-.166-.707-.252-.052-3.431-.17-6.288-.287-9.836-3.325.265-6.289.306-7.175.314-.061 1.735-.124 3.815-.139 5.675-.121.049-.247.091-.375.131-.037 1.232-.063 2.519-.074 3.716-.409.164-.84.293-1.283.401 2.709 1.193 6.834 1.078 10.04-.149z" fill="#eaad85"/><path d="m182.028 180.564c.268 1.811 8.334 4.341 11.96-.303 2.264-.715 4.449 1.019 4.449 1.019s-2.413 5.927-10.485 5.733c-8.79-.21-10.149-5.053-10.149-5.053s1.618-1.809 4.225-1.396z" fill="#fff"/><path d="m172.484 184.603c-3.997 1.507-11.994 5.807-19.467 20.145 5.075 4.719 13.506 6.186 13.506 6.186s1.082-7.367 2.489-14.638c1.057-5.433 3.472-11.693 3.472-11.693z" fill="#418e6e"/><path d="m170.16 185.633c.438 1.837-.469 7.042-2.049 10.813-2.584 6.141-8.934 8.962-14.188 6.568-.103.194-.209.37-.315.566 5.074 4.727 13.14 5.395 13.14 5.395s.857-5.408 2.265-12.679c1.057-5.433 3.472-11.692 3.472-11.692-.667.247-1.455.589-2.325 1.029z" fill="#2a7153"/><path d="m250.968 89.774c6.187 17.698 8.252 71.28-41.107 84.438-49.087 13.077-76.579-20.643-84.545-54.782-9.613-41.195 22.432-67.392 51.349-71.874 45.135-7.011 66.041 18.502 74.303 42.218z" fill="#fbc6a4"/><path d="m225.149 134.506c.198 4.446 6.767 7.696 13.443 5.869 6.669-1.821 10.096-7.305 9.549-12.605-.5-4.833-6.701-8.616-13.2-3.531-6.078 4.749-9.998 5.646-9.792 10.267z" fill="#f8af9a"/><path d="m242.592 126.876c.04.584.685.999 1.439.942.749-.057 1.327-.573 1.277-1.154-.04-.584-.688-1.001-1.442-.947-.754.055-1.327.582-1.274 1.159z" fill="#fcd8c1"/><path d="m202.584 122.465c.048.586.803.998 1.698.931.882-.067 1.574-.597 1.519-1.174-.041-.582-.801-.99-1.686-.924-.895.066-1.577.597-1.531 1.167z" fill="#fcd8c1"/><path d="m150.375 137.936c.681 6.057 6.773 9.886 14.715 9.746 7.651-.149 15.015-6.412 13.267-11.962-1.671-5.281-5.709-3.127-14.758-5.749-8.75-2.544-13.93 1.92-13.224 7.965z" fill="#f8af9a"/><path d="m155.544 134.446c.065.557.689.933 1.42.854.709-.087 1.233-.595 1.169-1.146-.061-.55-.682-.933-1.403-.851-.722.077-1.252.587-1.186 1.143z" fill="#fcd8c1"/><path d="m229.029 87.707c-6.919-2.52-8.969 5.145-4.289 5.506 5.031.379 9.11 2.523 9.767 2.085 1.463-.965-1.586-6.18-5.478-7.591z" fill="#b75127"/><path d="m163.381 94.514c6.257-3.879 9.822 3.193 5.314 4.508-4.838 1.4-8.386 4.333-9.137 4.037-1.622-.642.313-6.374 3.823-8.545z" fill="#b75127"/><path d="m204.324 129.549c-.131.003-.262-.077-.319-.207-.07-.178 0-.376.179-.456 3.079-1.296 3.169-3.725 3.059-4.712-.218-1.899-1.527-3.536-3.066-3.818-1.638-.292-3.229.921-4.5 3.414-.077.169-.286.229-.452.153-.169-.084-.246-.296-.147-.461 1.898-3.765 4.095-3.995 5.222-3.778 1.823.329 3.38 2.233 3.62 4.422.259 2.365-1.041 4.389-3.466 5.418-.046.013-.091.02-.13.025z" fill="#ce7754"/><path d="m216.411 107.079c-1.771 6.156 1.522 12.509 7.34 14.18 5.806 1.663 11.956-1.985 13.722-8.136 1.771-6.168-1.518-12.513-7.327-14.186-5.823-1.659-11.972 1.983-13.735 8.142z" fill="#eaad85"/><path d="m220.802 117.916c-3.563.637-4.269 2.337-1.573 3.79 2.701 1.443 7.769 2.102 11.321 1.462 3.562-.646 4.264-2.344 1.576-3.795-2.702-1.451-7.767-2.101-11.324-1.457z" fill="#eaad85"/><path d="m217.597 107.239c-1.737 6.092 1.5 12.362 7.247 14.012 5.753 1.647 11.841-1.949 13.571-8.046 1.756-6.094-1.498-12.365-7.241-14.018-5.754-1.639-11.835 1.961-13.577 8.052z" fill="#fff"/><path d="m218.86 108.276c.355-1.206.918-2.284 1.616-3.235-.301.578-.545 1.202-.74 1.845-1.533 5.361 1.32 10.876 6.379 12.338 3.008.855 6.09.055 8.445-1.829-2.359 2.661-5.968 3.933-9.457 2.943-4.941-1.422-7.733-6.822-6.243-12.062z" fill="#d9dbdc"/><path d="m220.295 111.974c.369 3.411 3.268 5.906 6.484 5.564 3.238-.339 5.551-3.379 5.201-6.784-.362-3.424-3.271-5.909-6.487-5.578-3.225.34-5.556 3.382-5.198 6.798z" fill="#86b4e0"/><path d="m222.714 111.965c.213 2.044 1.951 3.536 3.883 3.345 1.919-.218 3.308-2.024 3.095-4.08-.212-2.035-1.947-3.527-3.873-3.33-1.927.207-3.325 2.026-3.105 4.065z" fill="#231f20"/><path d="m226.453 109.381c.088.858.823 1.491 1.642 1.409.805-.095 1.4-.86 1.308-1.722-.091-.863-.822-1.489-1.639-1.419-.812.091-1.403.862-1.311 1.732z" fill="#fff"/><path d="m222.984 114.287c.06.528.499.901 1.004.858.485-.054.844-.527.791-1.045-.061-.528-.501-.913-.995-.861-.501.061-.851.526-.8 1.048z" fill="#fff"/><path d="m162.281 123.532c-.324-.116-.524-.431-.512-.785.528-7.899 6.629-12.893 11.979-12.606 3.538.191 7.194 2.814 6.9 9.595-.021.438-.38.773-.813.754-.441-.016-.764-.387-.747-.818.199-4.787-1.827-7.77-5.424-7.967-4.603-.245-9.865 4.17-10.343 11.15-.015.427-.398.757-.823.736-.08-.005-.166-.033-.217-.059z" fill="#6b4432"/><path d="m186.205 141.059c3.419 5.857 17.638 10.176 25.486 4.742-10.418 16.246-27.157 6.24-25.486-4.742z" fill="#eb9d85"/><path d="m203.517 149.157c1.349-.198 2.14.042 1.558.493-.588.454-2.593.918-3.818.36-1.225-.559.689-.627 2.26-.853z" fill="#f9bdab"/><path d="m211.596 145.909c-7.468 9.453-23.444 5.395-25.391-4.851-.003.011-.001.022-.003.033.617 9.529 15.511 16.94 25.394 4.818z" fill="#d07e64"/><path d="m129.164 142.445c3.793 3.7 10.514-4.542 4.419-8.615 10.164-1.469 10.169-14.69 3.209-18.229 6.22-1.267 5.526-8.038-.632-9.295 9.614-3.292 17.72-14.218 11.052-21.951 8.011 6.652 12.534-1.735 12.104-7.651 4.362 6.846 32.996-2.933 30.685-13.396 5.588 14.754 15.353 6.247 18.002.678-1.395 12.349 18.049 11.083 21.554 4.97.877 11.278 9.042 11.172 11.398 6.442.947 8.459 6.104 8.77 7.241 7.95 3.186 7.808 4.313 18.389 5.674 25.627 6.72 1.835 14.613-11.202 9.317-18.064 8.643-7.138 3.042-15.36 1.146-18.491 5.986-3.153 4.632-17.965-2.49-18.123 8.849-11.688-3.448-35.058-21.496-32.382 6.547-16.46-12.514-15.473-15.574-4.28-10.256-19.926-37.102-14.608-40.422-4.548-5.78-18.701-15.06-5.956-13.467-1.703-7.738-19.581-28.355-3.156-18.412 5.508-14.223-6.224-33.119 8.84-35.357 21.172-9.59-12.026-17.793 2.71-3.539 6.961-22.564 2.604-26.622 29.34-15.138 31.555-14.801 7.841-11.003 35.214 6.503 28.667-3.748 3.572-2.251 8.207 3.956 7.78-8.377 6.058-2.352 17.67 2.978 18.352-1.443 13.248 12.135 10.541 12.135 10.541s1.021-3.494 5.154.525z" fill="#d67728"/><path d="m261.507 83.54c-3.646-1.299-6.264-10.938-2.169-18.285-3.385 6.797-16.257-.281-17.516-16.474-5.046 8.779-25.91 12.714-23.907-5.036-3.812 8.007-21.98 20.451-30.003-.749 3.306 15.035-27.745 20.447-34 10.602.621 8.504-13.51 21.201-25.019 11.65 10.945 21.23-4.557 37.313-10.544 36.809 8.848 1.812 11.087 10.524 2.143 12.352 6.674 3.376-7.538 14.838-10.349 1.832 1.383 9.604 2.223 13.749 5.82 12.705-1.094 11.226 5.841 11.755 5.841 11.755s2.965-2.088 7.043 1.473c.39-2.009-.211-4.223-2.656-5.851 11.521-1.666 11.542-16.663 3.646-20.663 7.053-1.445 7.995-9.351 1.002-10.781 12.748-7.785 14.961-18.546 9.065-26.336 9.088 7.534 15.963-.288 15.477-7.002 4.923 7.767 37.41-3.331 34.788-15.184 6.336 16.724 17.4 7.074 20.417.754-1.58 14.012 20.455 12.581 24.442 5.649.992 12.786 10.255 12.669 12.92 7.306 1.072 9.597 3.748 11.695 5.045 10.769-.822 4.25 1.745 11.164 3.533 24.456 2.738.548 7.055-9.224 2.294-10.173 2.096-1.526 2.53-4.449 2.687-11.578z" fill="#b75127"/><path d="m139.883 38.848c-4.835-10.238 3.592-22.154 16.554-10.332-15.089-4.835-16.554 10.332-16.554 10.332z" fill="#b75127"/><path d="m240.246 34.656c5.366-13.73 16.839-8.476 12.494 8.519-2.825-15.593-12.494-8.519-12.494-8.519z" fill="#b75127"/><path d="m112.953 75.542c-18.933-2.997-10.978-19.146 3.211-11.229-15.398 3.774-3.211 11.229-3.211 11.229z" fill="#b75127"/><path d="m205.918 22.679c1.257-19.122 18.065-12.674 11.483 2.163-5.17-14.982-11.483-2.163-11.483-2.163z" fill="#b75127"/><path d="m136.282 127.811s-4.352-7.409-12.974-5.049c-9.092 2.482-7.345 15.866.671 21.741 8.007 5.868 18.166 3.134 18.474-4.253z" fill="#fbc6a4"/><path d="m124.504 123.187c2.2-.595 4.089-.513 5.679-.085-1.266-.291-2.641-.305-4.083.162-8.408 2.679-5.793 12.682-.861 17.448 6.678 6.449 14.827 4.472 17.224-1.252-.28 6.883-9.811 9.424-17.33 3.964-7.507-5.474-9.15-17.935-.629-20.237z" fill="#eaad85"/><path d="m123.121 126.892c5.106-3.469 14.533 6.151 9.472 15.252-.243-9.438-4.365-11.007-6.741-5.48-1.079-2.669-.397-4.916 3.105-6.014-1.748-3.393-5.836-3.758-5.836-3.758z" fill="#eaad85"/><path d="m336.88 249.313c.654-24.05-35.637-27.823-42.714-3.084 4.56 11.46 41.671 11.978 42.714 3.084z" fill="#ffd440"/><path d="m304.217 234.278c-4.522 13.58 21.306 18.879 29.808 7.156.178.975.786 2.866.762 3.961-8.025 9.912-33.754 6.27-37.563-2.334 1.118-3.509 4.506-6.759 6.993-8.783z" fill="#fcb912"/><path d="m336.761 246.328c.103.962.238 2.956.208 3.984-4.637 10.75-38.363 6.736-43.119-2.94.28-.963.823-2.738 1.043-3.32 6.67 9.906 34.496 12.997 41.868 2.276z" fill="#6069af"/><path d="m336.673 246.564c.032-.077.063-.153.088-.236.002.048.002.092.01.146-.031.03-.066.065-.098.09z" fill="#7f4b98"/><path d="m294.893 244.052c.118.167.244.337.374.515-.011.039-.024.087-.039.133 4.114 10.351 34.799 11.775 41.458 5.396-3.067 8.072-38.101 7.244-42.52-3.867.219-.75.461-1.477.727-2.177z" fill="#4550a0"/><path d="m318.814 238.201c1.548 0 3.03-.864 3.757-2.347 16.265-33.37 7.178-70.122-10.994-86.37-11.092-9.912-24.393-11.202-36.484-3.532-1.946 1.235-2.517 3.81-1.285 5.755 1.232 1.944 3.804 2.515 5.746 1.285 11.333-7.188 20.649-2.497 26.471 2.703 15.523 13.88 23.397 47.078 9.055 76.514-1.011 2.066-.152 4.561 1.916 5.569.586.288 1.212.423 1.818.423z" fill="#dddbd0"/><path d="m318.814 238.201c1.548 0 3.03-.864 3.757-2.347 16.265-33.37 7.178-70.122-10.994-86.37-11.092-9.912-24.393-11.202-36.484-3.532-1.946 1.235-2.517 3.81-1.285 5.755 1.232 1.944 3.804 2.515 5.746 1.285 11.333-7.188 20.649-2.497 26.471 2.703 15.523 13.88 23.397 47.078 9.055 76.514-1.011 2.066-.152 4.561 1.916 5.569.586.288 1.212.423 1.818.423z" fill="#dddbd0"/><path d="m279.425 147.921c12.519-7.944 22.812-2.762 29.242 2.989 17.149 15.332 25.845 52.007 10.002 84.521-.428.878-.534 1.814-.401 2.707-.428-.055-.855-.155-1.272-.361-.661-.321-1.188-.81-1.581-1.375.036-.548.173-1.097.428-1.617 15.046-30.876 6.787-65.695-9.496-80.252-6.105-5.457-15.874-10.376-27.763-2.839-1.527.97-3.432.87-4.829-.095-.809-1.358-.75-2.99.014-4.264 1.495 1.444 3.827 1.748 5.656.586z" fill="#babab2"/><path d="m285.139 180.899c19.968-14.58 3.475-59.207-35.419-32.293 7.464 8.854 35.419 32.293 35.419 32.293z" fill="#6069af"/><path d="m278.746 171.098c7.964-5.819 9.256-17.128 5.055-25.41 10.45 7.015 11.762 24.681 1.089 32.472 0 0-24.306-20.379-30.794-28.077.153-.112.311-.211.462-.313 9.595 9.091 24.188 21.328 24.188 21.328z" fill="#4550a0"/><path d="m261.086 171.62c9.687 9.03 20.48 13.194 24.106 9.308 3.628-3.892-1.295-14.362-10.982-23.396-9.689-9.029-20.479-13.197-24.102-9.313-3.626 3.893 1.286 14.366 10.978 23.401z" fill="#a09ece"/><path d="m261.828 170.544c8.678 8.093 18.187 12.007 21.229 8.746 3.039-3.263-1.539-12.467-10.226-20.56-8.681-8.094-18.183-12.005-21.225-8.75-3.039 3.263 1.535 12.469 10.222 20.564z" fill="#4550a0"/><path d="m277.048 174.223c2.942-3.15-1.245-11.875-9.391-19.769 1.721 1.249 3.466 2.682 5.174 4.276 8.687 8.093 13.265 17.297 10.226 20.56-3.042 3.261-12.551-.653-21.229-8.746-.285-.268-.56-.525-.827-.79 7 5.083 13.607 7.089 16.047 4.469z" fill="#383f83"/><path d="m276.714 162.729c-3.31 13.563-24.374-1.05-11.477-9.914 2.482 1.574 5.072 3.564 7.594 5.916 1.414 1.315 2.706 2.659 3.883 3.998z" fill="#fff241"/><path d="m270.472 160.731c-1.439-5.223-4.459-6.128-7.227-6.239.543-.57 1.204-1.132 1.992-1.677 2.482 1.574 5.072 3.564 7.594 5.916 1.414 1.316 2.706 2.659 3.883 3.998-1.653 6.754-7.704 6.521-11.772 3.485 2.456-.227 4.638-1.838 5.53-5.483z" fill="#ffdb42"/><path d="m262.857 154.926c-7.133 8.49 9.483 19.475 13.455 9.092l-13.998 47.648-27.532-31.455z" fill="url(#a)"/></svg>