<svg enable-background="new 0 0 400 400" height="400" viewBox="0 0 400 400" width="400" xmlns="http://www.w3.org/2000/svg"><path d="m261.529 334.679s2.181 6.017 1.759 9.616c-.444 3.657-5.299 6.727-13.598 3.509-5.062-.702-12.953-1.353-14.472-14.546.356-4.11 26.311 1.421 26.311 1.421z" fill="#8f494a"/><path d="m235.564 332.592c-.201.184-.324.403-.346.666.774 6.79 3.252 10.249 6.152 12.108.024-.082.073-.141.081-.231-3.012-4.058.858-10.676.858-10.676s-2.831-.841-6.745-1.867z" fill="#e6e7e8"/><path d="m240.678 327.615c-6.007.12-8.846 6.691-3.494 9.862 5.596 3.315 13.188 5.77 20.703 3.803 6.761-1.771 4.389-5.71 3.985-7.67-5.126-2.912-14.743-6.113-21.194-5.995z" fill="#e6e7e8"/><path d="m242.868 327.091c-6.009.115-11.498 3.291-6.131 6.47 5.59 3.317 14.313 5.733 19.935 4.221 5.62-1.507 6.877-3.977 3.051-6.155-5.116-2.91-10.407-4.665-16.855-4.536z" fill="#696969"/><path d="m284.729 232.854s26.088-9.023 35.819-61.634c3.766-.634 5.718-4.489 7.232-10.105 2.308-3.643 3.256-6.513 1.672-7.114-1.636-.614-3.87 3.632-4.576 4.607.033-.194 2.199-5.694 2.593-6.942.906-2.893-1.736-4.125-2.977-1.78-1.024 1.973-3.089 6.645-3.208 6.888.025-.265 1.438-6.262 1.715-7.358.816-3.255-2.676-4.618-3.694-.918-.685 2.52-1.733 6.987-1.929 7.343-.1-.18-.132-3.662-.303-5.724-.281-3.389-3.212-3.611-3.56.256-.271 3.057-1.256 10.343-1.256 10.343s-3.648-3.485-5.543-1.44c-1.911 2.048 4.656 7.945 4.656 7.945s-.345 36.929-33.092 56.534c-4.457 7.891 6.451 9.099 6.451 9.099z" fill="#fbc6a4"/><path d="m280.696 222.213c1.369 1.753 4.492 5.727 7.175 9.07 2.513-1.469 6.29-4.18 10.471-8.803-2.347.915-5.593 1.67-7.388-.223-2.397-2.521.315-7.848 1.532-9.937-3.317 3.531-7.205 6.888-11.79 9.893z" fill="#eaad85"/><path d="m317.32 164.823c-.007 0-.007 0-.007 0-.162-.003-.288-.134-.28-.3.086-2.94-2.748-3.887-4.439-3.979-.151-.002-.273-.145-.271-.303.008-.151.138-.27.292-.27h.017c1.894.103 5.075 1.176 4.973 4.568-.001.159-.133.284-.285.284z" fill="#ce7754"/><path d="m203.654 256.34s-35.427 3.251-68.857-18.405c-3.126 2.216-7.234.858-12.262-2.061-4.204-.944-6.903-2.314-6.204-3.854.73-1.594 5.303-.153 6.486.04-.153-.119-5.57-2.49-6.723-3.094-2.688-1.411-1.684-4.149.843-3.356 2.123.661 6.876 2.523 7.128 2.605-.196-.162-5.429-3.419-6.407-4.007-2.867-1.724-1.362-5.157 1.975-3.243 2.26 1.295 6.157 3.725 6.547 3.839-.057-.2-2.489-2.693-3.817-4.266-2.196-2.602-.283-4.832 2.699-2.334 2.348 1.976 8.188 6.439 8.188 6.439s.118-5.047 2.906-4.929c2.8.098 2.308 8.91 2.308 8.91s25.368 18.34 63.341 16.703c8.732 2.456 1.849 11.013 1.849 11.013z" fill="#fbc6a4"/><path d="m191.759 256.293c7.345.45 11.896.047 11.896.047s6.883-8.557-1.848-11.011c-4.154.181-8.131.083-11.96-.159 4.599 1.002 13.662 8.723 1.912 11.123z" fill="#eaad85"/><path d="m132.358 231.209c-.073 0-.145-.022-.195-.081-2.462-2.335-.969-5.341.302-6.75.104-.12.282-.134.397-.023.122.107.137.29.037.414-1.14 1.247-2.477 3.913-.338 5.945.114.107.114.289.008.397-.067.067-.139.098-.211.098z" fill="#ce7754"/><path d="m243.056 324.139.705 7.508s37.207 3.786 59.001-14.124c-4.149-12.417-4.479-11.369-4.479-11.369s-29.79-7.136-55.227 17.985z" fill="#fbc6a4"/><path d="m243.163 329.358s-.958 7.418.129 22.878c-3.206-2.475-5.979-4.551-8.635-6.118-3.28 1.579-8.868-1.779-11.851 3.694 2.967 27.237 36.942 61.359 64.723 40.836 8.05 2.714 16.84-.913 21.295-13.086 4.926-13.454 1.844-46.938-6.321-61.874-27.237 18.226-59.34 13.67-59.34 13.67z" fill="#134a64"/><path d="m278.976 351.305s9.116.202 9.968 18.012c.21-14.942-.296-17.955 3.138-24.293-3.878 3.307-5.204 5.097-13.106 6.281z" fill="#063a51"/><path d="m305.72 340.915c1.57 7.793 2.928 24.221-.151 32.442-4.534 12.141-12.739 13.42-16.281 5.88-16.17 28.323-56.681 2.153-58.872-21.001-.415-4.042 4.94-6.412 7.189-4.859 5.905 4.108 6.181 15.859 8.75 23.349-1.937-30.484.701-40.031 10.574-41.011 20.464-2.017 34.983-7.104 44.093-16.955-20.454 13.562-43.346 14.623-55.534 13.664-.771 2.303-.642 8.902-1.848 23.447-2.485-4.601-5.563-6.468-8.211-8.019-4.276 2.504-8.002 1.848-10.183 2.846 2.302 25.227 35.646 59.874 63.673 35.221 2.654 4.512 14.589 1.298 17.42-9.144 4.349-16.037 1.919-25.432-.619-35.86z" fill="#063a51"/><path d="m274.905 352.965c-3.726-6.456-9.459-2.874-10.591 4.261-1.125 7.15-3.984 29.06 3.784 30.873s18.939-14.111 6.807-35.134z" fill="#1a5674"/><path d="m303.36 350.388c-1.97-7.165-7.798-7.197-9.875.55-1.874 6.975-3.221 27.354 2.767 27.694 5.256.297 12.334-9.194 7.108-28.244z" fill="#1a5674"/><path d="m246.882 378.177c.028 0 .053 0 .088-.009.113-.034.179-.16.144-.281-3.099-8.975-3.596-25.49-3.604-25.658 0-.131-.097-.237-.225-.223-.122 0-.222.108-.222.238 0 .16.496 16.739 3.614 25.786.032.089.112.138.205.147z" fill="#00293e"/><path d="m285.799 349.492c-.116.046-.177.167-.138.289 1.709 4.844 5.673 30.598 1.64 41.024.079-.065.15-.101.229-.157.093.034.186.05.282.08 3.912-10.697-.024-36.26-1.729-41.1-.028-.114-.166-.179-.284-.136z" fill="#00293e"/><path d="m278.085 351.5c.677.029 8.205.251 13.996-6.477.075-.097.067-.241-.037-.322-.086-.074-.227-.064-.309.027-5.893 6.844-13.581 6.324-13.675 6.324-.108-.031-.23.08-.242.203 0 .121.088.228.204.236.009.001.022.009.063.009z" fill="#00293e"/><path d="m238.772 218.62s2.883 9.686 3.646 12.358c-9.72 5.006-15.445 6.779-15.445 6.779l6.535 14.722 34.671-8.884-1.567-18.325s-6.773 2.281-16.313 3.368c-1.516-5.442-3.467-12.749-3.467-12.749z" fill="#fbc6a4"/><path d="m246.831 215.89-8.059 2.73s2.875 9.64 3.638 12.333c2.775-.638 5.57-1.532 7.764-2.78-1.494-5.385-3.343-12.283-3.343-12.283z" fill="#e5a57c"/><path d="m201.241 242.4c17.057.586 29.148-5.701 36.665-9.403 6.623 12.341 21.347 5.952 17.121-5.008 8.082-.449 21.163-7.912 25.293-11.582 4.73 1.379 12.213 9.192 13.359 16.308.109.669-5.535 5.618-8.97 7.953 9.585 20.489 19.324 46.905 20.974 69.188-15.364 19.22-62.239 19.288-77.368 17.906 7.77-11.769.642-48.997-9.814-64.902-.404-.614-7.776 1.93-15.729.578-1.233-3.671-2.302-13.828-1.531-21.038z" fill="#418e6e"/><path d="m304.411 305.294c-38.999 18.235-59.5 12.194-63.791-5.665-4.138-17.172-8.643-26.182-18.29-41.97-7.33 3.061-17.963 3.021-20.352.742.225 1.327.462 2.528.714 3.513 3.52.842 9.304.354 18.633-1.556 11.979 17.332 17.7 53.725 12.602 62.32 45.155 2.068 64.87-10.816 70.484-17.384z" fill="#2a7153"/><path d="m280.146 216.169s8.797 3.708 14.517 16.105c-.635 2.07-2.705 2.651-2.705 2.651s-5.879-11.295-14.14-16.534c.526-1.061 1.903-1.903 2.328-2.222z" fill="#fff"/><path d="m198.958 242.561s2.653-1.175 4.558-.107c.324 3.976 1.329 18.284 1.165 21.304-1.799 1.375-4.558.319-4.558.319s-.63-10.497-1.165-21.516z" fill="#fff"/><path d="m238.707 232.542c1.271 2.384 7.315 8.101 12.877 5.24 5.566-2.856 2.542-9.538 2.542-9.538s1.111-1.108 3.177-.478c2.867 4.775 1.436 11.135-5.249 13.356-6.674 2.229-13.028-1.424-16.366-7.153.312-1.59 3.019-1.427 3.019-1.427z" fill="#fff"/><path d="m236.359 337.004s2.177 6.017 1.749 9.636c-.439 3.646-5.288 6.707-13.599 3.497-5.062-.699-12.942-1.358-14.466-14.559.356-4.099 26.316 1.426 26.316 1.426z" fill="#8f494a"/><path d="m210.399 334.929c-.209.179-.331.396-.355.649.779 6.799 3.257 10.258 6.162 12.119.012-.08.065-.141.077-.237-3.008-4.062.854-10.68.854-10.68s-2.84-.83-6.738-1.851z" fill="#e6e7e8"/><path d="m215.512 329.951c-6.001.122-8.859 6.679-3.489 9.854 5.578 3.316 13.174 5.764 20.691 3.803 6.764-1.761 4.39-5.714 3.978-7.665-5.121-2.921-14.732-6.125-21.18-5.992z" fill="#e6e7e8"/><path d="m217.698 329.419c-6.007.117-11.502 3.289-6.138 6.47 5.597 3.317 14.328 5.73 19.94 4.225 5.618-1.514 6.874-3.981 3.053-6.151-5.111-2.924-10.406-4.667-16.855-4.544z" fill="#696969"/><path d="m278.039 99.033c13.952 20.069 35.276 86.67-22.138 120.45-57.107 33.587-103.426.834-125.364-39.276-26.467-48.397 4.63-92.512 39.394-108.251 54.246-24.583 89.437.167 108.108 27.077z" fill="#fbc6a4"/><path d="m259.272 160.96c1.799 5.513 11.188 7.303 18.942 2.671 7.738-4.623 10.129-12.707 7.587-19.176-2.318-5.899-11.431-8.482-17.821.179-5.969 8.09-10.581 10.582-8.708 16.326z" fill="#f8af9a"/><path d="m278.515 145.273c.25.721 1.214 1.014 2.138.685.924-.331 1.471-1.187 1.208-1.904-.266-.718-1.22-1.021-2.153-.683-.922.333-1.461 1.192-1.193 1.902z" fill="#fcd8c1"/><path d="m228.671 157.011c.268.724 1.362.979 2.463.578 1.088-.39 1.775-1.295 1.499-2.007-.259-.713-1.351-.963-2.446-.572-1.1.395-1.764 1.299-1.516 2.001z" fill="#fcd8c1"/><path d="m168.147 197.246c2.974 7.37 11.964 10.047 21.893 7.09 9.556-2.856 16.618-13.3 12.488-19.656-3.952-6.056-8.269-1.94-20.554-2.067-11.883-.139-16.824 7.282-13.827 14.633z" fill="#f8af9a"/><path d="m173.419 191.049c.278.679 1.191.933 2.084.574.859-.357 1.343-1.175 1.077-1.845-.267-.668-1.192-.929-2.066-.58-.872.351-1.369 1.18-1.095 1.851z" fill="#fcd8c1"/><path d="m249.757 104.099c-9.575-.746-9.469 9.6-3.469 8.42 6.456-1.281 12.328-.019 13-.798 1.503-1.718-4.157-7.203-9.531-7.622z" fill="#b75127"/><path d="m169.655 135.598c6.501-7.06 13.46.583 8.254 3.806-5.59 3.45-9.026 8.374-10.075 8.268-2.26-.242-1.833-8.119 1.821-12.074z" fill="#b75127"/><path d="m251.526 167.323s12.014 32.437-10.746 41.633c-22.749 9.172-28.201-24.581-28.201-24.581s18.344-.113 38.947-17.052z" fill="#4d1f1c"/><path d="m231.264 179.688c1.515 8.384 1.897 20.724-6.146 28.315-9.777-6.551-12.538-23.628-12.538-23.628s7.703-.078 18.684-4.687z" fill="#321514"/><path d="m252.53 197.479c-1.504 5.076-6 9.349-12.163 11.839-11.265 4.531-18.378-1.796-22.084-8.993.516-1.732 3.871-4.296 8.055-3.388 2.489-7.399 18.413-5.986 26.192.542z" fill="#ec756c"/><path d="m222.185 198.657c1.619-1.151 3.994-1.219 5.118-.854.448-1.523 1.387-3.362 4.892-4.264 8.693-2.338 21.489 4.386 11.259 11.247-10.344 6.942-27.3-1.859-21.269-6.129z" fill="#f48f87"/><path d="m240.426 195.259c-2.262-1.46-7.17-1.623-8.183-.139-1.228 1.777 3.28 3.195 6.01 2.954 2.737-.243 3.631-1.887 2.173-2.815z" fill="#f7b0ad"/><path d="m245.285 171.989c1.74 3.267 1.79 6.086-2.432 9.04-3.943 2.754-10.025 5.498-14.45 6.547-5.287 1.259-8.444-.443-9.021-4.113 10.983-3.449 16.719-5.732 25.903-11.474z" fill="#fff"/><path d="m233.347 165.305c-.18.053-.366 0-.48-.147-.152-.196-.138-.477.066-.634 3.42-2.707 2.672-5.786 2.194-6.992-.939-2.307-3.157-3.905-5.191-3.727-2.155.207-3.734 2.287-4.464 5.861-.03.241-.275.393-.508.35-.245-.041-.413-.282-.348-.521 1.078-5.397 3.749-6.452 5.238-6.576 2.405-.223 5.023 1.624 6.101 4.285 1.148 2.887.217 5.883-2.471 8.025-.041.03-.098.06-.137.076z" fill="#ce7754"/><path d="m178.409 172.442c-.441-.036-.801-.356-.913-.809-2.091-10.108 3.823-18.515 10.647-20.025 4.513-.994 10.022 1.023 12.023 9.642.128.558-.216 1.107-.764 1.232-.559.134-1.093-.219-1.223-.767-1.416-6.086-5.012-9.123-9.598-8.114-5.871 1.303-10.941 8.69-9.097 17.624.13.542-.233 1.091-.782 1.213-.098.024-.213.018-.293.004z" fill="#6b4432"/><path d="m244.001 144.592c-.448-.037-.809-.359-.91-.812-2.108-10.107 3.813-18.513 10.639-20.022 4.513-.993 10.021 1.021 12.016 9.641.13.556-.201 1.105-.757 1.233-.55.135-1.092-.218-1.223-.768-1.417-6.087-5.013-9.122-9.597-8.116-5.872 1.303-10.934 8.692-9.094 17.628.118.54-.245 1.093-.779 1.208-.108.025-.217.02-.295.008z" fill="#6b4432"/><path d="m143.421 207.78c6.051 3.319 11.617-9.383 2.535-12.366 12.262-5.402 7.646-22.017-2.34-24.025 7.371-3.768 4.13-12.032-4.04-11.46 10.922-7.498 17.29-24.053 6.211-31.441 12.399 5.553 15.144-6.56 12.537-13.843 7.873 7.078 40.42-15.219 33.869-27.562 12.173 16.588 21.462 2.486 22.848-5.434 2.564 16.003 26.555 7.611 28.814-1.288 5.048 13.863 15.267 10.873 16.58 4.105 4.14 10.3 10.728 8.887 11.878 7.459 6.729 8.697 11.841 21.597 16.084 30.212 9.085-.044 14.442-19.177 5.395-25.949 8.363-11.991-1.555-20.362-5.029-23.634 6.415-6.051-.459-24.19-9.468-21.897 7.037-17.779-16.576-42.842-38.32-33.168 2.478-22.971-21.13-15.066-21.059.064-19.858-21.448-51.72-5.383-52.377 8.414-13.808-21.476-21.008-2.224-17.519 2.565-16.56-21.896-36.72 5.948-21.208 13.359-20.039-2.85-38.52 22.681-37.02 38.957-16.248-11.76-21.409 9.622-2.011 9.982-27.438 11.158-23.196 46.165-7.99 44.937-15.851 15.024-1.51 48.087 18.198 33.744-3.467 5.796.037 11.093 7.685 8.389-8.407 10.539 3.221 23.028 10.154 22.021 2.81 17.146 18.929 9 18.929 9s.062-4.746 6.664-1.141z" fill="#d67728"/><g fill="#b75127"><path d="m289.1 87.514c-5.038-.359-11.682-11.553-9.11-22.215-1.884 9.72-20.525 5.331-27.771-14.577-3.265 12.8-28.106 25.031-31.79 2.03-1.993 11.394-20.478 33.375-37.962 9.548 9.411 17.733-27.715 35.387-39.012 25.2 3.756 10.469-9.56 31.359-27.368 23.384 21.179 22.847 7.321 48.476-.382 49.933 11.755-.818 17.619 9.344 7.018 14.767 9.563 1.91-4.289 21.275-12.37 5.915 5.105 11.586 7.605 16.496 11.762 13.932 2.55 14.49 11.449 12.729 11.449 12.729s2.982-3.658 9.356-.609c-.209-2.661-1.733-5.234-5.387-6.424 13.897-6.122 8.674-24.971-2.634-27.234 8.354-4.283 6.78-14.545-2.515-13.896 13.304-14.235 12.319-28.533 2.195-36.256 14.041 6.287 19.955-5.943 17-14.211 8.892 8.041 45.831-17.259 38.397-31.238 13.8 18.804 24.329 2.811 25.91-6.183 2.905 18.155 30.095 8.656 32.679-1.447 5.719 15.717 17.32 12.337 18.789 4.662 4.702 11.684 8.801 13.381 10.105 11.768.456 5.629 6.09 13.42 12.98 29.49 3.638-.27 5.644-14.056-.667-13.583 2.097-2.647 1.62-6.475-.672-15.485z"/><path d="m120.679 73.873c-9.662-11.172-3.229-29.093 17.188-18.766-20.653-.803-17.188 18.766-17.188 18.766z"/><path d="m245.301 33.527c1.942-19.127 18.198-16.537 18.675 6.334-8.99-18.597-18.675-6.334-18.675-6.334z"/><path d="m99.664 129.386c-24.833 2.856-20.478-20.215.111-15.228-18.027 10.123-.111 15.228-.111 15.228z"/><path d="m197.986 30.48c-5.093-24.467 18.27-22.239 15.186-1.296-11.735-17.013-15.186 1.296-15.186 1.296z"/></g><path d="m147.238 186.902s-8.043-7.784-18.061-1.808c-10.555 6.299-3.679 22.499 8.439 27.082 12.124 4.569 23.923-2.413 21.728-11.809z" fill="#fbc6a4"/><path d="m130.827 185.207c2.562-1.512 4.967-2.069 7.103-2.09-1.693.077-3.415.54-5.068 1.63-9.632 6.307-2.853 17.957 5.02 22.227 10.644 5.766 20.184.431 21.194-7.599 2.066 8.749-9.02 15.274-20.385 11.044-11.346-4.257-17.759-19.337-7.864-25.212z" fill="#eaad85"/><path d="m130.384 190.351c5.208-6.143 20.417 2.646 17.232 15.857-3.611-11.781-9.337-12.314-10.391-4.538-2.268-2.973-2.202-6.037 1.816-8.639-3.386-3.65-8.657-2.68-8.657-2.68z" fill="#eaad85"/></svg>