<svg enable-background="new 0 0 472.417 472.417" viewBox="0 0 472.417 472.417" xmlns="http://www.w3.org/2000/svg"><path d="m236.25 112.208c-127.922 0-232 111.25-232 248 0 4.422 3.578 8 8 8s8-3.578 8-8c0-13.638 1.111-27.001 3.223-40h86.372c-1.045 12.995-1.595 26.35-1.595 40 0 4.422 3.578 8 8 8s8-3.578 8-8c0-13.599.602-26.968 1.749-40h102.251v40c0 4.422 3.578 8 8 8s8-3.578 8-8v-40h102.251c1.146 13.033 1.749 26.401 1.749 40 0 4.422 3.578 8 8 8s8-3.578 8-8c0-13.65-.549-27.005-1.595-40h86.372c2.112 12.999 3.223 26.362 3.223 40 0 4.422 3.578 8 8 8s8-3.578 8-8c0-136.75-104.078-248-232-248zm184.799 128h-72.275c-4.872-17.421-10.787-33.52-17.598-48h53.889c13.873 14.183 25.996 30.322 35.984 48zm-117.521-64h-59.278v-47.373c21.976 3.394 42.426 20.621 59.278 47.373zm-75.278-47.373v47.373h-59.278c16.852-26.752 37.302-43.979 59.278-47.373zm0 63.373v48h-87.289c5.281-17.637 11.666-33.785 18.936-48zm16 0h68.353c7.27 14.215 13.655 30.363 18.936 48h-87.289zm123.397-16h-44.733c-9.173-16.181-19.603-29.753-31.008-40.177 27.851 7.985 53.499 21.81 75.741 40.177zm-218.061 0h-44.733c22.242-18.367 47.891-32.192 75.741-40.177-11.406 10.424-21.835 23.996-31.008 40.177zm-62.151 16h53.889c-6.811 14.48-12.726 30.579-17.598 48h-72.275c9.988-17.678 22.112-33.817 35.984-48zm-60.808 112c3.89-16.793 9.486-32.867 16.582-48h76.427c-3.536 15.196-6.312 31.251-8.235 48zm101.076 0c2.091-16.746 5.087-32.829 8.873-48h91.674v48zm116.547 0v-48h91.674c3.786 15.171 6.782 31.254 8.873 48zm116.85 0c-1.924-16.749-4.7-32.804-8.235-48h76.427c7.096 15.133 12.692 31.207 16.582 48z" fill="#d25566"/><circle cx="236.25" cy="312.208" fill="#ffc855" r="16"/><path d="m232 312.208c0-6.758 4.202-12.506 10.125-14.852-1.822-.723-3.796-1.148-5.875-1.148-8.836 0-16 7.163-16 16 0 8.836 7.164 16 16 16 2.079 0 4.053-.426 5.875-1.148-5.923-2.346-10.125-8.094-10.125-14.852z" fill="#ffb44b"/><circle cx="236.25" cy="248.208" fill="#ffc855" r="16"/><path d="m232 248.208c0-6.758 4.202-12.506 10.125-14.852-1.822-.723-3.796-1.148-5.875-1.148-8.836 0-16 7.163-16 16 0 8.836 7.164 16 16 16 2.079 0 4.053-.426 5.875-1.148-5.923-2.346-10.125-8.094-10.125-14.852z" fill="#ffb44b"/><circle cx="343.25" cy="248.208" fill="#ffc855" r="16"/><path d="m339 248.208c0-6.758 4.202-12.506 10.125-14.852-1.822-.723-3.796-1.148-5.875-1.148-8.836 0-16 7.163-16 16 0 8.836 7.164 16 16 16 2.079 0 4.053-.426 5.875-1.148-5.923-2.346-10.125-8.094-10.125-14.852z" fill="#ffb44b"/><circle cx="130.25" cy="248.208" fill="#ffc855" r="16"/><path d="m126 248.208c0-6.758 4.202-12.506 10.125-14.852-1.822-.723-3.796-1.148-5.875-1.148-8.836 0-16 7.163-16 16 0 8.836 7.164 16 16 16 2.079 0 4.053-.426 5.875-1.148-5.923-2.346-10.125-8.094-10.125-14.852z" fill="#ffb44b"/><circle cx="36.25" cy="248.208" fill="#ffc855" r="16"/><path d="m32 248.208c0-6.758 4.202-12.506 10.125-14.852-1.822-.723-3.796-1.148-5.875-1.148-8.836 0-16 7.163-16 16 0 8.836 7.164 16 16 16 2.079 0 4.053-.426 5.875-1.148-5.923-2.346-10.125-8.094-10.125-14.852z" fill="#ffb44b"/><circle cx="436.25" cy="248.208" fill="#ffc855" r="16"/><path d="m432 248.208c0-6.758 4.202-12.506 10.125-14.852-1.822-.723-3.796-1.148-5.875-1.148-8.836 0-16 7.163-16 16 0 8.836 7.164 16 16 16 2.079 0 4.053-.426 5.875-1.148-5.923-2.346-10.125-8.094-10.125-14.852z" fill="#ffb44b"/><circle cx="456.417" cy="312.208" fill="#ffc855" r="16"/><path d="m452.167 312.208c0-6.758 4.202-12.506 10.125-14.852-1.822-.723-3.796-1.148-5.875-1.148-8.836 0-16 7.163-16 16 0 8.836 7.164 16 16 16 2.079 0 4.053-.426 5.875-1.148-5.923-2.346-10.125-8.094-10.125-14.852z" fill="#ffb44b"/><circle cx="16" cy="312.208" fill="#ffc855" r="16"/><path d="m11.75 312.208c0-6.758 4.202-12.506 10.125-14.852-1.822-.723-3.796-1.148-5.875-1.148-8.836 0-16 7.163-16 16 0 8.836 7.164 16 16 16 2.079 0 4.053-.426 5.875-1.148-5.923-2.346-10.125-8.094-10.125-14.852z" fill="#ffb44b"/><circle cx="236.25" cy="184.208" fill="#ffc855" r="16"/><path d="m232 184.208c0-6.758 4.202-12.506 10.125-14.852-1.822-.723-3.796-1.148-5.875-1.148-8.836 0-16 7.163-16 16 0 8.836 7.164 16 16 16 2.079 0 4.053-.426 5.875-1.148-5.923-2.346-10.125-8.094-10.125-14.852z" fill="#ffb44b"/><circle cx="236.25" cy="120.208" fill="#ffc855" r="16"/><path d="m232 120.208c0-6.758 4.202-12.506 10.125-14.852-1.822-.723-3.796-1.148-5.875-1.148-8.836 0-16 7.163-16 16 0 8.836 7.164 16 16 16 2.079 0 4.053-.426 5.875-1.148-5.923-2.346-10.125-8.094-10.125-14.852z" fill="#ffb44b"/><circle cx="153.25" cy="184.208" fill="#ffc855" r="16"/><path d="m149 184.208c0-6.758 4.202-12.506 10.125-14.852-1.822-.723-3.796-1.148-5.875-1.148-8.836 0-16 7.163-16 16 0 8.836 7.164 16 16 16 2.079 0 4.053-.426 5.875-1.148-5.923-2.346-10.125-8.094-10.125-14.852z" fill="#ffb44b"/><circle cx="319.25" cy="184.208" fill="#ffc855" r="16"/><path d="m315 184.208c0-6.758 4.202-12.506 10.125-14.852-1.822-.723-3.796-1.148-5.875-1.148-8.836 0-16 7.163-16 16 0 8.836 7.164 16 16 16 2.079 0 4.053-.426 5.875-1.148-5.923-2.346-10.125-8.094-10.125-14.852z" fill="#ffb44b"/><circle cx="388.25" cy="184.208" fill="#ffc855" r="16"/><path d="m384 184.208c0-6.758 4.202-12.506 10.125-14.852-1.822-.723-3.796-1.148-5.875-1.148-8.836 0-16 7.163-16 16 0 8.836 7.164 16 16 16 2.079 0 4.053-.426 5.875-1.148-5.923-2.346-10.125-8.094-10.125-14.852z" fill="#ffb44b"/><circle cx="84.25" cy="184.208" fill="#ffc855" r="16"/><path d="m80 184.208c0-6.758 4.202-12.506 10.125-14.852-1.822-.723-3.796-1.148-5.875-1.148-8.836 0-16 7.163-16 16 0 8.836 7.164 16 16 16 2.079 0 4.053-.426 5.875-1.148-5.923-2.346-10.125-8.094-10.125-14.852z" fill="#ffb44b"/><circle cx="353.75" cy="312.208" fill="#ffc855" r="16"/><path d="m349.5 312.208c0-6.758 4.202-12.506 10.125-14.852-1.822-.723-3.796-1.148-5.875-1.148-8.836 0-16 7.163-16 16 0 8.836 7.164 16 16 16 2.079 0 4.053-.426 5.875-1.148-5.923-2.346-10.125-8.094-10.125-14.852z" fill="#ffb44b"/><circle cx="119.75" cy="312.208" fill="#ffc855" r="16"/><path d="m115.5 312.208c0-6.758 4.202-12.506 10.125-14.852-1.822-.723-3.796-1.148-5.875-1.148-8.836 0-16 7.163-16 16 0 8.836 7.164 16 16 16 2.079 0 4.053-.426 5.875-1.148-5.923-2.346-10.125-8.094-10.125-14.852z" fill="#ffb44b"/></svg>