<svg enable-background="new 732.859 666.474 838.462 408.975" height="408.975" viewBox="732.859 666.474 838.462 408.975" width="838.462" xmlns="http://www.w3.org/2000/svg"><path d="m1569.227 1055.511s-3.248-.333-9.343-.956c-6.091-.538-15.026-1.476-26.401-2.386-22.744-1.896-55.236-4.229-94.227-6.305-38.992-2.085-84.48-3.914-133.22-5.14-12.187-.358-24.573-.586-37.113-.815-12.54-.256-25.232-.485-38.027-.596-25.588-.374-51.582-.427-77.576-.521-25.995.092-51.989.121-77.577.497-12.794.113-25.485.313-38.025.584-12.54.245-24.929.44-37.113.808-48.738 1.217-94.229 3.044-133.22 5.137-38.99 2.081-71.483 4.425-94.229 6.333-11.372.915-20.308 1.854-26.4 2.396-6.093.627-9.342.963-9.342.963s3.249.334 9.342.96c6.093.546 15.028 1.485 26.4 2.399 22.745 1.908 55.238 4.251 94.229 6.331 38.991 2.093 84.481 3.922 133.22 5.138 12.186.364 24.573.563 37.113.809 12.541.271 25.231.469 38.025.581 25.588.376 51.582.406 77.577.497 25.994-.095 51.988-.146 77.576-.52 12.795-.11 25.487-.34 38.027-.595 12.54-.232 24.928-.458 37.113-.817 48.738-1.227 94.228-3.053 133.22-5.143 38.989-2.071 71.481-4.404 94.227-6.302 11.375-.907 20.312-1.843 26.401-2.385 6.095-.62 9.343-.952 9.343-.952z" fill="#013e4c"/><path d="m1117.996 714.37h-139.862c-8.985 0-16.271 7.284-16.271 16.27v62.164h172.404v-62.164c.001-8.986-7.284-16.27-16.271-16.27z" fill="#035e77"/><path d="m756.309 1029.34h7.438v-60.182c0-1.783.602-3.544 1.695-4.954l159.411-206.092c1.523-1.97 3.918-3.146 6.407-3.146h30.604v-7.438h-30.604c-4.773 0-9.368 2.257-12.29 6.029l-159.412 206.09c-2.096 2.712-3.249 6.09-3.249 9.511z" fill="#157c1f"/><path d="m1169.077 831.451v230.559h-55.223v-123.422c0-28.202-22.863-51.069-51.069-51.069h-31.528c-28.205 0-51.068 22.867-51.068 51.069v123.422h-55.221v-230.559c0-21.347 17.302-38.647 38.646-38.647h166.817c21.345 0 38.646 17.3 38.646 38.647z" fill="#157c1f"/><path d="m1416.685 1062.01c6.163 0 11.156-4.993 11.156-11.157 0-6.161-4.993-11.157-11.156-11.157-104.754 0-230.75-186.929-232.011-188.817-2.071-3.098-5.553-4.962-9.279-4.962h-282.377c-6.162 0-11.159 4.995-11.159 11.16 0 6.161 4.998 11.156 11.159 11.156h276.484c21.797 31.425 139.614 193.777 247.183 193.777z" fill="#a50229"/><path d="m1416.685 1062.01h83.653c6.164 0 6.162-22.314 0-22.314-127.149 0-240.74-186.929-241.999-188.817-2.072-3.098-5.553-4.962-9.279-4.962h-356.042c-6.162 0-11.159 4.995-11.159 11.16 0 6.161 4.998 11.156 11.159 11.156h276.484c21.797 31.425 139.614 193.777 247.183 193.777z" fill="#a50229"/><path d="m821.159 1062.01h12.048l150.098-193.779h-12.048z" fill="#f28e00"/><path d="m741.727 1062.01h12.048l150.096-193.779h-12.048z" fill="#f28e00"/><path d="m1505.946 1062.01c6.161 0 11.155-4.993 11.155-11.157 0-6.161-4.994-11.157-11.155-11.157-104.755 0-230.754-186.929-232.012-188.817-2.072-3.098-5.553-4.962-9.28-4.962h-282.377c-6.161 0-11.157 4.995-11.157 11.16 0 6.161 4.996 11.156 11.157 11.156h276.484c21.797 31.425 139.617 193.777 247.185 193.777z" fill="#c4001d"/><path d="m1258.339 831.451v230.559h-55.223v-123.422c0-28.202-22.864-51.069-51.071-51.069h-31.526c-28.205 0-51.069 22.867-51.069 51.069v123.422h-55.223v-230.559c0-21.347 17.303-38.647 38.646-38.647h166.816c21.345 0 38.65 17.3 38.65 38.647z" fill="#199029"/><circle cx="1038.821" cy="856.059" fill="#a50229" r="5.053"/><circle cx="1232.276" cy="856.059" fill="#a50229" r="5.053"/><path d="m856.062 907.955h91.438c4.493 0 8.134-3.642 8.134-8.135v-2.452c0-4.493-3.642-8.133-8.134-8.133h-91.438c-4.493 0-8.133 3.64-8.133 8.133v2.452c0 4.493 3.64 8.135 8.133 8.135z" fill="#a50229"/><path d="m929.074 907.955h28.045c4.492 0 8.136-3.642 8.136-8.135v-2.452c0-4.493-3.644-8.133-8.136-8.133h-28.045c-4.492 0-8.134 3.64-8.134 8.133v2.452c.001 4.493 3.641 8.135 8.134 8.135z" fill="#c4001d"/><path d="m819.884 954.659h91.438c4.492 0 8.134-3.643 8.134-8.135v-2.455c0-4.493-3.642-8.135-8.134-8.135h-91.438c-4.493 0-8.134 3.642-8.134 8.135v2.455c0 4.494 3.641 8.135 8.134 8.135z" fill="#a50229"/><path d="m892.896 954.659h28.045c4.494 0 8.134-3.643 8.134-8.135v-2.455c0-4.493-3.641-8.135-8.134-8.135h-28.045c-4.491 0-8.133 3.642-8.133 8.135v2.455c.001 4.494 3.642 8.135 8.133 8.135z" fill="#c4001d"/><path d="m765.758 838.093s-.227 4.963 55.912 4.963c56.137 0 57.405-4.333 57.405-4.333s-4.902-23.905 13.55-65.029c20.447-45.575-10.262-54.456-10.262-54.456h-110.945s-5.845 21.264-2.887 56.014c3.166 37.201-2.773 62.841-2.773 62.841z" fill="#f75f23"/><path d="m817.238 920.032c-4.004-1.524-6.715 1.12-8.494 4.97-7.024 15.209-4.891 20.2-14.715 45.197-.563 2.583 1.028 5.252 3.556 5.959 2.381.668 4.255-1.154 5.185-3.081 9.065-18.831 19.396-42.913 19.396-42.913 1.281-4.072-.926-8.609-4.928-10.132z" fill="#f9bf8c"/><path d="m791.066 974.977 19.422 6.977 4.778-.017s.395-2.224-2.119-2.836c-.771-.187-1.598-.379-2.435-.563-.857-.193-2.457-1.792-3.611-2.954-.54-.546-1.385-1.379-1.654-1.705l-1.051-1.389-1.485-.479c-1.133.663-2.411.749-5.129.022-2.063-.552-3.517-2.816-3.517-2.816s-.295-.052-.479.14c-.183.188-1.135 1.093-1.725 2.533-.516 1.26-.995 3.087-.995 3.087z" fill="#7b6451"/><path d="m790.291 978.9 19.721 6.751c.526.182 1.082.263 1.64.261h3.171c.459 0 .829-.374.828-.834l-.014-3.108c-.001-.288-.188-.531-.465-.604-.225-.058-2.076.158-4.645-.188-2.555-.34-18.404-7.073-19.063-7.115-.29-.02-.546.158-.636.434l-1.076 3.357c-.138.439.102.908.539 1.046z" fill="#edeeef"/><path d="m802.51 973.776 1.988.205.152-3.505c.049-1.128.133-1.979-.125-2.007-.443.035-.792.341-1.228 1.878z" fill="#7b6451"/><path d="m803.593 974.396.917-.233-.678.674c-.089.087-.066.284.035.449 0 0 0 .009.001.011.001.004.004.004.005.005.001.004.001.005.001.005.005.011.008.011.011.012.085.176.236.299.354.27l.917-.234-.677.674c-.093.089-.072.302.045.473.104.153.25.221.347.166.01-.005.021-.013.028-.021l1.638-1.628c-.216-.218-.424-.429-.613-.625l-.809.207.518-.516c-.067-.074-.144-.155-.187-.204l-.455-.603-1.693.433c-.13.035-.157.214-.078.404.083.185.248.314.373.281z" fill="#edeeef"/><path d="m834.875 897.521-12.081 31.173c-.948 2.998-4.716 5.688-9.084 3.947-2.753-1.097-4.411-4.134-3.851-6.654 5.113-22.932 2.192-18.57 7.161-33.229l.001-.009c1.094-4.989 6.024-8.149 11.014-7.056 4.991 1.091 8.15 6.022 7.059 11.014-.062.272-.138.554-.219.814z" fill="#f9bf8c"/><path d="m800.85 938.922c3.547 3.546 18.773 8.113 19.702 5.519l4.53-11.156 14.582-38.73s-1.723-8.264-9.914-11.278c-4.682-1.724-12.017.125-13.702 4.819-.061.166-7.637 32.356-8.779 35.342-4.647 12.134-6.419 15.484-6.419 15.484z" fill="#8ac622"/><path d="m813.827 811.312c-5.165 7.229-10.311 14.677-14.38 22.584-1.544 3.004-5.719 8.363-4.46 12.021 1.49 4.324 6.446 3.615 8.72.508 5.524-7.548 10.563-15.372 16.153-23.715 1.834-2.735 4.98-6.271 3.788-9.926-1.4-4.285-7.22-5.105-9.821-1.472z" fill="#f4b489"/><path d="m797.025 848.557c6.287 4.668 13.099 10.017 16.765 12.439 2.047 1.354 4.612 4.334 7.308 3.063 2.925-1.376 2.985-5.351.596-6.905-3.943-2.565-10.639-9.617-16.552-14.578-2.003-1.684-4.574-3.62-7.379-2.233-3.199 1.581-3.575 6.094-.738 8.214z" fill="#f4b489"/><path d="m838.825 898.565h-12.153c-5.854 0-10.653-4.806-10.722-10.729l-.168-14.346h38.077l.168 14.346c.127 10.729-7.277 10.729-15.202 10.729z" fill="#8ac622"/><path d="m868.964 886.103c4.272-.232 8.171 2.386 8.704 5.848 0 0 .657 21.411.271 38.489-.04 1.749-.984 3.74-3.425 4.057-2.593.335-5.153-1.104-5.718-3.216-1.498-21.918-5.52-24.897-5.479-38.587.01-3.47 1.371-6.356 5.647-6.591z" fill="#f9bf8c"/><path d="m866.877 931.882 25.358 1.323s.521-2.202-1.958-2.951c-2.525-.766-5.662-1.601-7.734-2.118-.744-.187-1.441-.529-2.045-1.001l-1.371-1.07-1.562-.084c-.925.931-2.137 1.343-4.952 1.337-2.135-.006-4.117-1.824-4.117-1.824s-.301.028-.43.256c-.127.231-.815 1.349-1.018 2.893-.176 1.35-.171 3.239-.171 3.239z" fill="#7b6451"/><path d="m867.133 935.873 24.442 1.277c.458.022.849-.331.872-.789l.158-3.105c.016-.286-.158-.54-.431-.628-.827-.261-24.264-1.906-25.146-1.73-.284.056-.487.291-.502.579l-.181 3.523c-.022.457.33.85.788.873z" fill="#edeeef"/><path d="m877.852 928.219 1.952-.436-.966-3.372c-.312-1.083-.501-1.92-.753-1.862-.412.173-.644.571-.57 2.167z" fill="#7b6451"/><path d="m878.706 928.161.821-.469-.473.83c-.063.106.01.292.153.423.003.002.003.007.005.011l.006.005c.002 0 .002.002.002.002.006.005.01.005.012.009.129.146.311.225.415.162l.822-.47-.475.828c-.063.112.013.313.17.442.143.121.301.147.378.068.008-.008.016-.019.021-.028l1.16-2.03.089-.055c-.278-.106-.545-.239-.804-.392l-.782.446.394-.69c-.064-.044-.137-.077-.198-.124l-.596-.466-1.589.909c-.115.07-.097.249.031.41.132.164.328.246.438.179z" fill="#edeeef"/><path d="m864.238 908.744c.17 2.537 16.248-5.584 15.571-8.463l-2.688-11.196c-.248-.417-2.109-3.93-7.645-5.737l-33.696-10.021s-6.461 1.182-7.515 9.845c-.604 4.954 2.231 14.974 7.188 15.536.241.025 12.913-.886 25.548 1.141 1.869.299 3.237 8.895 3.237 8.895z" fill="#8ac622"/><path d="m826.995 816.49s1.972-2.383-2.925-5.748c-2.3-1.58-5.361-3.972-9.91-.929-6.929 4.638-12.552 14.852-12.552 14.852l12.166 9.619z" fill="#e5e5e5"/><path d="m855.424 879.817s-8.866 1.573-21.869 1.381c-13.004-.198-20.292-1.774-20.292-1.774l-4.544-52.993c-.854-9.942 5.5-19.073 15.116-21.742 3.641-1.013 7.615-1.63 11.622-1.401 4 .595 16.608 8.646 16.584 14.2z" fill="#f7f7f7"/><path d="m843.381 808.215s-.455 2.793-11.389 2.793c-11.12 0-11.545-4.171-11.545-4.171l-.099-25.407h22.981z" fill="#f9cea0"/><path d="m834.859 828.299c1.214 8.801 3.321 17.569 5.071 26.288.814 4.059 2.061 14.212 5.488 16.003 4.054 2.118 6.975-3.45 6.491-7.271-1.173-9.28-3.166-20.982-4.837-30.887-.548-3.245-.691-7.979-4.067-9.813-3.962-2.148-8.755 1.255-8.146 5.68z" fill="#f9bf8c"/><path d="m844.721 869.886c6.036 4.987 12.563 10.683 16.097 13.29 1.976 1.458 4.38 4.567 7.139 3.439 2.993-1.225 3.259-5.19.953-6.867-3.805-2.767-10.127-10.156-15.773-15.417-1.915-1.782-4.381-3.854-7.254-2.611-3.276 1.413-3.887 5.9-1.162 8.166z" fill="#f9bf8c"/><path d="m848.002 822.619s-.872-9.055-8.305-8.075c-3.748.495-6.456 3.503-6.366 5.533.372 8.273 1.694 18.379 1.694 18.379l15.371-2.449z" fill="#fff"/><path d="m867.981 879.076s5.545 2.311 7.507 5.059c1.633 2.284.103 3.556-2.17 5.212-2.271 1.659-4.583 1.493-5.911.461-2.049-1.593-3.402-3.515-3.851-4.509-.683-1.516 4.425-6.223 4.425-6.223z" fill="#f9bf8c"/><path d="m877.541 890.617c.182-.036.355-.112.514-.234.565-.429.68-1.233.25-1.803-1.969-2.608-6.787-7.204-6.992-7.396-.514-.493-1.33-.474-1.821.046-.489.513-.471 1.33.045 1.819.048.046 4.87 4.646 6.714 7.084.31.41.818.581 1.29.484z" fill="#f9bf8c"/><path d="m875.639 887.202c.423.222.951.201 1.361-.104.572-.42.697-1.227.276-1.8-.657-.893-1.301-2.34-2.252-2.816-2.707-1.371-5.002-2.403-5.132-2.461-.646-.295-1.409-.004-1.701.646s-.004 1.412.646 1.701c.03.016 2.213 1 4.8 2.298.998.502.875 1.221 1.561 2.155.12.166.272.292.441.381z" fill="#f9bf8c"/><path d="m876.033 892.629c.179-.047.35-.133.5-.26.544-.459.613-1.271.156-1.817-2.063-2.45-6.737-7.966-6.737-7.966l-1.965 1.664s4.67 5.517 6.73 7.963c.332.394.851.536 1.316.416z" fill="#f9bf8c"/><path d="m874.36 894.531c.18-.041.354-.121.507-.244.559-.441.65-1.253.21-1.812-1.953-2.457-6.083-8.134-6.125-8.188-.419-.578-1.225-.704-1.798-.287-.576.418-.704 1.226-.285 1.799.172.237 4.207 5.78 6.189 8.281.321.402.834.562 1.302.451z" fill="#f9bf8c"/><path d="m872.713 895.611c.08-.031.156-.07.229-.123.434-.315.527-.919.213-1.353-1.934-2.655-5.294-6.592-5.437-6.758-.347-.408-.957-.453-1.361-.105-.406.348-.454.958-.106 1.359.033.042 3.451 4.043 5.343 6.643.261.36.721.486 1.119.337z" fill="#f9bf8c"/><path d="m776.666 740.041c0 35.49 22.803 64.261 58.293 64.261 35.491 0 64.264-28.771 64.264-64.261 0-35.492-28.771-64.264-64.264-64.264-35.491 0-58.293 28.771-58.293 64.264z" fill="#f9cea0"/><path d="m840.578 771.254c0 2.985 2.779 4.751 6.209 4.751 3.429 0 6.207-1.766 6.207-4.751 0-2.983-1.281.881-6.207.881s-6.209-3.864-6.209-.881z" fill="#f2b47c"/><ellipse cx="780.158" cy="748.388" fill="#f9cea0" rx="9.298" ry="11.49"/><path d="m780.158 748.388c0 3.673.123 4.525-1.924 4.798-1.946.262-4.514-.433-4.514-4.798 0-3.748 2.1-6.894 4.924-7.731.752-.226 1.514.32 1.514 1.105z" fill="#f2b47c"/><circle cx="868.64" cy="758.339" r="4.799"/><ellipse cx="867.569" cy="756.494" fill="#fff" rx="1.275" ry="1.996" transform="matrix(.5548 .832 -.832 .5548 1015.6479 -385.0104)"/><circle cx="824.934" cy="758.339" r="4.8"/><ellipse cx="823.743" cy="756.57" fill="#fff" rx="1.274" ry="1.998" transform="matrix(.5549 .8319 -.8319 .5549 996.082 -348.5322)"/><path d="m869.144 741.096c5.797.951 9.243 2.919 11.478 5.91-3.155-1.897-6.781-2.824-10.686-3.345-6.335-.845-9.473 1.772-10.484-.748-1.002-2.492 7.991-2.095 9.692-1.817z" fill="#f75f23"/><path d="m824.615 741.096c1.701-.277 10.694-.675 9.693 1.817-1.012 2.521-4.148-.097-10.485.748-3.903.521-7.528 1.447-10.685 3.345 2.237-2.99 5.681-4.959 11.477-5.91z" fill="#f75f23"/><path d="m822.789 777.859c8.518 22.68 39.487 22.69 47.993 0-11.323 18.528-36.672 18.544-47.993 0z" fill="#e94f0a"/><path d="m782.74 694.648c8.888-10.707 25.021-24.845 52.221-24.845 12.041 0 21.854 1.633 30.101 5.973 4.267 2.247 9.622 7.628 9.771 11.872 4.928.291 10.242 3.854 12.906 7.182 17.104 21.363 11.702 51.963 11.548 57.092-.021.731-.616 1.311-1.349 1.311 0-27.987-23.841-34.164-25.797-48.729-1.468 4.591-9.542 18.209-33.834 17.063-46.264-2.183-47.398 19.008-51.098 28.962-.591 1.59-.656 2.703-2.353 2.703h-1.642c-.731 0-1.327-.578-1.35-1.311-.068-2.324-1.723-19.89-8.159-11.925-2.963 3.667-3.248-16.831-2.135-21.81 1.794-7.992 5.145-16.278 11.17-23.538z" fill="#f75f23"/><path d="m783.706 1001.36h91.439c4.492 0 8.134-3.643 8.134-8.136v-2.455c0-4.489-3.642-8.135-8.134-8.135h-91.439c-4.492 0-8.134 3.646-8.134 8.135v2.455c.001 4.495 3.641 8.136 8.134 8.136z" fill="#a50229"/><path d="m856.72 1001.36h28.045c4.493 0 8.134-3.643 8.134-8.136v-2.455c0-4.489-3.642-8.135-8.134-8.135h-28.045c-4.493 0-8.136 3.646-8.136 8.135v2.455c.001 4.495 3.644 8.136 8.136 8.136z" fill="#c4001d"/><path d="m747.529 1048.063h91.438c4.492 0 8.134-3.645 8.134-8.135v-2.455c0-4.494-3.643-8.135-8.134-8.135h-91.438c-4.493 0-8.133 3.641-8.133 8.135v2.455c0 4.492 3.64 8.135 8.133 8.135z" fill="#a50229"/><path d="m820.541 1048.063h28.047c4.491 0 8.135-3.645 8.135-8.135v-2.455c0-4.494-3.644-8.135-8.135-8.135h-28.047c-4.492 0-8.133 3.641-8.133 8.135v2.455c0 4.492 3.641 8.135 8.133 8.135z" fill="#c4001d"/><path d="m832.153 1029.34h7.439v-60.182c0-1.783.601-3.544 1.693-4.954l159.409-206.092c1.526-1.97 3.92-3.146 6.41-3.146h43.456v-7.438h-43.456c-4.774 0-9.371 2.257-12.292 6.029l-159.41 206.09c-2.096 2.712-3.248 6.09-3.248 9.511z" fill="#199029"/><path d="m1206.694 714.37h-139.861c-8.987 0-16.271 7.284-16.271 16.27v62.164h172.405v-62.164c-.001-8.986-7.287-16.27-16.273-16.27z" fill="#027384"/><path d="m1108.355 755.932c.663 0 1.237-.491 1.323-1.165.65-5.031 2.979-7.804 3.675-8.532l-.943-.948-.971-.917.971.917-.988-.898c-.841.878-3.64 4.198-4.394 10.037-.094.732.422 1.403 1.154 1.497.058.005.118.009.173.009z" fill="#846b4f"/><path d="m1143.462 775.854h2.03v-13.579h-2.673v12.938c.002.356.29.641.643.641z" fill="#66523d"/><path d="m1144.369 777.589h1.642v-1.711c0-.309-.25-.562-.56-.562h-1.857c-.096 0-.173.079-.173.176v1.146c0 .525.425.951.948.951z" fill="#8e806b"/><path d="m1124.863 776.152 1.96-.53-2.164-8.02c-.104-.388-.125-.792-.061-1.188l.627-3.786-2.637-.437-.659 3.985c-.105.643-.072 1.298.096 1.924l2.051 7.598c.092.344.445.546.787.454z" fill="#66523d"/><path d="m1126.269 777.553 1.578-.455-.472-1.644c-.086-.297-.396-.47-.693-.384l-1.785.514c-.091.025-.146.122-.119.215l.317 1.102c.144.503.67.796 1.174.652z" fill="#8e806b"/><g fill="#f7f7f8"><path d="m1122.651 765.265h21.346c6.039 0 10.936-4.896 10.936-10.937v-2.194c0-6.039-4.896-10.937-10.936-10.937h-21.346c-6.041 0-10.937 4.896-10.937 10.937v2.194c0 6.04 4.896 10.937 10.937 10.937z"/><circle cx="1144.916" cy="743.319" r="6.622"/><circle cx="1120.738" cy="760.365" r="6.622"/><circle cx="1124.334" cy="747.045" r="9.12"/><circle cx="1150.733" cy="747.045" r="4.855"/><circle cx="1138.295" cy="741.671" r="4.051"/><circle cx="1137.356" cy="764.343" r="2.122"/><circle cx="1128.326" cy="762.936" r="4.05"/><circle cx="1146.683" cy="763.344" r="4.05"/><circle cx="1113.285" cy="749.518" r="3.276"/><path d="m1130.049 762.936c0 1.811 1.466 3.276 3.273 3.276 1.81 0 3.276-1.467 3.276-3.276 0-1.807-1.467-3.271-3.276-3.271-1.807-.002-3.273 1.464-3.273 3.271z"/><circle cx="1153.635" cy="752.791" r="3.275"/><circle cx="1114.475" cy="758.958" r="2.792"/><circle cx="1124.901" cy="764.138" r="2.792"/><circle cx="1151.973" cy="757.719" r="3.627"/><circle cx="1114.475" cy="754.795" r="4.093"/><circle cx="1115.881" cy="745.066" r="4.855"/><circle cx="1140.803" cy="762.017" r="4.856"/><circle cx="1149.177" cy="761.021" r="4.856"/><path d="m1126.639 742.928c0 3.169 2.57 5.738 5.739 5.738 3.17 0 5.739-2.569 5.739-5.738 0-3.172-2.569-5.742-5.739-5.742-3.169.001-5.739 2.57-5.739 5.742z"/></g><path d="m1118.602 776.156.293-8.039c.014-.379.105-.75.267-1.093l1.32-2.801c.29-.609.028-1.34-.585-1.629l-.202-.096c-.613-.287-1.342-.025-1.629.585l-1.402 2.972c-.262.557-.409 1.157-.431 1.771l-.278 7.59c-.013.354.264.652.618.665z" fill="#846b4f"/><path d="m1117.511 777.851h1.642v-1.712c0-.309-.25-.561-.56-.561h-1.857c-.097 0-.174.08-.174.176v1.146c0 .525.425.951.949.951z" fill="#8e806b"/><path d="m1147.654 776.341 2.026-.123-.741-12.336c-.041-.674-.621-1.188-1.295-1.147l-.225.013c-.675.04-1.189.62-1.148 1.296l.702 11.696c.023.352.327.621.681.601z" fill="#846b4f"/><path d="m1148.975 777.842 1.626-.218-.226-1.695c-.043-.307-.322-.521-.63-.48l-1.841.246c-.094.013-.162.101-.149.195l.151 1.138c.069.518.547.883 1.069.814z" fill="#8e806b"/><path d="m1168.209 750.487c1.936 0 3.783-1.113 4.631-2.994 1.151-2.558.015-5.563-2.542-6.714l-7.377-3.324c-2.557-1.152-5.563-.015-6.714 2.542-1.153 2.557-.017 5.563 2.541 6.715l7.377 3.324c.678.306 1.388.451 2.084.451z" fill="#846b4f"/><path d="m1162.375 748.317c-2.105-.891-.74-2.955-1.825-3.974-2.295-2.155-.626-8.125 5.792-5.307 0-1.114-1.25-5.681-5.188-7.868-4.937-2.742-11.599-.805-14.356 4.366-2.761 5.17-1.037 11.543 4.25 14.073 3.565 1.708 8.987-.105 11.327-1.29z" fill="#f7f7f8"/><path d="m1153.416 740.823c1.554.187 2.032-.62 2.158-1.667.125-1.048-.148-1.944-1.703-2.13-1.554-.188-4.237.974-4.291 1.41-.052.439 2.283 2.201 3.836 2.387z" fill="#846b4f"/><circle cx="1161.806" cy="740.936" fill="#1b1c20" r=".727"/></svg>