<svg enable-background="new 751.169 891.834 378.512 478" height="478" viewBox="751.169 891.834 378.512 478" width="378.512" xmlns="http://www.w3.org/2000/svg"><path d="m807.823 1354.803s1.259-.225 3.615-.642c2.357-.362 5.815-.991 10.216-1.602 8.8-1.274 21.373-2.843 36.459-4.235 15.088-1.4 32.689-2.629 51.547-3.451 4.715-.239 9.508-.392 14.361-.546 4.851-.171 9.762-.327 14.713-.399 9.9-.251 19.959-.287 30.018-.351 10.057.061 20.115.081 30.016.333 4.951.076 9.862.21 14.715.393 4.853.164 9.646.297 14.36.541 18.857.818 36.46 2.047 51.547 3.453 15.088 1.396 27.659 2.968 36.46 4.25 4.4.615 7.857 1.244 10.217 1.611 2.356.42 3.614.645 3.614.645s-1.258.228-3.614.646c-2.357.366-5.816.997-10.217 1.612-8.801 1.279-21.372 2.853-36.46 4.252-15.086 1.401-32.688 2.63-51.547 3.448-4.714.244-9.508.377-14.36.545-4.853.18-9.764.312-14.715.389-9.9.255-19.959.272-30.016.334-10.059-.063-20.117-.099-30.018-.352-4.951-.071-9.862-.225-14.713-.398-4.854-.155-9.646-.304-14.361-.548-18.857-.82-36.459-2.05-51.547-3.449-15.086-1.395-27.659-2.961-36.459-4.234-4.4-.612-7.857-1.241-10.216-1.604-2.356-.418-3.615-.641-3.615-.641z" fill="#027384"/><path d="m878.004 1099.68s21.018 9.575 95.194 9.575 68-6.675 68-6.675 8.628-44.046 8.175-75.818c-.878-61.246-21.422-87.093-21.422-87.093l-150.229 8.736s-13.248 31.287-11.275 87.656c1.589 45.394 11.557 63.619 11.557 63.619z" fill="#5e2b06"/><path d="m893.342 1115.557c-9.621-1.09-19.475-1.146-29.275-1.312-3.035-.051-7.083-2.103-9.178.933-2.273 3.286.127 7.608 3.65 7.756 13.761.583 20.255 3.701 29.916 4.636 3.223.313 7.143 1.031 9.28-2.193 2.44-3.677-.04-9.31-4.393-9.82z" fill="#f9bf8c"/><path d="m859.375 1353.676-4.063-.763c-13.065-2.469-21.655-15.063-19.188-28.125l12.269-64.947 51.373 9.704-12.27 64.947c-2.465 13.065-15.057 21.654-28.121 19.184z" fill="#7cb214"/><path d="m995.039 1354.08-4.134-.003c-13.296-.012-24.065-10.797-24.055-24.096l.052-66.093 52.283.039-.053 66.097c-.011 13.297-10.797 24.067-24.093 24.056z" fill="#7cb214"/><circle cx="820.209" cy="1099.28" fill="#7cb214" r="19.89"/><ellipse cx="961.85" cy="1240.964" fill="#8ac622" rx="119.718" ry="84.564"/><path d="m911.385 1171.572-29.533-45.8c-.364-.78-.758-1.558-1.176-2.323-.825-1.517-.335-3.358 1.09-4.326 5.603-3.81 9.165-10.39 8.675-17.781-.632-9.578-8.36-17.551-17.915-18.451-6.476-.608-12.376 1.89-16.4 6.174-4.084 4.35-10.456 5.66-16.146 3.87-4.019-1.262-8.221-2.276-12.576-3.005-36.075-6.029-68.772 9.742-73.029 35.228-4.259 25.483 21.535 51.026 57.61 57.055 4.837.811 9.613 1.22 14.267 1.271 6.74.069 12.946 3.709 16.6 9.375l10.436 16.181c9.218 14.294 28.276 18.41 42.571 9.19l6.337-4.086c14.291-9.219 18.408-28.279 9.189-42.572z" fill="#8ac622"/><path d="m828.558 1147.396c.435.326-.409 2.164-2.533 4.653-2.081 2.529-5.68 5.456-10.231 7.854-4.557 2.393-10.165 4.061-15.771 4.421-5.608.405-11.073-.457-15.5-1.714-1.793-.559-3.379-1.06-4.681-1.736-1.329-.612-2.466-1.171-3.356-1.82-.912-.606-1.66-1.148-2.269-1.629-.567-.546-1.005-1.018-1.334-1.429-1.315-1.646-.943-2.32-.52-2.83.423-.509.949-.865 2.685-.095.434.191.94.453 1.542.804.637.294 1.383.654 2.242 1.108.839.495 1.878.932 3.068 1.455 1.161.588 2.563 1.049 4.139 1.615 3.875 1.285 8.747 2.147 13.743 1.895 4.991-.216 10.047-1.578 14.288-3.532 8.633-3.837 13.456-9.866 14.488-9.02z" fill="#377a10"/><path d="m843.414 1112.271c0-2.382-1.932-4.314-4.313-4.314-2.384 0-4.315 1.934-4.315 4.314 0 2.387 1.932 4.313 4.315 4.313 2.382 0 4.313-1.928 4.313-4.313z"/><path d="m1063.703 1357.945-4.08.666c-13.121 2.147-25.498-6.748-27.646-19.87l-10.674-65.226 51.596-8.442 10.674 65.226c2.149 13.119-6.749 25.496-19.87 27.646z" fill="#8ac622"/><path d="m925.6 1359.24-4.116-.395c-13.235-1.268-22.935-13.026-21.667-26.262l6.311-65.792 52.043 4.988-6.31 65.793c-1.269 13.237-13.029 22.938-26.261 21.668z" fill="#8ac622"/><path d="m909.402 1080.885c-6.091 9.146-12.149 18.559-16.858 28.498-1.788 3.773-6.73 10.572-5.026 15.042 2.017 5.282 8.115 4.205 10.8.272 6.524-9.554 12.432-19.431 19.005-29.968 2.154-3.457 5.901-7.959 4.277-12.423-1.906-5.238-9.133-6.015-12.198-1.421z" fill="#f9bf8c"/><path d="m905.835 1116.706 16.847-26.829-5.356-19.906s-1.919.397-7.485 7.729c-4.093 5.39-17.283 29.902-17.283 29.902z" fill="#e73324"/><path d="m903.188 1120.621-13.035-8.4c-.858-.552-1.105-1.698-.554-2.558l2.192-3.402c.555-.858 1.699-1.106 2.56-.555l13.034 8.402c.859.556 1.106 1.697.553 2.558l-2.193 3.405c-.553.856-1.698 1.106-2.557.55z" fill="#f9473e"/><path d="m980.179 1172.478h-14.615c-3.131 0-12.438-7.197-18.685-9.918-6.641-2.892-18.083-2.814-22.479-1.972l4.504-15.536h62.792v14.151c.002 7.33-5.155 13.275-11.517 13.275z"/><path d="m992.334 1145.791s-6.454 3.256-35.851 3.256c-22.903 0-29.455-2.315-29.455-2.315s1.703-4.229-.626-28.438c-2.332-24.247-9.324-48.174-9.324-48.174s20.738-8.346 37.031-8.346c26.153 0 37.252 2.421 37.252 2.421s5.307 30.178 4.146 50.522c-1.157 20.345-3.173 31.074-3.173 31.074z" fill="#e73324"/><path d="m967.547 1064.284s-1.577 3.861-13.302 3.861c-11.723 0-13.353-3.861-13.353-3.861v-18.145h26.654v18.145z" fill="#efbb95"/><circle cx="954.304" cy="981.852" fill="#f9cea0" r="79.475"/><path d="m946.627 1020.46c0 3.69 3.436 5.873 7.677 5.873 4.24 0 7.678-2.183 7.678-5.873 0-3.695-1.586 1.084-7.678 1.084s-7.677-4.779-7.677-1.084z" fill="#f2b47c"/><ellipse cx="1033.778" cy="992.178" fill="#f9cea0" rx="11.499" ry="14.211"/><path d="m1033.779 992.178c0 4.542-.152 5.598 2.377 5.936 2.408.32 5.583-.535 5.583-5.936 0-4.635-2.597-8.522-6.089-9.565-.93-.276-1.871.4-1.871 1.371z" fill="#f2b47c"/><ellipse cx="874.828" cy="992.178" fill="#f9cea0" rx="11.499" ry="14.211"/><path d="m874.826 992.178c0 4.542.151 5.598-2.378 5.936-2.409.32-5.582-.535-5.582-5.936 0-4.635 2.597-8.522 6.089-9.565.931-.276 1.871.4 1.871 1.371z" fill="#f2b47c"/><path d="m975.396 1004.486c0 3.276 2.656 5.933 5.934 5.933s5.936-2.655 5.936-5.933c0-3.279-2.657-5.938-5.936-5.938-3.277.001-5.934 2.659-5.934 5.938z"/><ellipse cx="980.049" cy="1002.207" fill="#fff" rx="1.575" ry="2.47" transform="matrix(.5546 .8321 -.8321 .5546 1270.42 -369.1422)"/><path d="m921.342 1004.486c0 3.276 2.658 5.933 5.935 5.933 3.278 0 5.937-2.655 5.937-5.933 0-3.279-2.658-5.938-5.937-5.938-3.277.001-5.935 2.659-5.935 5.938z"/><ellipse cx="925.75" cy="1002.182" fill="#fff" rx="1.576" ry="2.47" transform="matrix(.5548 .832 -.832 .5548 1245.9878 -324.0266)"/><path d="m981.953 983.163c7.169 1.175 11.43 3.607 14.194 7.306-3.904-2.345-8.389-3.493-13.216-4.137-7.836-1.046-11.715 2.192-12.966-.926-1.236-3.081 9.884-2.592 11.988-2.243z" fill="#5e2b06"/><path d="m926.885 983.163c2.102-.349 13.225-.838 11.987 2.243-1.251 3.118-5.13-.12-12.966.926-4.83.644-9.312 1.792-13.216 4.137 2.765-3.698 7.026-6.131 14.195-7.306z" fill="#5e2b06"/><path d="m924.625 1028.627c10.532 28.049 48.837 28.062 59.356 0-14.006 22.912-45.354 22.933-59.356 0z" fill="#e73324"/><path d="m889.721 925.717c10.991-13.242 30.943-30.725 64.583-30.725 14.892 0 27.025 2.02 37.225 7.387 5.278 2.776 11.9 9.433 12.084 14.681 6.095.36 12.67 4.767 15.964 8.884 21.15 26.421 16.176 64.266 15.984 70.605-.026.904-2.467 1.622-3.373 1.622h-2.071c-2.108 0-4.129-1.316-4.603-3.373-7.955-34.548-33.985-41.119-36.664-59.885-1.813 5.678-5.842 22.054-35.883 20.637-57.217-2.699-65.288 26.965-69.866 39.277-.729 1.963-2.498 3.344-4.595 3.344h-2.029c-.906 0-3.803-.718-3.828-1.622-.19-6.341-5.045-44.186 17.072-70.832z" fill="#5e2b06"/><path d="m998.623 1085.364c2.412 10.723 4.699 21.68 5.539 32.646.318 4.161 2.499 12.28-.691 15.842-3.775 4.214-9.082 1.023-10.183-3.61-2.67-11.254-4.652-22.591-7.016-34.784-.776-3.999-2.663-9.542.452-13.132 3.655-4.209 10.682-2.347 11.899 3.038z" fill="#f9bf8c"/><path d="m995.401 1249.152c1.005 3.097 4.329 4.792 7.427 3.784 2.916-.945 4.581-3.979 3.928-6.909l-1.858-14.277c-1.166-5.153-12.912-.93-11.745 4.228.064.278 2.248 13.174 2.248 13.174z" fill="#f9cea0"/><path d="m988.069 1154.443c9.985 14.777 14.651 33.571 16.964 51.026 1.136 8.574 1.636 17.229 1.493 25.875-.016.921.565 4.939-.501 4.959-2.141.035-4.283.069-6.424.103-3.938.063-7.877.128-11.816.189.003 0-2.604-18.84-2.997-20.835-2.979-15.191-8.315-32.935-18.654-44.906 7.31-5.471 14.622-10.94 21.935-16.411z"/><path d="m988.765 1113.893-5.519-22.614s-2.309-4.982 1.42-17.299c3.319-10.971 6.718-9.787 6.718-9.787s2.377 3.303 4.887 9.586c2.508 6.285 8.08 35.378 8.08 35.378z" fill="#e73324"/><path d="m1005.06 1238.038c1.332-.891 4.062 5.975 3.727 9.107-.301 2.824-2.761 7.402-4.363 11.019-1.158 2.613-3.024 5.825-5.866 6.735-3.458 1.104-6.17.679-8.538-1.584-3.101-2.964-3.36-7.462-1.116-10.838 2.538-3.817 3.229-5.78 3.653-7.708.522-1.442-1.773-6.924-.488-7.81 2.354-1.627 5.992-3.484 8.676.308 1.952 2.763 3.984.992 4.315.771z" fill="#2a2886"/><path d="m998.991 1261.677c-.77-2.882-3.508-7.758-7.363-7.689-3.855.064-4.442 1.985-4.442 1.985s-3.077 5.607 2.128 8.585c2.375 1.362 8.271 2.854 11.921-.396 3.272-2.916 7.355-13.502 8.012-16.485.371-1.681-.688-3.281-.688-3.281s-.215 1.911-.745 3.628c-.74 2.399-5.102 11.094-6.021 12.375-1.841 2.569-2.337 3.011-2.802 1.278z" fill="#edeeef"/><path d="m991.098 1248.097c.115.168.339.221.518.119.03-.016 3.12-1.692 7.002-1.343.222.021.412-.14.433-.36.017-.219-.144-.41-.36-.431-4.136-.374-7.328 1.364-7.46 1.44-.192.104-.263.347-.155.538.005.014.014.028.022.037z" fill="#edeeef"/><path d="m992.112 1245.173c.003.005.008.012.014.016.137.176.386.201.56.065.028-.021 2.792-2.178 6.634-1.83.22.021.414-.142.434-.36.018-.218-.144-.409-.361-.434-4.171-.377-7.08 1.903-7.203 2-.167.133-.199.372-.078.543z" fill="#edeeef"/><path d="m991.786 1246.632c.087.124.243.191.399.159.04-.004 2.252-.357 5.434 2.37.167.145.418.125.56-.042.146-.166.135-.419-.042-.563-3.519-3.016-5.998-2.567-6.104-2.546-.216.041-.355.25-.313.466.012.057.036.111.066.156z" fill="#edeeef"/><path d="m992.102 1242.787c.092.129.258.198.422.158.129-.034 3.182-.746 5.944 2.25.147.163.4.174.562.023.164-.149.17-.396.024-.563-3.095-3.359-6.579-2.521-6.727-2.484-.214.052-.34.27-.288.48.016.053.034.097.063.136z" fill="#edeeef"/><path d="m1016.102 972.996 15.009-12.092c.918-.74 1.063-2.083.324-3.001l-.751-.934c-.74-.918-2.085-1.063-3.004-.324l-15.009 12.091z" fill="#4da022"/><path d="m990.21 1116.818 14.928-4.203c.983-.277 1.557-1.299 1.28-2.285l-1.097-3.896c-.276-.981-1.301-1.556-2.285-1.279l-14.928 4.204c-.982.274-1.555 1.3-1.278 2.281l1.096 3.897c.277.984 1.302 1.558 2.284 1.281z" fill="#f9473e"/><g fill="#f9bf8c"><path d="m1002.745 1134.798c-7.337 6.32-15.189 12.436-23.194 18.093-2.479 1.75-4.669 5.724-8.108 4.4-3.729-1.438-4.179-6.358-1.353-8.468 11.042-8.231 14.651-14.467 22.109-20.68 2.485-2.072 5.318-4.875 8.903-3.416 4.086 1.666 4.952 7.201 1.643 10.071z"/><path d="m972.058 1147.317s-7.708 3.958-8.084 7.638c-.355 3.453.63 4.35 3.75 5.89 3.12 1.543 5.771.04 7.189-1.479 1.686-1.805 3.346-4.587 3.257-5.299-.251-2.046-6.112-6.75-6.112-6.75z"/><path d="m958.388 1164.574c-.228-.024-.453-.097-.662-.223-.752-.454-.994-1.433-.54-2.187 2.089-3.46 7.426-9.73 7.652-9.996.568-.67 1.575-.749 2.244-.176.671.566.75 1.574.179 2.242-.054.063-5.395 6.338-7.348 9.577-.327.547-.931.824-1.525.763z"/><path d="m959.697 1157.058c-.59.024-1.167-.28-1.466-.834-.419-.772-.133-1.739.643-2.156 4.65-2.521 9.772-4.793 9.987-4.89.802-.358 1.745.006 2.103.811.355.806-.009 1.746-.813 2.102-.052.022-5.223 2.32-9.762 4.777-.22.118-.456.179-.692.19z"/><path d="m961.614 1166.697c-.227-.021-.453-.095-.661-.218-.753-.457-.993-1.438-.541-2.19 2.048-3.392 6.689-11.029 6.689-11.029l2.722 1.651s-4.639 7.638-6.684 11.025c-.328.545-.932.822-1.525.761z"/><path d="m965.571 1167.516c-.227-.022-.452-.095-.661-.221-.753-.456-.994-1.433-.54-2.188 2.006-3.319 6.179-10.937 6.22-11.013.423-.771 1.392-1.054 2.161-.633.771.422 1.056 1.391.633 2.159-.171.315-4.247 7.757-6.286 11.135-.329.545-.932.82-1.527.761z"/><path d="m970.06 1166.771c-.105-.013-.211-.037-.315-.077-.614-.241-.918-.934-.676-1.548 1.481-3.789 4.269-9.548 4.387-9.791.286-.595 1.001-.842 1.597-.554.594.287.842 1.002.553 1.595-.027.06-2.863 5.922-4.311 9.62-.203.511-.715.806-1.235.755z"/></g></svg>