<svg enable-background="new 1171.5 759.5 347 444.061" height="444.061" viewBox="1171.5 759.5 347 444.061" width="347" xmlns="http://www.w3.org/2000/svg"><path d="m1513.887 1194.392s-1.317-.182-3.783-.522c-2.469-.297-6.091-.811-10.696-1.31-9.218-1.041-22.381-2.317-38.178-3.457-15.796-1.146-34.229-2.147-53.976-2.821-4.938-.196-9.957-.32-15.037-.446-5.08-.143-10.223-.266-15.406-.326-10.365-.204-20.898-.232-31.429-.287-10.534.051-21.066.066-31.434.271-5.183.063-10.325.174-15.403.319-5.082.136-10.102.242-15.039.444-19.747.668-38.178 1.671-53.976 2.818-15.798 1.142-28.962 2.428-38.176 3.474-4.61.501-8.229 1.018-10.696 1.317-2.469.344-3.787.524-3.787.524s1.318.185 3.787.527c2.467.301 6.086.814 10.696 1.317 9.214 1.047 22.378 2.332 38.176 3.473 15.798 1.147 34.229 2.15 53.976 2.818 4.938.198 9.957.311 15.039.444 5.078.146 10.222.254 15.403.317 10.366.207 20.898.223 31.434.272 10.53-.052 21.063-.082 31.429-.287 5.186-.061 10.326-.187 15.406-.323 5.08-.126 10.1-.251 15.037-.448 19.746-.673 38.18-1.674 53.976-2.82 15.797-1.14 28.96-2.416 38.178-3.458 4.605-.499 8.229-1.012 10.696-1.309 2.465-.338 3.783-.521 3.783-.521z" fill="#027384"/><path d="m1385.051 1103.882c.033.25.124.473.233.686-1.81.543-2.771 1.486-2.745 2.849l-3.842.065c-.055-3.273 2.156-5.717 5.935-6.723z" fill="#d8dadc"/><path d="m1352.873 1114.037c.005.252.067.487.152.713-1.865.318-2.931 1.138-3.073 2.494l-3.816-.4c.339-3.254 2.828-5.412 6.702-5.955z" fill="#d8dadc"/><path d="m1352.209 1017.755 19.841 36.552c2.085 3.316 2.663 10.644-2.505 13.385-3.258 1.728-8.535-.728-10.473-3.291-17.64-23.313-15.853-17.03-25.759-33.546l-.005-.011c-3.854-5.053-2.882-12.273 2.174-16.129 5.053-3.854 12.273-2.882 16.129 2.175.211.274.416.574.598.865z" fill="#f9bf8c"/><path d="m1362.131 1054.627c-4.84 1.291-6.937 6.066-5.928 10.925 5.335 25.689 11.098 24.889 18.19 52.561 1.229 2.838 4.567 4.283 7.45 3.227 2.714-.994 3.606-4.115 3.17-6.577-4.265-24.073-11.278-53.884-11.278-53.884-1.569-4.744-6.761-7.541-11.604-6.252z" fill="#f9bf8c"/><path d="m1349.082 1054.437c2.037 2.963 19.246-9.016 17.772-11.883l-17.615-32.894s-5.938-7.301-15.063-2.725c-5.22 2.615-9.511 10.354-6.853 15.551.205.392 21.759 31.951 21.759 31.951z" fill="#563c32"/><path d="m1371.902 1121.442 29.703-.528s.422-2.607-2.528-3.281c-3.011-.686-6.736-1.407-9.196-1.842-.885-.159-1.726-.497-2.471-.999l-1.688-1.14-1.826.03c-1.004 1.159-2.384 1.741-5.67 1.963-2.491.168-4.955-1.787-4.955-1.787s-.351.053-.478.331c-.132.276-.846 1.642-.952 3.458-.098 1.593.061 3.795.061 3.795z" fill="#336eb6"/><path d="m1372.528 1126.078 28.628-.507c.536-.01.961-.453.953-.989l-.069-3.637c-.008-.336-.229-.619-.556-.699-.988-.236-28.468-.239-29.483.033-.326.088-.545.384-.539.722l.076 4.125c.01.536.453.962.99.952z" fill="#edeeef"/><path d="m1383.672 1116.022 2.338-.082-.383-4.086c-.122-1.313-.161-2.313-.466-2.303-.51.11-.86.518-1.12 2.368z" fill="#336eb6"/><path d="m1385.402 1116.137.919-.616-.482 1.007c-.063.132.036.339.216.482.004.004.004.005.005.011.004.004.006.004.008.006.003 0 .003.005.007.005.005.004.007.004.012.006.161.163.376.235.495.155l.921-.615-.484 1.007c-.066.137.04.362.233.504.178.13.362.146.448.049.01-.011.02-.021.022-.034l1.186-2.466.104-.068c-.335-.105-.657-.236-.974-.395l-.876.589.403-.842c-.078-.047-.166-.077-.239-.128l-.733-.496-1.779 1.195c-.13.09-.094.297.069.473.16.178.396.255.519.171z" fill="#f7f7f8"/><path d="m1387.471 1105.731c1.182-.156 2.009-1.243 1.851-2.421l-10.085-75.529c-.157-1.179-1.243-2.011-2.423-1.853-1.181.158-2.008 1.244-1.851 2.422l10.088 75.53c.154 1.183 1.24 2.011 2.42 1.851z" fill="#5b2905"/><path d="m1383.218 1125.883 9.635-.135-.505-15.909c-.008-.495-.171-4.469-3.193-5.446.135-.339.221-.696.167-1.081l-.383-2.888c5.67.767 7.229 6.422 7.247 9.334l.627 19.773-13.54.188z" fill="#d8dadc"/><path d="m1326.508 933.501c4.914 9.156 10.068 18.404 16.264 26.765 2.352 3.173 5.82 10.326 10.309 10.896 5.307.673 7.125-4.896 5.038-8.889-5.063-9.698-10.668-19.031-16.531-29.21-1.921-3.338-4.009-8.47-8.455-9.104-5.225-.744-9.095 4.937-6.625 9.542z" fill="#e8b491"/><path d="m1357.977 974.729c9.157.181 13.389-.267 18.523-.442 2.868-.102 6.854 1.354 8.563-1.685 1.854-3.293-.786-7.125-4.119-6.983-5.497.23-10.294-1.383-19.292-2.1-3.053-.242-6.813-.347-8.547 2.881-1.975 3.675.731 8.232 4.872 8.329z" fill="#e8b491"/><path d="m1280.591 1026.313c-3.328-1.43-6.413-3.009-9.938-3.996-4.465-1.252-9.063-1.889-13.682-2.158-9.481-.407-18.795 1.07-27.875 3.723-16.785 5.014-31.62 14.339-45.479 24.822 8.625 8.439 17.249 16.879 25.873 25.313 9.66-13.229 20.757-25.579 35.411-33.362 8.645-4.62 18.865-7.475 28.718-6.508.363.037 3.146.615 3.271.346.387-.856.771-1.707 1.159-2.563.847-1.87 1.695-3.742 2.542-5.617z" fill="#604538"/><path d="m1260.353 1163.236 6.819-46.026c.056-.373.171-.765.34-1.126l1.686-3.583 20.84-44.3c1.109-2.334 2.691-4.578 4.692-6.449 8.545-8 21.954-7.562 29.953.984 8 8.543 7.562 21.954-.982 29.957l-34.506 32.31-9.354 41.85c-1.132 5.013-5.966 8.413-11.13 7.648-5.418-.806-9.16-5.848-8.358-11.265z" fill="#b7aca5"/><path d="m1396.721 1060.758 29.184 106.439c1.439 5.255 6.869 8.347 12.124 6.905 4.938-1.354 7.955-6.27 7.111-11.213l-18.986-108.719c-1.437-8.217-9.257-13.715-17.473-12.279-8.212 1.434-13.71 9.256-12.273 17.471.08.468.189.95.313 1.396z" fill="#b7aca5"/><path d="m1394.355 1007.243c.127-.537 12.707-59.754 17.979-78.816.258-.939.507-1.894.752-2.854 1.732-6.747 2.779-10.823 9.474-14.159 9.188-4.579 20.309.757 21.268 1.238l12.179 6.975 13.502-12.627-16.651-11.022c-.823-.441-20.356-10.698-38.751-1.532-14.449 7.197-17.42 18.763-19.384 26.415-.22.848-.433 1.687-.663 2.514-5.363 19.397-14.705 59.202-14.705 69.266z" fill="#604538"/><g fill="#d8ccc3"><path d="m1345.889 1103.857c46.768 0 79.531-19.207 88.543-25.921 10.49-7.813 33.088-50.212-.49-71.836-17.715-11.403-38.65-4.604-47.797 2.254-9.524 7.146-13.094 12.68-39.361 13.768-22.428.927-39.062-3.048-40.882-3.47-18.551-4.271-38.063 5.206-45.808 23.323-8.697 20.35.751 43.898 21.104 52.597 5.097 2.18 24.825 9.285 64.691 9.285z"/><path d="m1407.055 924.131-22.675 97.319c-3.978 17.062 6.633 34.118 23.695 38.094 17.063 3.979 34.119-6.633 38.096-23.697.312-1.333.546-2.847.683-4.172l9.531-99.47c1.316-13.771-8.777-26.004-22.546-27.323-12.645-1.213-23.992 7.206-26.784 19.249z"/><path d="m1425.363 933.449 48.848 41.496c9.104 7.732 22.752 6.62 30.485-2.483 7.735-9.104 6.624-22.751-2.48-30.484-.947-.805-2.049-1.572-3.084-2.188l-55.328-32.358c-7.629-4.461-17.434-1.892-21.896 5.736-3.982 6.81-2.361 15.348 3.455 20.281z"/><ellipse cx="1460.866" cy="953.122" rx="18.14" ry="22.588" transform="matrix(-.5232 .8522 -.8522 -.5232 3037.4668 206.8623)"/><path d="m1459.727 892.814s-8.384-2.715-20.633 10.034c-5.771 6.009-1.902 10.854 7.579 14.858 2.67-4.004 9.049-16.209 13.054-24.892z"/></g><path d="m1450.277 930.521c0 2.611 2.116 4.728 4.728 4.728 2.607 0 4.723-2.115 4.723-4.728 0-2.605-2.114-4.724-4.723-4.724-2.611.001-4.728 2.118-4.728 4.724z" fill="#3d1c10"/><path d="m1405.663 1060.142 52.607 95.188c2.65 4.796 8.688 6.536 13.484 3.887 4.501-2.485 6.29-7.997 4.309-12.625l-43.176-99.824c-3.327-7.696-12.268-11.234-19.964-7.907-7.698 3.328-11.235 12.268-7.906 19.966.192.444.416.895.646 1.315z" fill="#d8ccc3"/><path d="m1227.568 1150.232 15.575-48.87c.084-.257.208-.524.363-.762l2.222-3.411 26.631-40.841c1.425-2.168 3.313-4.177 5.563-5.762 9.578-6.731 22.799-4.428 29.53 5.146 6.735 9.577 4.431 22.799-5.146 29.531l-38.576 27.125-17.488 44.481c-1.9 4.806-7.24 7.411-12.24 5.817-5.216-1.656-8.096-7.236-6.434-12.454z" fill="#d8ccc3"/><path d="m1351.636 1194.049c54.329 0 106.584-13.805 147.138-38.873 4.857-3.002 6.363-9.376 3.359-14.233-3.006-4.857-9.377-6.361-14.234-3.359-37.329 23.074-85.725 35.785-136.263 35.785-50.475 0-98.819-12.681-136.129-35.701-4.861-2.999-11.233-1.49-14.231 3.371-3 4.86-1.491 11.229 3.37 14.229 40.53 25.008 92.734 38.781 146.99 38.781z" fill="#7d471b"/><path d="m1309.09 1041.665c0-9.149.287-16.618.613-22.199 6.416 1.245 20.078 3.359 37.079 2.656 11.287-.468 18.453-1.788 23.77-3.63-.773 5.116-1.355 11.778-1.355 20.3 0 25.854-8.596 28.008-29.097 28.008-26.248 0-31.01-3.517-31.01-25.135z" fill="#7d471b"/><path d="m1343.295 1042.348c9.105 0 22.073-3.03 28.649-11.569 3.704-4.813 4.802-10.616 3.17-16.788-.389-1.477-.808-2.914-1.217-4.303-1.067-3.677-2.077-7.146-1.94-9.582.32-5.729 3.271-10.384 3.302-10.428 1.43-2.193.814-5.13-1.376-6.562-2.19-1.436-5.129-.818-6.563 1.37-.177.273-4.358 6.759-4.828 15.088-.229 4.058 1.001 8.285 2.307 12.761.384 1.317.781 2.68 1.148 4.074.875 3.316-17.109 3.685-26.127 3.685-27.173 0-26.196-2.604-26.401-3.036-.864-1.812-2.824-2.938-4.921-2.65-2.593.354-4.41 2.742-4.058 5.335.129.92 3.498 22.605 38.855 22.605z" fill="#5b2905"/><path d="m1313.75 1017.656c.962.91 5.255 2.438 26.07 2.438 7.33 0 20.584-.244 24.818-2.112 1.198 3.978 1.412 14.507-24.818 14.507-17.236-.002-26.197-8.388-26.07-14.833z" fill="#663205"/><path d="m1355.523 1115.924c1.188 0 2.153-.965 2.153-2.153v-76.162c0-1.189-.965-2.154-2.153-2.154-1.19 0-2.155.965-2.155 2.154v76.162c-.001 1.188.964 2.153 2.155 2.153z" fill="#5b2905"/><path d="m1337.805 1064.357h8.618v40.586h-8.618z" fill="#7d471b"/><path d="m1472.398 975.56c.285 0 .576-.059.856-.179 23.319-10.119 23.589-37.047 23.589-38.188 0-1.188-.964-2.152-2.153-2.152-1.191 0-2.154.965-2.154 2.152-.004.367-.351 25.277-20.996 34.234-1.091.476-1.593 1.742-1.119 2.833.351.813 1.145 1.3 1.977 1.3z" fill="#5b2905"/><path d="m1483.541 967.798c.78 0 1.532-.423 1.916-1.161.546-1.057.135-2.357-.924-2.905l-76.879-39.848c-1.053-.544-2.354-.134-2.904.923-.546 1.058-.134 2.355.924 2.906l76.879 39.843c.315.163.654.242.988.242z" fill="#5b2905"/><path d="m1414.277 1030.549c11.192 0 21.426-2.338 30.649-7.02 32.542-16.514 40.412-55.815 40.732-57.479.226-1.171-.541-2.299-1.71-2.521-1.175-.225-2.299.539-2.522 1.709-.072.388-7.829 38.933-38.479 54.465-20.814 10.548-47.381 8.313-78.963-6.643-1.073-.509-2.356-.05-2.869 1.026-.509 1.074-.051 2.36 1.026 2.868 19.127 9.06 36.557 13.595 52.136 13.595z" fill="#5b2905"/><path d="m1440.305 1001.152c9.891-1.709 17.516-5.56 22.867-9.227 10.09-6.911 17.46-16.993 19.229-26.308.197-1.041-.486-2.046-1.527-2.246-1.041-.191-2.045.486-2.241 1.528-3.138 16.502-26.058 37.581-59.296 32.531-29.812-4.528-44.203-27.966-49.008-37.83-3.477-7.143-11.901-17.82-14.526-20.416-.753-.743-1.97-.736-2.714.017-.745.751-.737 1.97.017 2.714 2.415 2.39 10.527 12.7 13.772 19.366 5.069 10.411 20.273 35.145 51.882 39.944 8.091 1.234 15.275 1.009 21.545-.073z" fill="#5b2905"/><path d="m1339.709 1027.907-14.113 1.806c-6.796.87-13.019-3.998-13.897-10.876l-2.131-16.644 44.213-5.66 2.132 16.644c.878 6.878-7.006 13.552-16.204 14.73z" fill="#335d87"/><path d="m1347.946 1028.656 11.094 37.496c1.27 3.456-.296 8.639-5.584 10.15-3.336.952-7.039-.673-8.32-3.407-11.663-24.889-11.25-18.763-17.128-35.885l-.005-.012c-2.557-5.402-.247-11.852 5.15-14.406 5.402-2.555 11.855-.251 14.41 5.152.139.296.269.612.383.912z" fill="#f9bf8c"/><path d="m1351.198 1059.886c-4.957-.731-8.769 2.826-9.765 7.688-5.27 25.704.339 27.246-4.101 55.468.009 3.093 2.502 5.739 5.565 5.91 2.886.162 4.94-2.353 5.516-4.785 5.61-23.796 10.966-53.948 10.966-53.948.439-4.975-3.226-9.603-8.181-10.333z" fill="#f9bf8c"/><path d="m1337.902 1061.481c1.538 3.25 20.437-5.828 19.438-8.896l-12.141-35.281s-4.697-8.153-14.438-5.092c-5.567 1.752-11.039 8.703-9.243 14.261.137.416 16.384 35.008 16.384 35.008z" fill="#335d87"/><path d="m1343.557 933.966s-8.889-15.943-15.47-12.648c-2.917 1.461-4.229 8.137-2.929 14.402 1.98 9.549 10.581 20.133 10.581 20.133l15.773-8.959z" fill="#eda126"/><path d="m1355.068 997.708s-6.771 3.656-25.242 5.899c-18.713 2.271-24.064.193-24.064.193l-8.096-64.992c-.604-8.034 3.28-19.466 24.743-21.773 6.171-.563 19.399 2.355 21.579 19.573z" fill="#f7af2c"/><path d="m1320.357 953.353c7.556 7.132 15.371 14.278 23.888 20.252 3.233 2.266 8.786 7.954 13.226 7.075 5.248-1.041 5.213-6.896 1.972-10.025-7.869-7.602-16.139-14.682-24.921-22.483-2.878-2.557-6.478-6.768-10.899-5.964-5.191.941-7.065 7.556-3.266 11.145z" fill="#f9bf8c"/><path d="m1356.543 948.35c-.121-.866.829-1.384 1.493-1.575.668-.197 1.162-.492 1.357-1.312.193-.815 1.244-1.428 2.846-1.897 1.603-.47 2.959.199 2.959.199s2.115 3.029 2.71 4.068c.594 1.042 1.064 3.643.869 5.445-.196 1.808-2.775 2.638-4.109 3.027-1.337.39-5.228-1.282-6.397-3.296-1.168-2.012-1.592-3.71-1.728-4.659z" fill="#f9bf8c"/><path d="m1361.566 977.124c2.979-8.661 3.854-12.822 5.258-17.767.788-2.763 3.396-6.107 1.027-8.666-2.569-2.774-7.024-1.435-7.914 1.779-1.467 5.303-4.471 9.372-7.912 17.721-1.168 2.828-2.419 6.38.119 9.017 2.892 3.005 8.059 1.829 9.422-2.084z" fill="#f9bf8c"/><path d="m1324.477 936.165s-7.438-8.697-13.173-4.09c-2.541 2.046-4.315 5.281-1.721 11.135 3.952 8.914 11.87 15.996 11.87 15.996l13.529-12.088z" fill="#ffc673"/><path d="m1331.758 919.765s.119 3.368-12.153 6.962c-12.483 3.653-13.899-1.015-13.899-1.015l-5.827-29.263 25.8-7.554z" fill="#f9cea0"/><path d="m1377.181 860.762c1.782 4.37 2.966 3.492 9.993 1.434 2.772-.812 5.691-4.148 2.889-8.31-2.357-3.502-11.897 1.317-19.041-14.169-.828-1.8 3.851 15.372 6.159 21.045z" fill="#f9cea0"/><path d="m1360.351 908.441c-18.765 5.491-41.832 1.451-65.595-9.527l-21.61-4.122c-12.535-.77-23.243-9.318-26.771-21.371l-11.758-40.17c-5.117-17.494 4.912-35.825 22.403-40.945l48.483-14.188c23.233-6.801 47.656 6.142 55.078 29.186l14.743 45.797s8.872-3.808 8.613 25.399c-.077 9.3-2.705 23.829-23.586 29.941z" fill="#f9cea0"/><path d="m1349.816 768.658c.135 7.362-7.779 6.846-19.662 1.77-9.576-4.093-22.15-6.098-43.509-1.004-13.196 3.148-26.866 7.647-38.01 16.009-4.792 3.594-21.62 19.956-17.851 35.95-8.286 12.193-4.156 33.099.673 44.379 11.17 26.095 28.068 27.909 50.996 33.559 9.117 2.244 19.056 5.333 19.056 5.333.823-.761 2.278-3.773 2.87-5.659 7.986-25.361-5.926-52.96 7.596-56.917 8.698-2.545 10.222 2.346 12.204 9.091.261.88 8.856.46 10.203-4.455 1.072-3.905 2.17-10.546 3.146-20.556.559-5.746.04-9.471 15.271-16.159 14.781-6.493 13.474-21.08 6.919-28.739.493 4.48-4.239 5.961-7.224 3.463-.803-.676 4.631-7.699-2.678-16.065z" fill="#44352a"/><ellipse cx="1363.042" cy="847.791" rx="5.614" ry="3.219" transform="matrix(-.2808 -.9598 .9598 -.2808 932.1646 2394.0688)"/><path d="m1364.525 846.466c-.059.73-.75.905-1.54.393-.793-.515-1.386-1.523-1.327-2.256.062-.73.748-.906 1.54-.394.792.516 1.388 1.526 1.327 2.257z" fill="#fff"/><path d="m1349.379 841.371c2.279-3.089 5.31-4.884 8.724-6.148 5.542-2.055 9.594-.463 9.006-3.778-.536-3.016-7.642-.539-9.112.083-5.014 2.126-7.54 5.354-8.618 9.843z" fill="#44352a"/><path d="m1348.983 876.324c8.184 11.617 18.77 11.148 31.587 8.505-10.55 7.567-28.756 7.306-31.587-8.505z" fill="#e73324"/><path d="m1335.219 1129.646 29.547 3.059s.738-2.541-2.112-3.565c-2.906-1.045-6.521-2.208-8.909-2.937-.858-.263-1.651-.701-2.329-1.291l-1.538-1.333-1.818-.188c-1.137 1.032-2.576 1.439-5.862 1.265-2.495-.134-4.703-2.373-4.703-2.373s-.352.012-.514.271c-.165.261-1.034 1.527-1.363 3.317-.291 1.567-.399 3.775-.399 3.775z" fill="#336eb6"/><path d="m1335.281 1134.321 28.479 2.947c.534.055 1.011-.334 1.065-.867l.367-3.616c.035-.334-.15-.644-.466-.761-.947-.354-28.229-3.674-29.271-3.522-.34.047-.589.313-.622.648l-.423 4.104c-.051.537.335 1.013.871 1.067z" fill="#f7f7f8"/><path d="m1347.556 1125.683 2.332.2.11-4.101c.035-1.317.118-2.317-.186-2.344-.518.049-.917.411-1.398 2.218z" fill="#336eb6"/><path d="m1349.26 1126.004.988-.5-.603.942c-.08.121-.007.342.154.504.003.004 0 .009.003.011.002.002.005.002.008.006.002.002.002.006.005.009.004.002.009.002.011.009.144.178.348.276.477.212l.986-.501-.603.942c-.082.125-.007.362.17.527.16.147.344.188.438.104.013-.012.02-.021.025-.034l1.479-2.307.107-.055c-.32-.146-.623-.312-.918-.508l-.94.479.503-.784c-.071-.057-.156-.097-.223-.156l-.67-.578-1.909.967c-.142.074-.126.285.012.479.144.196.367.299.5.232z" fill="#f7f7f8"/><path d="m1348.399 1135.658 9.581 1.03 1.419-15.856c.052-.49.37-4.459-2.513-5.793.176-.316.302-.663.298-1.052l-.033-2.911c5.538 1.442 6.402 7.246 6.067 10.141l-1.767 19.706-13.463-1.447z" fill="#d8dadc"/></svg>