<svg enable-background="new 0 0 2500 1500" height="1500" viewBox="0 0 2500 1500" width="2500" xmlns="http://www.w3.org/2000/svg"><path d="m-2.894.272h2505.788v886.079h-2505.788z" fill="#fcdf68"/><path d="m-2.894 886.352h2505.788v613.648h-2505.788z" fill="#035e77"/><path d="m2502.894.272h-2505.788v359.717c18.607 11.343 38.705 21.811 60.156 31.244-.587 3.183-.916 6.414-.916 9.689 0 48.289 65.405 87.432 146.084 87.432 51.725 0 97.138-16.104 123.095-40.378 7.623.21 15.282.33 22.989.33 12.06 0 24.012-.272 35.853-.783 93.079 109.674 283.339 184.828 502.941 184.828 200.957 0 377.326-62.937 477.155-157.665 11.653.735 23.477 1.131 35.456 1.131 105.935 0 200.294-29.523 261.553-75.532 33.12 31.417 91.596 52.301 158.26 52.301 72.629 0 135.539-24.792 166.524-60.991 64.614 32.283 147.764 51.716 238.515 51.716 110.594 0 209.917-28.866 278.124-74.685v-368.354z" fill="#ffeb97"/><path d="m2502.894 1150.002c-317.161-57.031-761.96-92.499-1254.46-92.499-490.876 0-934.375 35.233-1251.327 91.936v350.561h2505.788v-349.998z" fill="#0094a8"/><path d="m1722.517 992.324s1.393-.213 4-.615c2.611-.347 6.438-.952 11.314-1.538 9.742-1.222 23.663-2.726 40.369-4.064 16.705-1.343 36.193-2.522 57.074-3.313 5.219-.231 10.527-.375 15.902-.525 5.37-.165 10.808-.313 16.29-.385 10.962-.238 22.099-.272 33.235-.333 11.138.059 22.271.076 33.235.317 5.482.075 10.917.204 16.293.377 5.373.158 10.677.286 15.898.521 20.882.784 40.371 1.964 57.074 3.313 16.705 1.34 30.625 2.853 40.37 4.082 4.872.589 8.702 1.194 11.311 1.546 2.61.402 4.003.618 4.003.618s-1.393.216-4.003.62c-2.608.352-6.438.957-11.311 1.546-9.745 1.229-23.665 2.742-40.37 4.083-16.703 1.348-36.192 2.529-57.074 3.313-5.222.233-10.525.363-15.898.521-5.376.174-10.811.302-16.293.376-10.964.242-22.098.259-33.235.317-11.137-.061-22.273-.095-33.235-.333-5.482-.071-10.92-.22-16.29-.385-5.375-.148-10.684-.294-15.902-.525-20.881-.79-40.369-1.97-57.074-3.315-16.706-1.335-30.627-2.839-40.369-4.061-4.876-.588-8.703-1.191-11.314-1.539-2.608-.403-4-.619-4-.619z" fill="#013e4c"/><path d="m1725.809 393.375h315.644v18.525h-315.644z" fill="#7d471b"/><path d="m1725.809 539.245h315.644v18.524h-315.644z" fill="#7d471b"/><path d="m1725.809 685.114h315.644v18.525h-315.644z" fill="#7d471b"/><path d="m1725.809 830.983h315.644v18.526h-315.644z" fill="#7d471b"/><path d="m1725.809 973.199h315.644v18.528h-315.644z" fill="#7d471b"/><path d="m2025.841 393.375h15.611v598.379h-15.611z" fill="#7d471b"/><path d="m1725.999 393.375h15.612v598.379h-15.612z" fill="#7d471b"/><path d="m1869.182 685.114h13.817l-3.146-68.937-13.817-.01z" fill="#a00430"/><path d="m1881.417 615.777h15.995v69.009h-15.995z" fill="#c4001d" transform="matrix(.999 -.0456 .0456 .999 -27.6914 86.8473)"/><path d="m1883.327 615.775h12.18v69.01h-12.18z" fill="#ef030f" transform="matrix(.999 -.0457 .0457 .999 -27.7224 86.9533)"/><path d="m1894.414 684.6-6.763.31-1.63-35.697c-.039-.839.614-1.55 1.453-1.59l3.722-.17c.838-.038 1.552.612 1.589 1.452z" fill="#f7af2c"/><path d="m1864.631 609.391h15.315v75.724h-15.315z" fill="#0061c1"/><path d="m1910.582 607.401h55.323v77.907h-55.323z" fill="#f7af2c"/><path d="m1904.164 607.401h6.418v77.907h-6.418z" fill="#199029"/><path d="m1908.884 607.401h1.698v77.906h-1.698z" fill="#00ad10"/><path d="m1864.631 617.327h15.315v6.422h-15.315z" fill="#f7f7f8"/><path d="m1864.631 626.204h15.315v6.422h-15.315z" fill="#f7f7f8"/><path d="m1889.806 630.703-2.758.126c-1.106.05-2.045-.806-2.096-1.913l-.591-12.975 6.763-.308.594 12.974c.05 1.107-.805 2.044-1.912 2.096z" fill="#f7af2c"/><path d="m1843.528 609.391h21.103v75.724h-21.103z" fill="#149680"/><path d="m1859.402 685.114h-83.317v-13.303h83.317c1.817 0 3.293 1.476 3.293 3.296v6.713c0 1.819-1.475 3.294-3.293 3.294z" fill="#4fac25"/><path d="m1776.497 685.114h-27.304v-13.303h27.304c1.82 0 3.294 1.476 3.294 3.296v6.713c0 1.819-1.474 3.294-3.294 3.294z" fill="#62cc23"/><path d="m1776.12 683.804h-26.927v-10.682h26.927c1.207 0 2.188.98 2.188 2.188v6.306c0 1.208-.981 2.188-2.188 2.188z" fill="#f7f7f8"/><path d="m1862.695 681.75h-60.148c-1.551 0-2.811-1.257-2.811-2.808v-.958c0-1.551 1.26-2.81 2.811-2.81h60.148z" fill="#f7af2c"/><path d="m1754.987 657.021h96.32v14.791h-96.32z" fill="#7d471b"/><path d="m1829.245 663.029h22.063v2.773h-22.063z" fill="#f7af2c"/><path d="m1829.245 660.256h22.063v2.773h-22.063z" fill="#45aae1"/><path d="m1829.245 665.803h22.063v2.774h-22.063z" fill="#e60004"/><path d="m1779.791 657.021v-14.793h73.306c1.998 0 3.621 1.622 3.621 3.623v7.547c0 2.001-1.623 3.624-3.621 3.624h-73.306z" fill="#e51d13"/><path d="m1757.187 657.021v-14.793h31.548c2.002 0 3.624 1.622 3.624 3.623v7.547c0 2.001-1.622 3.624-3.624 3.624h-31.548z" fill="#f94a41"/><path d="m1757.187 655.678v-12.111h31.316c1.346 0 2.43 1.088 2.43 2.431v7.25c0 1.342-1.084 2.43-2.43 2.43z" fill="#f7f7f8"/><path d="m1784.662 642.227v-13.486h66.826c1.823 0 3.303 1.478 3.303 3.303v6.881c0 1.823-1.479 3.303-3.303 3.303h-66.826z" fill="#0d5fd6"/><path d="m1764.051 642.227v-13.486h28.765c1.822 0 3.301 1.478 3.301 3.303v6.881c0 1.823-1.479 3.303-3.301 3.303h-28.765z" fill="#1f82e5"/><path d="m1764.051 640.929v-10.89h28.364c1.207 0 2.184.979 2.184 2.186v6.519c0 1.207-.977 2.186-2.184 2.186h-28.364z" fill="#f7f7f8"/><path d="m1778.388 628.741v-13.486h66.825c1.825 0 3.302 1.479 3.302 3.304v6.881c0 1.823-1.477 3.301-3.302 3.301z" fill="#f28e00"/><path d="m1757.778 628.741v-13.486h28.762c1.823 0 3.301 1.479 3.301 3.304v6.881c0 1.823-1.478 3.301-3.301 3.301z" fill="#f7af2c"/><path d="m1757.778 627.442v-10.89h28.361c1.207 0 2.187.979 2.187 2.185v6.521c0 1.207-.979 2.185-2.187 2.185h-28.361z" fill="#f7f7f8"/><ellipse cx="1938.244" cy="639.897" fill="#f7f7f8" rx="17.63" ry="23.345"/><path d="m1938.244 664.054c-10.173 0-18.444-10.837-18.444-24.157 0-13.319 8.271-24.155 18.444-24.155 10.167 0 18.442 10.836 18.442 24.155.001 13.32-8.275 24.157-18.442 24.157zm0-46.69c-9.274 0-16.82 10.108-16.82 22.533s7.546 22.533 16.82 22.533c9.272 0 16.818-10.108 16.818-22.533.001-12.424-7.545-22.533-16.818-22.533z" fill="#f28e00"/><path d="m1929.479 678.146h-6.189l1.338-2.562-1.338-2.561h6.189z" fill="#e57e03"/><path d="m1946.819 678.146h6.191l-1.337-2.562 1.337-2.561h-6.191z" fill="#e57e03"/><path d="m1927.054 670.462h22.315v5.122h-22.315z" fill="#f28e00"/><path d="m1948.595 638.935h-11.659v-18.334z" fill="#f7af2c"/><path d="m1925.279 638.935h11.657v-18.334z" fill="#f28e00"/><circle cx="1945.072" cy="641.263" fill="#f28e00" r="6.932"/><path d="m1949.974 636.362c2.71 2.707 2.71 7.095 0 9.802-2.709 2.708-7.096 2.708-9.804 0 1.908-.163 3.571-.819 6.279-3.527 2.705-2.705 3.367-4.663 3.525-6.275z" fill="#f7af2c"/><path d="m1936.283 646.647h9.798v11.178h-9.798z" fill="#f28e00"/><path d="m1931.107 646.647h5.176v11.178h-5.176z" fill="#f7af2c"/><path d="m1926.114 644.191-.241 1.023h-1.165l1.433-4.755h1.366l1.435 4.755h-1.194l-.248-1.023zm.695-2.915-.504 2.1h1.003z" fill="#f7af2c"/><path d="m1932.895 643.829c0 1.083-.88 1.385-2.071 1.385h-1.53v-4.755h1.345c1.275 0 2.06.323 2.06 1.215 0 .603-.434.918-.874 1.022.527.103 1.07.364 1.07 1.133zm-2.477-1.468h.422c.463 0 .71-.179.71-.576 0-.398-.26-.528-.8-.528h-.332zm.412 2.037c.529 0 .903-.11.903-.631 0-.479-.333-.658-.822-.658h-.493v1.29h.412z" fill="#f7af2c"/><path d="m1936.92 640.865-.552.651c-.252-.219-.521-.343-.848-.343-.605 0-1.03.487-1.03 1.653 0 1.145.418 1.633 1.048 1.633.379 0 .652-.186.929-.397l.508.658c-.312.315-.832.61-1.489.61-1.304 0-2.176-.878-2.176-2.504 0-1.592.92-2.483 2.143-2.483.643.001 1.073.193 1.467.522z" fill="#f7af2c"/><path d="m1972.553 753.876h1.57v14.539h-1.57z" fill="#c3c5c8" transform="matrix(.8871 .4616 -.4616 .8871 574.1361 -824.9314)"/><path d="m1985.03 785.875-38.457-20.035 23.139-1.737 3.48 1.813z" fill="#d8dadc"/><path d="m1955.75 829.111-27.826-14.494 7.894 13.312c.439.738 1.072 1.34 1.836 1.735l.186.099c.762.396 1.619.572 2.476.509z" fill="#d8dadc"/><path d="m2006.45 821.289-101.176-52.708 60.883-4.571 9.154 4.767z" fill="#c4001d"/><path d="m1934.019 783.555-13.921-7.249 47.798-11.39 1.257.655z" fill="#e73324"/><path d="m2004.236 825.544-101.178-52.708 31.143 52.512 9.156 4.768z" fill="#940084"/><path d="m1931.802 787.81-13.916-7.249 18.054 45.692 1.26.657z" fill="#6a1485"/><path d="m2004.827 825.898-102.397-53.344c-1.109-.575-1.538-1.941-.963-3.05l.167-.317c.576-1.107 1.944-1.536 3.049-.96l102.402 53.343c1.104.577 1.536 1.943.958 3.05l-.165.317c-.576 1.109-1.943 1.539-3.051.961z" fill="#f7af2c"/><circle cx="1978.321" cy="751.578" fill="#f7af2c" r="8.821"/><path d="m1833.401 969.904h-67.65c-3.514 0-6.358-2.845-6.358-6.356v-1.927c0-3.513 2.845-6.361 6.358-6.361h67.65c3.51 0 6.356 2.849 6.356 6.361v1.927c.001 3.512-2.846 6.356-6.356 6.356z" fill="#2a2886"/><path d="m1828.134 955.26h-57.118c-3.513 0-6.358-2.843-6.358-6.356v-1.927c0-3.512 2.846-6.359 6.358-6.359h57.118c3.514 0 6.357 2.848 6.357 6.359v1.927c0 3.513-2.844 6.356-6.357 6.356z" fill="#5d017f"/><path d="m1822.917 940.617h-46.686c-3.508 0-6.357-2.844-6.357-6.356v-1.926c0-3.514 2.85-6.361 6.357-6.361h46.686c3.512 0 6.355 2.848 6.355 6.361v1.926c0 3.512-2.843 6.356-6.355 6.356z" fill="#c4001d"/><path d="m1818.077 925.974h-37.002c-3.513 0-6.358-2.844-6.358-6.356v-1.928c0-3.511 2.846-6.358 6.358-6.358h37.002c3.511 0 6.356 2.848 6.356 6.358v1.928c.001 3.512-2.845 6.356-6.356 6.356z" fill="#0a9e18"/><path d="m1812.219 911.331h-25.286c-3.514 0-6.362-2.845-6.362-6.357v-1.927c0-3.512 2.849-6.359 6.362-6.359h25.286c3.511 0 6.356 2.848 6.356 6.359v1.927c0 3.512-2.846 6.357-6.356 6.357z" fill="#f28e00"/><path d="m1806.845 896.688h-14.54c-3.509 0-6.356-2.846-6.356-6.357v-1.926c0-3.513 2.848-6.36 6.356-6.36h14.54c3.511 0 6.355 2.848 6.355 6.36v1.926c0 3.511-2.845 6.357-6.355 6.357z" fill="#f4bc2f"/><path d="m1800.68 882.044h-2.21c-3.512 0-6.36-2.844-6.36-6.355v-1.929c0-3.512 2.849-6.36 6.36-6.36h2.21c3.513 0 6.358 2.849 6.358 6.36v1.929c0 3.511-2.846 6.355-6.358 6.355z" fill="#ef1e14"/><path d="m1839.196 973.072h-79.241c-.639 0-1.153-.518-1.153-1.155v-.859c0-.636.515-1.153 1.153-1.153h79.241c.635 0 1.151.518 1.151 1.153v.859c.001.638-.516 1.155-1.151 1.155z" fill="#663205"/><circle cx="1783.066" cy="820.332" fill="#1b1c20" r="10.778"/><circle cx="1871.537" cy="820.332" fill="#1b1c20" r="10.78"/><path d="m1831.316 764.416h14.018v44.706h-14.018z" fill="#4b9e20"/><path d="m1833.018 765.977v-2.549c0-.617-.504-1.12-1.121-1.12h-15.082c-.817 0-1.482.664-1.482 1.48v.707c0 .817.665 1.481 1.482 1.481h16.203z" fill="#65bf36"/><path d="m1810.119 794.051h-16.274l2.708-22.439h16.392z" fill="#9be5f9"/><path d="m1838.095 794.051h-31.636l2.708-22.439h28.928z" fill="#75d7f2"/><path d="m1795.546 772.176 34.275-.034v-1.713c0-.656-.535-1.189-1.191-1.189h-33.084c-.537 0-.971.436-.971.973v.993c0 .535.434.97.971.97z" fill="#fc9f30"/><path d="m1793.845 793.686-29.215 3.74c-1.745.204-3.061 1.682-3.061 3.438v19.974h32.056 36.196v-27.151h-35.976z" fill="#fc9f30"/><path d="m1771.77 820.837h137.473v3.592h-137.473z" fill="#663205"/><path d="m1759.002 820.837h12.768v3.592h-12.768z" fill="#945a2f"/><path d="m1842.655 809.122h66.587v11.715h-66.587z" fill="#945a2f"/><path d="m1845.334 779.55h63.908v29.572h-63.908z" fill="#65bf36"/><path d="m1845.334 779.55h63.908v3.282h-63.908z" fill="#4b9e20"/><path d="m1905.574 779.55v25.903h-26.452v-25.903h-3.669v25.903h-26.452v-42.025c0-.617-.502-1.12-1.118-1.12h-15.083c-.818 0-1.483.664-1.483 1.48v.707c0 .817.665 1.481 1.483 1.481h11.414c.617 0 1.12.501 1.12 1.12v42.025h63.908v-29.571z" fill="#4fac25"/><path d="m1808.38 769.239c-.538 0-.972.436-.972.973v.993c0 .536.434.971.972.971h3.148l-2.621 21.875h-2.448l-28.994 3.375c-1.743.204-3.061 1.682-3.061 3.438v19.974h32.055 36.196v-50.408c0-.656-.532-1.189-1.188-1.189h-33.087zm28.674 24.447h-25.639l2.339-20.671c.056-.497.477-.873.978-.873h21.337c.543 0 .985.441.985.983z" fill="#f28e00"/><path d="m1816.616 820.837h-38.417l2.165-13.136c.426-2.577 2.652-4.468 5.267-4.468h17.746c1.906 0 3.671 1.018 4.622 2.67z" fill="#fc9f30"/><path d="m1806.459 820.993h2.07c-.009-7.082-5.751-12.819-12.837-12.819-7.082 0-12.822 5.737-12.83 12.819z" fill="#663205"/><path d="m1806.475 820.854c0 5.952-4.825 10.779-10.782 10.779-5.949 0-10.778-4.827-10.778-10.779 0-5.954 4.829-10.779 10.778-10.779 5.956-.001 10.782 4.824 10.782 10.779z" fill="#39373a"/><path d="m1800.793 820.854c0 2.815-2.28 5.1-5.101 5.1-2.814 0-5.098-2.284-5.098-5.1s2.283-5.1 5.098-5.1c2.821 0 5.101 2.283 5.101 5.1z" fill="#f7af2c"/><path d="m1797.544 820.854c0 1.021-.826 1.847-1.852 1.847-1.019 0-1.848-.826-1.848-1.847s.829-1.85 1.848-1.85c1.026 0 1.852.828 1.852 1.85z" fill="#d8dadc"/><circle cx="1884.166" cy="820.854" fill="#39373a" r="10.781"/><circle cx="1884.165" cy="820.854" fill="#f7af2c" r="5.1"/><circle cx="1884.166" cy="820.854" fill="#d8dadc" r="1.849"/><ellipse cx="1772.22" cy="805.916" fill="#edeeef" rx="1.706" ry="3.206"/><ellipse cx="1763.604" cy="805.916" fill="#edeeef" rx="1.706" ry="3.206"/><path d="m2014.688 651.475c-.272-.205-.639-.206-.911-.031.071-.347-.087-.711-.412-.881-.282-.146-.606-.106-.843.067-.01-.186-.084-.367-.213-.504-.022-.168-.098-.328-.224-.455-.313-.314-.822-.316-1.134-.002-.442.438-.944.51-1.865.604-.693.073-1.481.154-2.387.488-.416.152-.629.615-.477 1.03.12.326.427.525.754.525.093 0 .186-.016.276-.049.719-.264 1.37-.332 1.998-.396.213-.022.429-.045.644-.076-.939.875-2.234 1.555-3.583 2.261l-.398.211c-.395.207-.544.691-.336 1.085.142.274.423.429.708.429.126 0 .256-.03.373-.093l.4-.209c1.146-.601 2.307-1.213 3.301-1.979-.832.853-1.862 1.692-3.122 2.554-.366.25-.46.751-.208 1.116.155.228.407.35.663.35.157 0 .315-.046.453-.14 1.236-.846 2.273-1.681 3.138-2.53-.6.77-1.271 1.522-2.069 2.165-.344.278-.399.784-.121 1.129.161.198.393.3.626.3.179 0 .355-.06.505-.179 1.648-1.33 2.821-3.053 3.762-4.435.305-.447.592-.869.865-1.23.267-.354.193-.858-.163-1.125z" fill="#f7af2c"/><path d="m1991.414 645.418c6.096-.184 10.634 3.223 12.172 9.134.655 2.519 1.104 5.426.942 8.036-.155 2.551-2.827 4.279-5.219 3.377-2.221-.839-2.501-2.87-2.474-4.928.034-2.428.229-6.404-1.816-8.124-1.781-1.52-4.555-.372-6.07-2.272-1.636-2.046-.155-5.189 2.465-5.223z" fill="#af0425"/><path d="m2000.689 684.877c-2.306 0-4.172-1.868-4.172-4.172v-19.039c0-2.303 1.866-4.171 4.172-4.171 2.303 0 4.169 1.868 4.169 4.171v19.039c0 2.305-1.866 4.172-4.169 4.172z" fill="#c4001d"/><path d="m2000.293 620.912c7.943-1.154 15.394 3.018 19.104 9.963 3.861 7.225 1.958 17.48-3.502 23.478-1.925-1.748-3.851-3.495-5.776-5.243 4.108-4.509 6.013-10.665 3.55-16.41-1.696-3.382-4.859-6.205-8.962-7.145-1.07-.248-2.171-.387-3.269-.4-.688-.009-.611.105-.695-.55-.148-1.231-.301-2.462-.45-3.693z" fill="#c4001d"/><path d="m1960.177 651.475c.278-.205.639-.206.915-.031-.075-.347.083-.711.414-.881.278-.146.601-.106.841.067.011-.186.084-.367.212-.504.024-.168.096-.328.226-.455.312-.314.821-.316 1.135-.002.439.438.941.51 1.863.604.693.073 1.48.154 2.388.488.415.152.628.615.477 1.03-.121.326-.429.525-.757.525-.091 0-.186-.016-.274-.049-.72-.264-1.371-.332-1.999-.396-.213-.022-.432-.045-.646-.076.938.875 2.237 1.555 3.586 2.261l.398.211c.395.207.544.691.337 1.085-.144.274-.424.429-.713.429-.123 0-.252-.03-.373-.093l-.396-.209c-1.146-.601-2.311-1.213-3.302-1.979.83.853 1.86 1.692 3.12 2.554.367.25.461.751.211 1.116-.155.228-.408.35-.664.35-.156 0-.314-.046-.455-.14-1.235-.846-2.271-1.681-3.135-2.53.599.77 1.272 1.522 2.067 2.165.346.278.397.784.119 1.129-.157.198-.389.3-.623.3-.178 0-.357-.06-.505-.179-1.648-1.33-2.82-3.053-3.762-4.435-.306-.447-.595-.869-.864-1.23-.266-.354-.195-.858.159-1.125z" fill="#f7af2c"/><path d="m1974.576 620.912c-7.945-1.154-15.396 3.018-19.104 9.963-3.862 7.225-1.96 17.48 3.5 23.478 1.926-1.748 3.848-3.495 5.777-5.243-4.112-4.509-6.014-10.665-3.554-16.41 1.701-3.382 4.865-6.205 8.965-7.145 1.07-.248 2.171-.387 3.269-.4.689-.009.613.105.692-.55.152-1.231.303-2.462.455-3.693z" fill="#c4001d"/><path d="m1983.575 651.846c-2.474.083-4.334.91-5.021 3.454-.662 2.446-.323 4.854-.502 7.329-.183 2.549-2.872 4.248-5.255 3.32-2.585-1.006-2.517-3.57-2.354-5.884.426-5.997 2.333-12.624 8.918-14.251 1.791-.443 4.697-.944 6.217.449 2.059 1.887.783 5.429-2.003 5.583z" fill="#af0425"/><path d="m1974.143 684.877c-2.304 0-4.172-1.868-4.172-4.172v-19.039c0-2.303 1.868-4.171 4.172-4.171 2.303 0 4.173 1.868 4.173 4.171v19.039c-.001 2.305-1.871 4.172-4.173 4.172z" fill="#c4001d"/><circle cx="1974.143" cy="623.038" fill="#f7af2c" r="5.192"/><circle cx="2000.727" cy="623.038" fill="#f7af2c" r="5.192"/><path d="m1983.78 614.624h7.308v2.302h-7.308z" fill="#1b1c20"/><path d="m1990.182 652.67h-5.494c-1.095 0-1.98-.886-1.98-1.979v-6.098h9.454v6.098c-.001 1.093-.889 1.979-1.98 1.979z" fill="#1b1c20"/><path d="m1999.885 609.403h-24.903c-2.899 0-5.253-2.353-5.253-5.255v-4.421c0-2.902 2.354-5.255 5.253-5.255h24.903c2.903 0 5.256 2.353 5.256 5.255v4.421c0 2.902-2.353 5.255-5.256 5.255z" fill="#f7af2c"/><path d="m1994.928 614.624h-14.985c-2.869 0-5.195-2.327-5.195-5.195v-14.984c0-2.87 2.326-5.195 5.195-5.195h14.985c2.867 0 5.19 2.325 5.19 5.195v14.984c0 2.868-2.323 5.195-5.19 5.195z" fill="#c4001d"/><path d="m1997.811 644.594h-20.752c-2.869 0-5.196-2.326-5.196-5.195v-17.28c0-2.869 2.327-5.193 5.196-5.193h20.752c2.869 0 5.192 2.325 5.192 5.193v17.28c0 2.869-2.323 5.195-5.192 5.195z" fill="#c4001d"/><path d="m1991.837 633.792h-8.81c-3.207 0-5.811-2.601-5.811-5.81v-6.509c0-1.168.947-2.114 2.114-2.114h16.206c1.166 0 2.112.946 2.112 2.114v6.509c.001 3.209-2.599 5.81-5.811 5.81z" fill="#f7af2c"/><path d="m1990.332 591.958h-5.795c-1.119 0-2.027-.908-2.027-2.028v-3.709h9.849v3.709c-.001 1.12-.906 2.028-2.027 2.028z" fill="#1b1c20"/><path d="m1991.865 610.606h-8.861c-.842 0-1.53-.684-1.53-1.53v-.879h11.921v.879c0 .846-.687 1.53-1.53 1.53z" fill="#9e0220"/><circle cx="1981.475" cy="599.929" fill="#d8dadc" r="2.744"/><circle cx="1981.475" cy="599.929" fill="#ef9d8e" r="2.039"/><circle cx="1981.473" cy="599.929" fill="#f7f7f8" r="1.106"/><circle cx="1993.395" cy="599.929" fill="#d8dadc" r="2.745"/><circle cx="1993.395" cy="599.929" fill="#ef9d8e" r="2.037"/><circle cx="1993.394" cy="599.929" fill="#f7f7f8" r="1.107"/><circle cx="1994.502" cy="623.038" fill="#e94f0a" r="1.107"/><circle cx="1994.502" cy="626.201" fill="#f7f7f8" r="1.107"/><circle cx="1994.502" cy="629.363" fill="#45aae1" r="1.107"/><path d="m1996.217 684.877c0 .483 2.86.391 6.39.391 3.528 0 6.389.155 6.389-.391 0-3.529-2.86-6.389-6.389-6.389-3.53 0-6.39 2.86-6.39 6.389z" fill="#f7af2c"/><path d="m1978.652 684.877c0 .483-2.86.391-6.39.391s-6.389.155-6.389-.391c0-3.529 2.859-6.389 6.389-6.389s6.39 2.86 6.39 6.389z" fill="#f7af2c"/><path d="m1773.393 508.678h12.756v29.848h-12.756z" fill="#007bea"/><path d="m1786.148 508.678h29.845v29.848h-29.845z" fill="#c4001d"/><path d="m1802.761 517.88v14.907h-4.312v-14.907h-4.706v-3.313h13.934l-.422 3.313z" fill="#f7b346"/><path d="m1879.008 508.678h12.752v29.848h-12.752z" fill="#4fac25"/><path d="m1849.159 508.678h29.849v29.848h-29.849z" fill="#007bea"/><path d="m1865.585 532.787h-4.312v-6.81l-5.837-11.41h4.706l3.364 8.018 3.365-8.018h4.549l-5.836 11.384v6.836z" fill="#40dbff"/><path d="m1792.686 478.832h12.756v29.846h-12.756z" fill="#f4c02f"/><path d="m1805.441 478.832h29.851v29.846h-29.851z" fill="#a4035c"/><path d="m1827.836 497.629c0 4.154-3.364 5.311-7.939 5.311h-5.862v-18.219h5.151c4.892 0 7.887 1.235 7.887 4.653 0 2.313-1.654 3.523-3.338 3.917 2.024.395 4.101 1.394 4.101 4.338zm-9.491-5.625h1.604c1.786 0 2.734-.685 2.734-2.209 0-1.525-.999-2.024-3.075-2.024h-1.263zm1.578 7.808c2.025 0 3.47-.421 3.47-2.419 0-1.84-1.288-2.524-3.154-2.524h-1.894v4.943z" fill="#e94f0a"/><path d="m1872.678 478.832h12.752v29.846h-12.752z" fill="#bf065a"/><path d="m1842.829 478.832h29.849v29.846h-29.849z" fill="#e61676"/><path d="m1863.901 486.614-2.027 2.339c-1.234-1.024-2.495-1.524-3.969-1.524-1.499 0-2.443.631-2.443 1.788s.683 1.63 3.522 2.524c3.442 1.104 5.413 2.523 5.413 5.888 0 3.392-2.68 5.758-7.228 5.758-3.156 0-5.417-1.158-6.916-2.604l2.21-2.418c1.287 1.156 2.761 1.814 4.572 1.814 1.79 0 2.895-.842 2.895-2.235 0-1.341-.685-1.946-3.339-2.76-4.076-1.262-5.574-2.944-5.574-5.652 0-3.209 2.788-5.259 6.571-5.259 2.79.001 4.708.816 6.313 2.341z" fill="#f4c02f"/><path d="m1817.654 508.678h29.847v29.848h-29.847z" fill="#44a80f"/><path d="m1840.865 523.664c0 5.968-3.077 9.569-8.23 9.569-5.125 0-8.201-3.496-8.201-9.569 0-5.941 3.076-9.542 8.201-9.542 5.153 0 8.23 3.47 8.23 9.542zm-11.911 0c0 4.628 1.315 6.415 3.681 6.415 2.473 0 3.709-1.787 3.709-6.415 0-4.601-1.263-6.388-3.709-6.388-2.418 0-3.681 1.787-3.681 6.388z" fill="#83ea47"/><path d="m1819.766 448.983h29.845v29.849h-29.845z" fill="#f28e00"/><path d="m1832.175 469.176-.919 3.917h-4.47l5.494-18.218h5.231l5.495 18.218h-4.574l-.946-3.917zm2.657-11.173-1.921 8.045h3.84z" fill="#e60004"/><path d="m1993.334 539.33v-14.793h-73.304c-2 0-3.623 1.622-3.623 3.623v7.549c0 2 1.623 3.622 3.623 3.622h73.304z" fill="#7d471b"/><path d="m2015.939 539.33v-14.793h-31.546c-2.001 0-3.623 1.622-3.623 3.623v7.549c0 2 1.622 3.622 3.623 3.622h31.546z" fill="#945a2f"/><path d="m2015.939 537.989v-12.112h-31.318c-1.341 0-2.428 1.089-2.428 2.431v7.251c0 1.341 1.087 2.43 2.428 2.43z" fill="#f7f7f8"/><path d="m1997.559 524.537v-13.485h-66.824c-1.824 0-3.303 1.479-3.303 3.302v6.881c0 1.825 1.479 3.302 3.303 3.302z" fill="#199029"/><path d="m2018.167 524.537v-13.485h-28.762c-1.823 0-3.301 1.479-3.301 3.302v6.881c0 1.825 1.478 3.302 3.301 3.302z" fill="#4fac25"/><path d="m2018.167 523.24v-10.891h-28.361c-1.207 0-2.184.98-2.184 2.186v6.519c0 1.208.977 2.186 2.184 2.186z" fill="#f7f7f8"/><path d="m1985.198 511.052v-13.485h-66.828c-1.823 0-3.303 1.478-3.303 3.303v6.881c0 1.823 1.479 3.302 3.303 3.302h66.828z" fill="#e73324"/><path d="m2005.805 511.052v-13.485h-28.76c-1.825 0-3.301 1.478-3.301 3.303v6.881c0 1.823 1.476 3.302 3.301 3.302h28.76z" fill="#f28e00"/><path d="m2005.805 509.754v-10.891h-28.359c-1.209 0-2.189.978-2.189 2.187v6.518c0 1.208.98 2.187 2.189 2.187h28.359z" fill="#f7f7f8"/><path d="m1906.001 942.902c.911 8.616 1.654 20.259 7.54 27.158 2.312 2.709 9.983 6.074 11.482.629 1.254-4.561-3.917-3.939-5.27-5.765-3.591-4.845-3.218-14.12-3.434-19.833-.073-2.977-.013-6.211-3.307-7.523-3.546-1.412-7.41 1.556-7.011 5.334z" fill="#1b1c20"/><path d="m1833.132 945.689c.992 4.54 1.941 9.098 3.196 13.575 1.245 4.456 2.718 10.186 6.981 12.735 2.766 1.779 9.86 2.823 10.331-2.035.474-4.891-4.438-2.808-6.506-4.762.03.023.058.05.085.074-1.918-6.018-2.131-12.55-2.398-18.859-.137-3.177-.599-6.41-4.146-7.562-4.254-1.378-8.457 2.494-7.543 6.834z" fill="#1b1c20"/><path d="m1830.457 959.723c5.438.985 12.237 1.721 30.615.63 31.791-1.884 46.66-9.63 51.544-12.174l.396-.206c8.509-4.167 12.009-14.435 7.843-22.944-4.167-8.51-14.466-12.021-22.977-7.853-.293.144-.663.335-1.115.569-8.793 4.58-21.485 7.39-37.722 8.355-16.507.979-20.363.252-22.913-.227-.036-.007-.075-.014-.11-.021-9.272-1.684-18.177 4.435-19.922 13.71-1.754 9.312 4.376 18.28 13.688 20.033.224.043.446.086.673.128z" fill="#39373a"/><path d="m1902.153 946.801c4.313-2.297 12.103-9.08 16.848-7.085.631.267.939.94 1.034 1.872-1.639 2.658-4.008 4.911-7.023 6.385l-.396.206c-4.826 2.513-19.4 10.097-50.396 12.102-2.897-5.074 22.906-4.412 39.933-13.48z" fill="#c99a5e"/><path d="m1920.729 927.349-20.667-10.638 6.258-4.946 20.789 8.191z" fill="#39373a"/><path d="m1812.591 894.365c-.804 10.924.586 22.353 4.366 32.635 1.248 3.188 13.149 25.543 18.594 18.231 2.761-3.706-3.796-6.583-5.876-8.378-4.05-4.01-7.04-8.695-9.219-13.952-2.358-5.692-3.784-11.765-4.621-17.855-.382-2.748-.638-5.518-.752-8.286-.012-.311.127-1.882-.052-2.281.016-1.539-2.308-1.625-2.44-.114z" fill="#39373a"/><path d="m1894.169 940.3c-.916 8.885-2.33 19.844 1.431 28.247.946 2.117 2.523 3.934 4.643 4.941 3.246 1.544 9.451-.028 6.6-4.709-.987-1.616-3.484-1.391-4.048-3.22-1.361-4.407-.807-9.603-.312-14.108.354-3.447 2.608-9.32 1.152-12.64-2.001-4.564-8.948-3.449-9.466 1.489z" fill="#39373a"/><path d="m1816.111 946.549c.991 4.54 1.938 9.1 3.189 13.575 1.25 4.456 2.723 10.185 6.986 12.737 2.763 1.778 9.858 2.821 10.331-2.037.475-4.889-4.437-2.807-6.507-4.761.029.023.058.05.085.074-1.916-6.019-2.129-12.551-2.397-18.861-.138-3.176-.6-6.408-4.146-7.561-4.253-1.38-8.459 2.492-7.541 6.834z" fill="#39373a"/><path d="m1926.375 900.034c1.384-3.498 5.221-12.401 8.479-12.677 2.228-.189 3.819.239 4.82.669.065.018.133.033.199.063.13.055.31.157.518.284.275.159.438.272.492.315 3.181 2.126 11.281 8.825 13.404 12.021 2.419 3.638-3.135 8.087-4.522 7.947-1.387-.137-12.759-17.03-13.744-16.867-.175.028-.232.144-.317.262-.864 1.187-2.144 3.724-2.777 5.646-.279.844-.93 1.507-1.769 1.809l-3.917 1.416c-.554.198-1.085-.341-.866-.888z" fill="#1b1c20"/><path d="m1903.892 904.232c0 8.207 8.09 19.145 18.071 19.145s18.071-10.938 18.071-19.145c0-8.204-8.09-14.858-18.071-14.858s-18.071 6.654-18.071 14.858z" fill="#39373a"/><path d="m1923.095 916.617c5.243 1.126 11.02.798 16.127-.828 2.223-.661 5.742-1.723 6.598-4.198 1.108-3.201-1.912-5.964-5.016-5.229-4.356 1.036-10.103 1.322-14.162-.961-4.545-3.948-12.472 8.511-3.547 11.216z" fill="#39373a"/><path d="m1920.041 914.696c.789-2.228 2.503-5.147 5.2-4.49 10.223 2.484 13.047.394 14.236-.964.863-.986 4.29-1.068 6.385-.15.245.757.266 1.782-.043 2.673-.855 2.471-4.375 3.534-6.598 4.195-5.107 1.626-10.884 1.954-16.127.828-1.418-.428-2.406-1.277-3.053-2.092z" fill="#c99a5e"/><path d="m1940.346 908.008c0 3.449 1.366 1.149 3.048 1.149 1.683 0 3.051 2.66 3.051-1.149 0-1.229-1.368-2.229-3.051-2.229-1.682-.001-3.048.999-3.048 2.229z" fill="#1b1c20"/><path d="m1896.109 891.501s.123-.205.396-.516c1.373-1.614 3.989-2.66 4.975-2.781.035-.005.067.009.099.014 3.228-.523 9.567 6.433 11.974 9.243.382.446.057 1.131-.531 1.119l-4.167-.063c-.89-.013-1.718-.427-2.257-1.137-1.327-1.742-3.929-4.366-4.699-4.65-.349-.125-.533.143-.65.345-1.116 1.917-1.844 20.317-2.947 21.145-1.116.837-8.171-.092-7.986-4.455.184-4.365 4.732-16.56 5.793-18.264z" fill="#39373a"/><path d="m1919.328 900.931c0 .765.622 1.386 1.386 1.386.761 0 1.383-.621 1.383-1.386 0-.764-.622-1.383-1.383-1.383-.764 0-1.386.619-1.386 1.383z" fill="#1b1c20"/><circle cx="1935.458" cy="900.931" fill="#1b1c20" r="1.382"/><path d="m1921.054 896.54s-2.728.964-3.115 1.392c-.39.425-.188 1.42.316 1.444.74.037 1.559-.612 2.668-.502.673.069 1.447.558 1.746.059.184-.316.089-2.876-1.615-2.393z" fill="#c99a5e"/><path d="m1934.831 896.67s2.727.965 3.117 1.39c.39.427.186 1.422-.314 1.446-.744.037-1.559-.612-2.671-.5-.671.067-1.445.555-1.743.057-.187-.315-.095-2.876 1.611-2.393z" fill="#c99a5e"/><path d="m1921.303 927.803c.699 0 1.131-.047 1.221-.054l-.216-1.972c-.476.052-11.694 1.091-20.272-10.931l-1.613 1.15c7.696 10.789 17.473 11.807 20.88 11.807z" fill="#c4001d"/><path d="m1914.436 932.092c0 2.202 1.786 3.988 3.988 3.988 2.205 0 3.986-1.786 3.986-3.988 0-2.204-1.781-3.987-3.986-3.987-2.202-.001-3.988 1.783-3.988 3.987z" fill="#f7af2c"/><path d="m1918.487 927.326h.608v1.08h-.608z" fill="#f7af2c"/><path d="m1971.039 950.256c0-15.215 8.469-33.98 18.917-33.98 10.445 0 18.912 18.766 18.912 33.98 0 17.377-8.467 24.244-18.912 24.244-10.448 0-18.917-6.867-18.917-24.244z" fill="#d3d0c7"/><path d="m2005.477 957.448c0 6.075-4.555 13.061-15.521 13.061-10.968 0-15.525-6.985-15.525-13.061 0-6.078 6.952-12.058 15.525-12.058 8.572.001 15.521 5.98 15.521 12.058z" fill="#e2e0de"/><path d="m1961.534 957.812c3.367-1.612 8.211-10.394 8.211-10.394 1.277-2.563 8.094-12.776 9.506-14.735 1.438-1.992.987-4.771-1.002-6.209-1.992-1.438-4.774-.986-6.209 1.005-.563.777-9.016 13.812-10.254 15.973-1.238 2.158-2.833 5.839-5.82 7.921-2.015 1.405-2.898 3.213-1.789 5.583 1.106 2.351 4.73 2.108 7.357.856z" fill="#d3d0c7"/><path d="m2018.374 957.812c-3.367-1.612-8.214-10.394-8.214-10.394-1.276-2.563-8.09-12.776-9.501-14.735-1.439-1.992-.988-4.771 1.001-6.209 1.992-1.438 4.773-.986 6.208 1.005.563.777 9.018 13.812 10.254 15.973 1.238 2.158 2.834 5.839 5.82 7.921 2.014 1.405 2.896 3.213 1.788 5.583-1.105 2.351-4.729 2.108-7.356.856z" fill="#d3d0c7"/><path d="m2005.468 895.479-11.237-3.652 10.231-35.782c1.074-3.759 5.053-5.877 8.771-4.669l.633.206c3.719 1.209 5.691 5.259 4.354 8.932z" fill="#d3d0c7"/><path d="m2005.293 889.072-7.155-2.325 8.215-28.017c.685-2.394 3.215-3.74 5.582-2.973l.404.131c2.369.769 3.626 3.35 2.772 5.688z" fill="#f2adc9"/><path d="m1973.966 895.479 11.242-3.652-8.402-29.38c-.105-.374-.406-.653-.792-.726-2.328-.438-10.642-2.001-14.034-2.684-.579-.117-1.09.418-.924.985.046.159.1.322.162.49z" fill="#d3d0c7"/><path d="m1974.164 889.125 7.155-2.325-7.192-24.534s-4.076-.244-9.783-.639z" fill="#f2adc9"/><path d="m2016.183 901.286c0 12.989-11.736 29.006-26.208 29.006-14.476 0-26.211-16.017-26.211-29.006 0-12.99 11.735-20.695 26.211-20.695 14.471 0 26.208 7.705 26.208 20.695z" fill="#d3d0c7"/><path d="m2003.737 916.367c0 4.735-6.163 9.659-13.763 9.659-7.603 0-13.766-4.924-13.766-9.659 0-4.731 2.689-8.457 13.766-8.457 11.074 0 13.763 3.726 13.763 8.457z" fill="#eae8e5"/><path d="m1989.226 920.935h-1.865c-.273 0-.493-.221-.493-.494v-1.351l2.853-1.919v3.27c-.001.273-.223.494-.495.494z" fill="#fff"/><path d="m1992.583 920.935h-1.862c-.272 0-.494-.221-.494-.494v-3.27l2.853 1.919v1.351c-.001.273-.223.494-.497.494z" fill="#fff"/><path d="m1998.91 917.262c-.263-.229-.662-.205-.895.061-.01.011-1.046 1.106-3.891 1.106-1.101 0-1.956-.31-2.545-.922-.868-.903-.962-2.228-.974-2.634.004-.075 0-.121 0-.13v-3.92c0-.35-.283-.633-.635-.633-.35 0-.633.283-.633.633v3.893.153c-.008.367-.096 1.719-.969 2.632-.588.615-1.449.928-2.549.928-2.833 0-3.887-1.102-3.891-1.106-.229-.263-.632-.293-.895-.061-.266.231-.293.632-.064.897.056.062 1.387 1.539 4.85 1.539 1.46 0 2.627-.444 3.467-1.319.29-.302.513-.634.688-.967.18.333.392.665.681.967.838.875 2.005 1.319 3.468 1.319 3.462 0 4.792-1.478 4.849-1.539.23-.265.204-.666-.062-.897z" fill="#ccc8c2"/><circle cx="1983.539" cy="902.289" fill="#1b1c20" r="2.082"/><circle cx="1996.408" cy="902.289" fill="#1b1c20" r="2.082"/><path d="m1993.079 908.913c0 1.099-1.392 2.358-3.104 2.358-1.717 0-3.107-1.26-3.107-2.358s1.391-1.504 3.107-1.504c1.713 0 3.104.405 3.104 1.504z" fill="#e61676"/><path d="m1976.806 862.446s-.313-.445-.729.04c-.415.488-8.57 10.044-8.57 10.044-2.536 2.974-7.035 3.249-9.915.606l-.493-.449c-2.881-2.642-2.997-7.146-.253-9.931l3.382-3.44c.374-.376.91-.542 1.431-.439 0 0 12.915 2.472 13.972 2.683 1.059.211 1.175.886 1.175.886z" fill="#e2e0de"/><path d="m2007.5 960.495c-2.541-1.658-5.954-.945-7.615 1.599-1.661 2.545-.947 5.955 1.6 7.616 2.501 1.633 9.569 6.394 12.181 8.786l.269.241c3.05 2.794 7.228 6.623 11.464 8.753 2.712 1.366 6.021.272 7.387-2.443 1.368-2.714.272-6.022-2.441-7.388-2.876-1.445-6.402-4.677-8.979-7.036l-.269-.245c-3.743-3.424-12.599-9.232-13.597-9.883z" fill="#d3d0c7"/><path d="m1972.446 960.495c2.537-1.658 5.954-.945 7.614 1.599 1.661 2.545.942 5.955-1.601 7.616-2.501 1.633-9.567 6.394-12.181 8.786l-.265.241c-3.053 2.794-7.23 6.623-11.466 8.753-2.716 1.366-6.023.272-7.387-2.443-1.367-2.714-.272-6.022 2.44-7.388 2.873-1.445 6.402-4.677 8.979-7.036l.269-.245c3.743-3.424 12.599-9.232 13.598-9.883z" fill="#d3d0c7"/><path d="m2018.004 1050.731s1.199-.71 3.301-1.673c2.104-.953 5.108-2.123 8.711-3.162 3.604-1.049 7.809-1.963 12.313-2.579 4.504-.617 9.311-.971 14.116-.968 9.609-.049 19.22 1.4 26.425 3.523 3.605 1.041 6.61 2.217 8.711 3.173 2.103.971 3.305 1.686 3.305 1.686s-1.202.714-3.305 1.687c-2.101.956-5.105 2.13-8.711 3.172-7.205 2.124-16.815 3.572-26.425 3.523-4.806.004-9.612-.35-14.116-.967-4.505-.617-8.709-1.53-12.313-2.58-3.603-1.039-6.607-2.208-8.711-3.161-2.102-.963-3.301-1.674-3.301-1.674z" fill="#013e4c"/><path d="m2093.217 995.305c7.49 22.688-4.827 47.152-27.513 54.643-22.687 7.494-47.152-4.825-54.643-27.511-7.493-22.687 4.826-47.151 27.512-54.645 22.688-7.489 47.149 4.828 54.644 27.513z" fill="#e73324"/><path d="m2094.476 1000.008c-5.624 6.938-15.59 15.744-37.668 23.023-22.177 7.307-35.059 6.661-43.774 4.316 9.185 19.5 31.683 29.53 52.671 22.6 21.122-6.976 33.25-28.668 28.771-49.939z" fill="#47ae64"/><path d="m2012.22 1025.51c.884 2.13 1.922 4.153 3.1 6.064 11.492 1.633 25.114-.308 42.332-5.98 10.888-3.59 26.137-9.559 37.541-20.89-.216-2.212-.604-4.43-1.178-6.642-10.729 12.364-26.823 18.702-38.055 22.404-11.65 3.842-28.796 8.505-43.74 5.044z" fill="#199029"/><path d="m2012.167 1015.291c-5.866-15.278 2.853-34.778 18.261-40.447-5.163 5.477-9.817 11.019-13.058 17.883-3.395 7.194-4.45 14.74-5.203 22.564z" fill="#f9473e"/><circle cx="938.704" cy="527.472" fill="#edeeef" r="22.51"/><path d="m956.309 513.448c-.99 4.54-3.562 10.967-12.123 19.514-8.598 8.583-14.735 11.297-19.335 12.246 8.83 6.916 21.633 6.316 29.768-1.815 8.187-8.185 8.748-21.104 1.69-29.945z" fill="#6a1485"/><path d="m924.042 544.543c.91.782 1.865 1.481 2.86 2.095 5.723-1.93 11.601-6.018 18.277-12.683 4.221-4.215 9.913-10.557 12.563-18.49-.618-.979-1.317-1.92-2.101-2.814-2.095 8.258-8.091 14.968-12.446 19.316-4.519 4.511-11.395 10.69-19.153 12.576z" fill="#5b0e77"/><path d="m918.616 521.135c.833-8.477 9.44-15.512 17.928-14.555-3.679 1.343-7.138 2.835-10.245 5.272-3.259 2.555-5.509 5.818-7.683 9.283z" fill="#f7f7f8"/><path d="m1078.857 572.455v-17.336h85.905c2.343 0 4.245 1.901 4.245 4.245v8.847c0 2.345-1.901 4.245-4.245 4.245h-85.905z" fill="#940084"/><path d="m1052.363 572.455v-17.336h36.973c2.345 0 4.245 1.901 4.245 4.245v8.847c0 2.345-1.9 4.245-4.245 4.245h-36.973z" fill="#c102c1"/><path d="m1052.363 570.883v-14.192h36.703c1.573 0 2.848 1.275 2.848 2.846v8.499c0 1.572-1.275 2.847-2.848 2.847z" fill="#f7f7f8"/><path d="m1073.905 555.118v-15.804h78.315c2.137 0 3.87 1.733 3.87 3.87v8.064c0 2.137-1.733 3.87-3.87 3.87z" fill="#199029"/><path d="m1049.754 555.118v-15.804h33.706c2.137 0 3.87 1.733 3.87 3.87v8.064c0 2.137-1.732 3.87-3.87 3.87z" fill="#4fac25"/><path d="m1049.754 553.598v-12.761h33.238c1.414 0 2.561 1.146 2.561 2.56v7.64c0 1.414-1.146 2.561-2.561 2.561z" fill="#f7f7f8"/><path d="m1088.395 539.314v-15.804h78.312c2.137 0 3.871 1.733 3.871 3.87v8.064c0 2.137-1.733 3.87-3.871 3.87z" fill="#336eb6"/><path d="m1064.24 539.314v-15.804h33.706c2.138 0 3.871 1.733 3.871 3.87v8.064c0 2.137-1.732 3.87-3.871 3.87z" fill="#5393d3"/><path d="m1064.24 537.793v-12.762h33.238c1.415 0 2.561 1.147 2.561 2.562v7.64c0 1.415-1.146 2.561-2.561 2.561h-33.238z" fill="#f7f7f8"/><path d="m890.257 572.455h457.791v16.235h-457.791z" fill="#60c6c6"/><path d="m1294.583 588.509h16.232v31.089h-16.232z" fill="#58bab7"/><path d="m927.49 588.509h16.234v31.089h-16.234z" fill="#58bab7"/><path d="m1324.736 558.18h-8.048c0-13.686-7.851-16.789-15.438-19.789l-.812-.321c-7.56-3.007-10.66-7.705-11.932-11.116-1.426-3.825-.915-6.98-.853-7.327l7.919 1.43.013-.073c-.09.629-.62 6.249 7.829 9.609l.79.313c8.178 3.232 20.532 8.115 20.532 27.274z" fill="#f9ce19"/><path d="m1325.013 554.463c0 10.499-2.991 19.009-31.546 19.009-28.553 0-31.544-8.511-31.544-19.009 0-3.994 3.485-17 7.678-19.011 2.238-1.075 1.853 4.854 7.807 2.644 4.687-1.739 10.196-2.644 16.06-2.644 17.422 0 31.545 8.511 31.545 19.011z" fill="#f9ce19"/><path d="m1322.344 521.003c0 7.362-7.807 13.328-17.432 13.328-9.631 0-17.436-5.966-17.436-13.328 0-7.359 7.805-13.325 17.436-13.325 9.625 0 17.432 5.966 17.432 13.325z" fill="#f9ce19"/><path d="m1313.252 554.127c0 7.487-13.073 10.799-15.071 0-1.429-7.739-9.397-8.233-16.328-6.472-10.642 2.703-11.624 1.713-9.422-.273 4.517-4.069 12.743-6.811 20.973-6.811 12.243 0 19.848 6.069 19.848 13.556z" fill="#ffe97d"/><ellipse cx="1312.387" cy="524.652" fill="#ffe97d" rx="8.781" ry="6.175"/><path d="m1321.912 519.056c-.047-1.334 1.235 1.525 1.676 2.185.438.66 3.248 2.34 7.977.911 4.728-1.428 2.768 1.202 1.855 2.477-.729 1.02-2.855 2.764-5.491 3.839-2.86 1.164-7.123.75-8.551-.048-1.661-.928-1.367-3.297.217-4.641 1.745-1.483 2.399-2.447 2.317-4.723z" fill="#e73324"/><circle cx="1312.042" cy="517.121" fill="#3d1c10" r="1.705"/><path d="m970.627 540.976h26.564l-2.274-18.842h-24.29z" fill="#80daf9"/><path d="m910.885 563.468h115.436v3.016h-115.436z" fill="#504f53"/><path d="m910.885 553.631h55.913v9.837h-55.913z" fill="#68676c"/><path d="m910.885 528.8h53.664v24.832h-53.664z" fill="#45aae1"/><path d="m910.885 528.8h53.664v2.755h-53.664z" fill="#2b67a3"/><path d="m913.965 528.8v21.752h22.211v-21.752h3.08v21.752h22.212v-35.29c0-.52.42-.94.941-.94h12.665c.686 0 1.244.557 1.244 1.244v.592c0 .688-.558 1.244-1.244 1.244h-9.585c-.52 0-.941.422-.941.941v35.289h-53.664v-24.832z" fill="#336eb6"/><path d="m967.797 520.141c-.552 0-.999.449-.999 1.001v19.834 22.492h30.394 26.917v-16.772c0-1.475-1.105-2.715-2.569-2.886l-24.349-2.834h-2.054l-2.201-18.369h2.644c.45 0 .815-.364.815-.814v-.834c0-.451-.365-.818-.815-.818zm3.705 3.264c0-.456.37-.826.826-.826h17.917c.42 0 .773.316.821.733l1.964 17.359h-21.528z" fill="#e73324"/><path d="m988.664 563.468h32.259l-1.819-11.03c-.357-2.164-2.227-3.751-4.421-3.751h-14.903c-1.604 0-3.082.855-3.882 2.243z" fill="#e94f0a"/><path d="m997.191 563.6h-1.738c.008-5.945 4.83-10.763 10.777-10.763 5.946 0 10.77 4.818 10.778 10.763z" fill="#663205"/><circle cx="1006.231" cy="563.483" fill="#39373a" r="9.052"/><circle cx="1006.23" cy="563.483" fill="#e73324" r="4.281"/><circle cx="1006.23" cy="563.483" fill="#d8dadc" r="1.552"/><circle cx="931.941" cy="563.483" fill="#39373a" r="9.052"/><circle cx="931.941" cy="563.483" fill="#e73324" r="4.282"/><circle cx="931.941" cy="563.483" fill="#d8dadc" r="1.552"/><path d="m1226.264 572.889h16.188l-3.686-80.788-16.191-.011z" fill="#a00430"/><path d="m1240.599 491.632h18.75v80.872h-18.75z" fill="#c4001d" transform="matrix(.999 -.0456 .0456 .999 -22.9615 57.5511)"/><path d="m1242.836 491.631h14.272v80.872h-14.272z" fill="#ef030f" transform="matrix(.999 -.0455 .0455 .999 -22.9325 57.4732)"/><path d="m1220.926 484.147h17.95v88.742h-17.95z" fill="#0061c1"/><path d="m1220.926 493.447h17.95v7.526h-17.95z" fill="#f7f7f8"/><path d="m1220.926 503.851h17.95v7.525h-17.95z" fill="#f7f7f8"/><path d="m1193.082 484.147h27.845v88.742h-27.845z" fill="#663205"/><path d="m1198.25 484.147h17.949v88.742h-17.949z" fill="#199029"/><path d="m1198.25 493.447h17.949v7.526h-17.949z" fill="#f7f7f8"/><path d="m1198.25 503.851h17.949v7.525h-17.949z" fill="#f7f7f8"/><path d="m1177.988 483.876h17.948v88.742h-17.948z" fill="#e94f0a" transform="matrix(.999 .0448 -.0448 .999 24.8459 -52.6231)"/><path d="m1168.777 572.414 7.231-.242 3.976-88.653-7.23.243z" fill="#c4001d"/><path d="m1178.074 523.985h17.949v4.653h-17.949z" fill="#f7f7f8" transform="matrix(.999 .0448 -.0448 .999 24.7579 -52.6261)"/><path d="m1177.786 530.41h17.951v4.653h-17.951z" fill="#f7f7f8" transform="matrix(.999 .0448 -.0448 .999 25.0426 -52.6011)"/><path d="m344.059 1425.825s.566-.289 1.626-.738c1.061-.419 2.615-1.143 4.596-1.846 3.959-1.47 9.616-3.275 16.404-4.879 6.786-1.617 14.707-3.031 23.19-3.98 4.243-.497 8.629-.85 13.081-1.117 4.453-.242 8.982-.371 13.507-.38 4.524.005 9.051.122 13.505.359 4.455.243 8.838.628 13.081 1.103 8.484.943 16.404 2.358 23.192 3.979 6.788 1.607 12.443 3.423 16.405 4.9 1.979.706 3.532 1.435 4.596 1.854 1.059.453 1.625.745 1.625.745s-.566.292-1.625.744c-1.063.424-2.617 1.15-4.596 1.859-3.962 1.477-9.617 3.289-16.405 4.898-6.788 1.62-14.708 3.038-23.192 3.98-4.243.475-8.626.855-13.081 1.103-4.454.236-8.98.353-13.505.357-4.524-.011-9.054-.14-13.507-.382-4.452-.264-8.838-.617-13.081-1.113-8.483-.948-16.404-2.363-23.19-3.98-6.789-1.605-12.445-3.409-16.404-4.879-1.981-.706-3.535-1.428-4.596-1.847-1.06-.451-1.626-.74-1.626-.74z" fill="#027384"/><path d="m480.752 1322.242c18.042 34.769 4.485 77.577-30.283 95.619-34.769 18.044-77.581 4.486-95.623-30.282-18.043-34.768-4.483-77.58 30.283-95.623 34.769-18.042 77.579-4.482 95.623 30.286z" fill="#f7af2c"/><path d="m354.749 1334.942c2.625-26.706 29.741-48.879 56.489-45.859-11.595 4.232-22.491 8.932-32.281 16.612-10.268 8.05-17.357 18.331-24.208 29.247z" fill="#ffd15f"/><path d="m480.752 1322.242c18.042 34.769 4.485 77.577-30.283 95.619-34.769 18.044-77.581 4.486-95.623-30.282 16.123-4.209 31.744-7.766 66.513-25.809 34.767-18.041 51.58-31.316 59.393-39.528z" fill="#a4035c"/><path d="m480.188 1321.219c-10.912 7.997-31.976 21.016-61.119 36.139-29.146 15.124-51.912 24.854-64.733 29.171.174.352.331.703.511 1.051 1.062 2.046 2.217 4.015 3.445 5.912 2.788-.963 5.958-2.147 9.582-3.582 15.106-5.981 34.576-15.064 54.818-25.57 20.246-10.505 38.88-21.197 52.471-30.107 3.256-2.134 6.048-4.045 8.442-5.77-.846-2.098-1.79-4.174-2.852-6.22-.181-.347-.381-.679-.565-1.024z" fill="#f28e00"/><path d="m399.536 1363.652c14.225 14.23 14.219 37.3-.012 51.527-14.227 14.226-37.296 14.218-51.522-.013-14.225-14.23-14.22-37.297.009-51.522 14.231-14.225 37.299-14.218 51.525.008z" fill="#00a6eb"/><path d="m402.265 1366.714c-1.605 7.35-5.768 17.748-19.623 31.58-13.915 13.895-23.85 18.285-31.297 19.823 14.294 11.192 35.017 10.222 48.179-2.938 13.251-13.248 14.163-34.159 2.741-48.465z" fill="#0e77e0"/><path d="m350.036 1417.042c1.474 1.267 3.021 2.398 4.63 3.39 9.266-3.125 18.777-9.74 29.579-20.527 6.836-6.822 16.047-17.087 20.337-29.929-.999-1.581-2.134-3.104-3.401-4.551-3.392 13.363-13.098 24.226-20.146 31.262-7.31 7.298-18.442 17.301-30.999 20.355z" fill="#336eb6"/><path d="m341.255 1379.153c1.351-13.716 15.277-25.106 29.014-23.555-5.953 2.174-11.55 4.586-16.578 8.533-5.275 4.136-8.916 9.418-12.436 15.022z" fill="#46cff9"/><path d="m2211.552 1415.831s-.861-.151-2.476-.439c-1.614-.247-3.982-.677-6.995-1.097-6.031-.872-14.639-1.943-24.974-2.898-10.332-.959-22.388-1.8-35.304-2.362-3.229-.166-6.514-.271-9.834-.377-3.323-.119-6.69-.223-10.079-.272-6.782-.175-13.671-.198-20.56-.24-6.889.042-13.776.055-20.559.228-3.39.054-6.754.144-10.078.267-3.322.113-6.606.205-9.834.375-12.916.559-24.974 1.399-35.306 2.362-10.333.956-18.943 2.033-24.972 2.911-3.012.423-5.381.853-6.996 1.104-1.612.289-2.477.44-2.477.44s.864.156 2.477.445c1.615.25 3.984.681 6.996 1.101 6.028.88 14.639 1.956 24.972 2.913 10.332.963 22.39 1.804 35.306 2.363 3.228.169 6.512.259 9.834.371 3.324.127 6.688.214 10.078.269 6.782.175 13.67.188 20.559.228 6.889-.045 13.777-.067 20.56-.238 3.389-.05 6.756-.158 10.079-.273 3.32-.107 6.604-.211 9.834-.377 12.916-.562 24.972-1.403 35.304-2.363 10.335-.952 18.942-2.026 24.974-2.897 3.013-.419 5.381-.851 6.995-1.097 1.614-.291 2.476-.447 2.476-.447z" fill="#027384"/><path d="m2095.922 1419.226c.825 0 1.699-.014 2.632-.045 4.359-.14 7.78-3.789 7.639-8.15-.14-4.355-3.74-7.749-8.15-7.637-2.293.07-5.039-.026-6.497-.213-1.789-1.608-5.44-4.963-8.905-8.165l6.358-19.78c1.332-4.151-.952-8.599-5.104-9.934-4.153-1.335-8.601.948-9.938 5.102l-7.898 24.572c-.937 2.922-.101 6.121 2.147 8.209 2.053 1.903 12.386 11.48 14.213 12.999 1.217 1.015 3.647 3.042 13.503 3.042z" fill="#044f1f"/><path d="m2170.291 1396.112c4.288 0 7.804-3.431 7.894-7.738.091-4.36-3.371-7.968-7.734-8.057l-18.392-.38-9.966-18.448c-2.077-3.84-6.871-5.268-10.706-3.193-3.839 2.072-5.268 6.864-3.192 10.703l12.155 22.493c1.351 2.503 3.94 4.086 6.785 4.146l22.989.473c.056-.001.111.001.167.001z" fill="#044f1f"/><path d="m2166.854 1234.945s-1.859 4.247-2.265 6.013c-.605 2.674-.178 5.244.634 7.118.813 1.87-.906 3.506-3.38 3.506-2.478 0-6.79-1.313-5.397-3.476 1.389-2.158 6.057-4.322 6.323-7.613.112-1.439-.342-4.863-.465-6.805-.12-1.939 5.528-1.558 4.55 1.257z" fill="#046329"/><path d="m2111.124 1332.833s13.346-8.767 20.521-25.872c7.182-17.104-10.227-29.365-23.59-41.186-13.362-11.816-18.413-15.854-18.413-15.854s-7.863-2.22 1.645 10.791c-3.08-.738-7.052-3-8.346.676-1.296 3.673 5.237 7.041 5.237 7.041s-7.566.117-6.782 5.05c.784 4.934 6.677 2.479 6.677 2.479s-5.226 3.938-3.257 7.237c1.968 3.301 7.119-1.566 7.119-1.566s5.161 4.742 5.5 10.977c.342 6.23-6.633 5.531-8.926 12.469-2.292 6.939 4.617 19.059 13.445 18.237-1.261 3.449-3.555 9.016-3.555 9.016s6.047-.602 12.725.505z" fill="#910558"/><g fill="#c4001d"><path d="m2137.146 1242.532 8.735 1.202-5.815 7.12z"/><path d="m2131.606 1252.792 8.556-2.134-2.753 8.771z"/><path d="m2129.71 1263.366 7.954-3.803-.94 9.144z"/><path d="m2128.305 1272.086 8.115-3.45-1.341 9.093z"/><path d="m2126.694 1280.233 8.319-2.926-1.914 8.99z"/><path d="m2124.989 1288.451 8.533-2.217-2.667 8.796z"/><path d="m2122.422 1296.979 8.606-1.896-2.99 8.689z"/><path d="m2119.322 1305.735 8.699-1.459-3.425 8.531z"/><path d="m2115.605 1314.24 8.792-.709-4.142 8.205z"/><path d="m2111.216 1321.678 8.818-.014-4.78 7.854z"/><path d="m2105.772 1321.729 4.799 7.397-9.188.246z"/><path d="m2085.59 1322.668 5.228 7.1-9.155.794z"/><path d="m2076.182 1323.38 5.229 7.1-9.157.792z"/><path d="m2066.453 1324.549 5.689 6.741-9.086 1.398z"/><path d="m2056.975 1326.229 6.064 6.401-8.991 1.916z"/><path d="m2047.396 1328.376 6.589 5.857-8.791 2.684z"/><path d="m2038.044 1331.789 7.168 5.137-8.463 3.586z"/><path d="m2029.16 1336.803 8.077 3.538-7.539 5.264z"/><path d="m2020.943 1345.273 8.819.186-4.956 7.74z"/><path d="m2017.021 1355.148 7.623-2.006-2.355 7.874z"/><path d="m2014.672 1362.839 7.744-1.47-2.897 7.692z"/><path d="m2011.491 1369.097 7.868.453-4.676 6.756z"/><path d="m2007.004 1374.867 7.565 2.214-6.081 5.529z"/><path d="m2001.209 1379.756 7.138 3.345-6.857 4.533z"/><path d="m1995.681 1383.745 5.57 4.096-6.669 2.731z"/><path d="m1989.786 1386.108 4.456 4.764-6.659 1.375z"/><path d="m1983.661 1387.5 3.428 4.942-6.259.366z"/><path d="m1977.825 1387.663 2.664 5.174-6.051-.44z"/><path d="m1972.381 1386.997 1.692 5.158-5.508-1.296z"/><path d="m1967.575 1385.876.72 4.631-4.511-1.876z"/><path d="m1963.871 1384.117-.142 4.321-3.762-2.471z"/><path d="m2170.445 1236.019 1.076 8.752-8.371-3.799z"/><path d="m2158.177 1233.761 5.134 7.166-9.167.675z"/><path d="m2147.407 1236.014 6.865 5.533-8.655 3.101z"/></g><path d="m2184.458 1275.545c-.26 1.338-6.158 1.309-13.17-.063-7.008-1.373-12.479-3.566-12.219-4.905.261-1.339 6.157-1.31 13.17.063 7.011 1.372 12.482 3.567 12.219 4.905z" fill="#046329"/><path d="m2093.491 1331.87s12.326-11.376 16.83-30.341c4.502-18.962-15.645-28.681-31.526-38.638-15.883-9.953-21.807-13.272-21.807-13.272s-8.534-.947 3.554 10.903c-3.317-.236-7.821-1.896-8.533 2.133-.711 4.03 6.639 6.4 6.639 6.4s-7.822 1.423-6.163 6.399c1.659 4.979 7.347 1.423 7.347 1.423s-4.738 4.979-2.134 8.06c2.608 3.082 7.11-2.845 7.11-2.845s6.165 4.031 7.586 10.431c1.426 6.401-5.926 6.874-7.109 14.458-1.185 7.586 8.057 18.963 17.067 16.594-.712 3.793-2.135 9.957-2.135 9.957s6.162-1.662 13.274-1.662z" fill="#a4035c"/><path d="m2023.511 1355.085c.26-.727.565-1.426.893-2.104 4.908-12.035 22.292-23.862 83.782-23.862 2.415 0 4.74-.07 6.993-.196 12.485-17.872 19.807-48.057 21.75-66.762.036-.356.107-.7.161-1.051.006-.175-.015-.336.006-.513 1.534-15.029 11.299-20.514 26.442-19.749 4.25.216 10.158 1.646 15.492 8.392 3.26 4.122 6.535 6.547 10.536 6.06 1.066-.159 2.081-.37 2.96-.66 3.567-1.175 5.593-3.791 7.039-7.153 1.445-3.349 9.349-1.842 8.771 1.423 1.154-2.431 6.496-2.193 6.874.91.387 3.149-1.909 11.199-7.969 15.425-6.697 4.671-13.69 6.138-24.52 6.04-.76-.005-4.554-.021-8.395-.042-1.467.679-2.954 1.259-4.43 1.715-9.416 19.348-4.825 50.005-6.804 67.393-.4 3.518-.998 6.457-1.782 8.973-6.258 26.441-26.389 47.496-69.329 47.496-37.192 0-69.503-7.199-69.503-30.969 0-.225 0-.451 0-.683-.469-3.293-.173-6.739 1.033-10.083z" fill="#046329"/><path d="m2201.33 1248.122c-.278.891.889 2.048 2.606 2.588 1.716.536 3.336.248 3.615-.643.273-.891-.89-2.047-2.609-2.583-1.714-.54-3.332-.251-3.612.638z" fill="#044f1f"/><path d="m2208.503 1250.159c-.026.733 1.232 1.373 2.811 1.423 1.576.054 2.876-.499 2.898-1.232.028-.734-1.232-1.371-2.809-1.423-1.578-.052-2.879.5-2.9 1.232z" fill="#044f1f"/><circle cx="2163.607" cy="1249.305" fill="#f7f7f8" r="3.341"/><circle cx="2163.29" cy="1249.368" fill="#3d1c10" r="1.8"/><path d="m2171.643 1248.985c0 1.632 1.322 2.954 2.953 2.954 1.634 0 2.959-1.322 2.959-2.954 0-1.634-1.325-2.959-2.959-2.959-1.631 0-2.953 1.326-2.953 2.959z" fill="#f7f7f8"/><circle cx="2174.212" cy="1249.368" fill="#3d1c10" r="1.799"/><path d="m2173.781 1271.871.256-.687c.171.038 1.954 0 4.198-.043 3.539.877 8.476 2.17 10.976 3.116 1.354.512 2.621.897 3.794 1.179 2.379.535 3.814-2.46 3.875-2.591l1.597.731c-.317.696-.913 1.611-1.733 2.357 1.346-.003 2.43-.259 3.153-.793l1.045 1.408c-1.128.834-2.6 1.158-4.213 1.158-1.169 0-2.409-.188-3.645-.459-.247-.029-.5-.074-.759-.15l.007-.02c-1.302-.328-2.583-.744-3.74-1.183-3.961-1.495-14.701-3.995-14.811-4.023z" fill="#c4001d"/><path d="m2148.063 1233.06s-.877 4.554-.877 6.364c0 2.744 2.12 5.157 3.33 6.803 1.204 1.644-.111 3.621-2.525 4.168-2.413.548-6.832.498-5.954-1.914.876-2.415 2.952-4.586 2.786-9.057-.052-1.444-.927-4.717-1.473-6.581-.55-1.866 5.045-2.741 4.713.217z" fill="#046329"/><path d="m2118.435 1393.567c-2.577-7.027.832-19.477 9.026-30.812 9.982-13.821 23.28-20.737 29.698-15.454 1.65 1.36 2.674 3.403 3.132 5.908-5.489 18.552-18.351 33.923-41.856 40.358z" fill="#e57b33"/><path d="m2022.451 1359.377c-5.431 24.014-29.433 36.578-49.548 32.181-6.403-1.384-12.496-4.508-15.974-10.123-5.337-8.615-5.016-15.822-7.375-15.475-3.981.583-.441 10.589.186 12.511 2.506 7.708 7.569 14.024 14.532 18.165 21.712 12.908 54.371 7.936 71.245-10.253 6.568-7.083 17.083-21.393 12.548-31.854-5.542-12.779-21.089-15.167-25.614 4.848z" fill="#046329"/><ellipse cx="1949.836" cy="1359.947" fill="#046329" rx="7.313" ry="10.532"/><path d="m2062.57 1419.226c.828 0 1.702-.014 2.636-.045 4.358-.14 7.778-3.789 7.637-8.15-.139-4.355-3.728-7.749-8.15-7.637-2.295.07-5.039-.026-6.494-.213-1.791-1.608-5.443-4.963-8.908-8.165l6.357-19.78c1.336-4.151-.948-8.599-5.104-9.934-4.153-1.335-8.601.948-9.934 5.102l-7.902 24.572c-.938 2.922-.099 6.121 2.147 8.209 2.055 1.903 12.39 11.48 14.212 12.999 1.22 1.015 3.652 3.042 13.503 3.042z" fill="#046329"/><path d="m2126.53 1419.333c4.199 0 7.693-3.305 7.887-7.541.199-4.357-3.174-8.051-7.529-8.248l-.043-.002-5.558-33.73c-.706-4.306-4.775-7.225-9.075-6.509-4.304.706-7.219 4.771-6.51 9.075l6.596 40.047c.605 3.683 3.706 6.438 7.435 6.607l6.436.29c.121.008.245.011.361.011z" fill="#046329"/></svg>